<?xml version="1.0" encoding="UTF-8" standalone="no"?>
<!-- Created with Inkscape (http://www.inkscape.org/) -->

<svg
   width="210mm"
   height="297mm"
   viewBox="0 0 210 297"
   version="1.1"
   id="svg1"
   inkscape:export-filename="bitmap.svg"
   inkscape:export-xdpi="96"
   inkscape:export-ydpi="96"
   xmlns:inkscape="http://www.inkscape.org/namespaces/inkscape"
   xmlns:sodipodi="http://sodipodi.sourceforge.net/DTD/sodipodi-0.dtd"
   xmlns="http://www.w3.org/2000/svg"
   xmlns:svg="http://www.w3.org/2000/svg">
  <sodipodi:namedview
     id="namedview1"
     pagecolor="#ffffff"
     bordercolor="#666666"
     borderopacity="1.0"
     inkscape:showpageshadow="2"
     inkscape:pageopacity="0.0"
     inkscape:pagecheckerboard="0"
     inkscape:deskcolor="#d1d1d1"
     inkscape:document-units="mm"
     inkscape:zoom="3.3638608"
     inkscape:cx="364.90808"
     inkscape:cy="354.05745"
     inkscape:window-width="2560"
     inkscape:window-height="1387"
     inkscape:window-x="0"
     inkscape:window-y="25"
     inkscape:window-maximized="0"
     inkscape:current-layer="layer1" />
  <defs
     id="defs1" />
  <g
     inkscape:label="Layer 1"
     inkscape:groupmode="layer"
     id="layer1">
    <g
       id="g1">
      <path
         style="fill:none;stroke:#000000;stroke-width:0.264583"
         d="m 40.771183,-75.277301 0.263652,0.263652 c 0.351537,0.351537 1.76575,0.351537 1.414213,0 l -1.147536,-1.147536 c -0.707107,-0.707107 -0.707107,-2.12132 0,-1.414213 l 2.295072,2.295072 c 0.707107,0.707107 2.12132,0.707107 1.414213,0 l -3.709285,-3.709285 c -0.707107,-0.707107 -0.707107,-2.12132 0,-1.414213 l 5.123498,5.123498 c 0.707107,0.707107 2.12132,0.707107 1.414213,0 l -6.537712,-6.537712 c -0.707107,-0.707107 -0.707107,-2.12132 0,-1.414213 l 7.951925,7.951925 c 0.707107,0.707107 2.12132,0.707107 1.414213,0 l -9.366139,-9.366139 c -0.707107,-0.707107 -0.707107,-2.12132 0,-1.414213 l 10.780352,10.780352 c 0.707107,0.707107 2.12132,0.707107 1.414213,0 L 41.30151,-87.474891 c -0.707107,-0.707107 -0.707107,-2.12132 0,-1.414213 l 13.608779,13.608779 c 0.707107,0.707107 2.12132,0.707107 1.414213,0 L 41.30151,-90.303317 c -0.707107,-0.707107 -0.707107,-2.12132 0,-1.414213 l 16.437206,16.437206 c 0.707107,0.707107 2.12132,0.707107 1.414213,0 L 41.30151,-93.131743 c -0.707107,-0.707107 -0.707107,-2.12132 0,-1.414213 l 19.265632,19.265632 c 0.707107,0.707107 2.12132,0.707107 1.414213,0 L 41.301509,-95.96017 c -0.707107,-0.707107 -0.707107,-2.12132 0,-1.414213 l 22.094059,22.094059 c 0.707107,0.707107 2.12132,0.707107 1.414213,0 L 41.301508,-98.788597 c -0.707107,-0.707107 -0.707107,-2.121323 0,-1.414213 l 24.922486,24.922486 c 0.707107,0.707107 2.12132,0.707107 1.414213,0 L 41.301508,-101.61702 c -0.707107,-0.70711 -0.707107,-2.12132 0,-1.41422 l 27.750913,27.750917 c 0.707107,0.707107 2.12132,0.707107 1.414213,0 L 41.301508,-104.44545 c -0.707107,-0.70711 -0.707107,-2.12132 0,-1.41421 l 30.579339,30.579337 c 0.707107,0.707107 2.12132,0.707107 1.414213,0 L 41.301507,-107.27388 c -0.707107,-0.7071 -0.707107,-2.12132 0,-1.41421 l 33.407766,33.407767 c 0.707107,0.707107 2.12132,0.707107 1.414213,0 L 41.301506,-110.1023 c -0.707107,-0.70711 -0.707107,-2.12132 0,-1.41422 l 36.236193,36.236197 c 0.707107,0.707107 2.12132,0.707107 1.414213,0 L 41.301506,-112.93073 c -0.707107,-0.70711 -0.707107,-2.12132 0,-1.41421 l 39.06462,39.064618 c 0.707107,0.707107 2.12132,0.707107 1.414213,0 L 41.301506,-115.75916 c -0.707107,-0.7071 -0.707107,-2.12132 0,-1.41421 l 41.893047,41.893049 c 0.707107,0.707107 2.12132,0.707107 1.414213,0 l -43.30726,-43.307259 c -0.707107,-0.70711 -0.707107,-2.12132 0,-1.41421 l 44.721473,44.721469 c 0.707107,0.707107 2.12132,0.707107 1.414213,0 L 41.301505,-121.41601 c -0.707107,-0.70711 -0.707107,-2.12132 0,-1.41421 l 47.5499,47.549899 c 0.707107,0.707107 2.12132,0.707107 1.414213,0 L 41.301504,-124.24444 c -0.707107,-0.7071 -0.707107,-2.12132 0,-1.41421 l 50.378327,50.378329 c 0.707107,0.707107 2.12132,0.707107 1.414213,0 l -51.79254,-51.792539 c -0.707107,-0.70711 -0.707107,-2.12132 0,-1.41421 l 53.206754,53.20675 c 0.707107,0.707107 2.12132,0.707107 1.414213,0 l -54.620967,-54.62097 c -0.707107,-0.7071 -0.707107,-2.12132 0,-1.41421 l 56.035181,56.035181 c 0.707107,0.707107 2.12132,0.707107 1.414213,0 L 41.663254,-132.36796 c -0.707107,-0.70711 0.707107,-0.70711 1.414213,0 l 57.087643,57.087641 c 0.70711,0.707107 2.12132,0.707107 1.41421,0 L 44.49168,-132.36796 c -0.707107,-0.70711 0.707107,-0.70711 1.414213,0 l 57.087647,57.087641 c 0.7071,0.707107 2.12132,0.707107 1.41421,0 L 47.320106,-132.36796 c -0.707107,-0.70711 0.707107,-0.70711 1.414213,0 l 57.087641,57.087641 c 0.70711,0.707107 2.12132,0.707107 1.41422,0 L 50.148532,-132.36796 c -0.707107,-0.70711 0.707107,-0.70711 1.414213,0 l 57.087645,57.087641 c 0.70711,0.707107 2.12132,0.707107 1.41421,0 L 52.976958,-132.36796 c -0.707107,-0.70711 0.707107,-0.70711 1.414213,0 l 57.087649,57.087641 c 0.7071,0.707107 2.12132,0.707107 1.41421,0 L 55.805384,-132.36796 c -0.707107,-0.70711 0.707107,-0.70711 1.414213,0 l 57.087643,57.087641 c 0.70711,0.707107 2.12132,0.707107 1.41421,0 L 58.63381,-132.36796 c -0.707107,-0.70711 0.707107,-0.70711 1.414213,0 l 57.087647,57.087641 c 0.7071,0.707107 2.12132,0.707107 1.41421,0 L 61.462236,-132.36796 c -0.707107,-0.70711 0.707107,-0.70711 1.414213,0 l 57.087641,57.087641 c 0.70711,0.707107 2.12132,0.707107 1.41422,0 L 64.290662,-132.36796 c -0.707107,-0.70711 0.707107,-0.70711 1.414213,0 l 57.087645,57.087641 c 0.70711,0.707107 2.12132,0.707107 1.41421,0 L 67.119088,-132.36796 c -0.707107,-0.70711 0.707107,-0.70711 1.414213,0 l 57.087649,57.087641 c 0.7071,0.707107 1.16173,-0.252475 0.45463,-0.959582 L 69.947514,-132.36796 c -0.707107,-0.70711 0.707107,-0.70711 1.414213,0 l 54.713853,54.713846 c 0.7071,0.707107 0.7071,-0.707107 0,-1.414213 L 72.775941,-132.36796 c -0.707107,-0.70711 0.707107,-0.70711 1.414213,0 l 51.885426,51.88542 c 0.7071,0.707107 0.7071,-0.707107 0,-1.414213 L 75.604367,-132.36796 c -0.707107,-0.70711 0.707107,-0.70711 1.414213,0 l 49.057,49.056993 c 0.7071,0.707107 0.7071,-0.707107 0,-1.414213 l -47.642787,-47.64278 c -0.707107,-0.70711 0.707107,-0.70711 1.414213,0 l 46.228564,46.228566 c 0.70711,0.707107 0.70711,-0.707107 0,-1.414213 L 81.261219,-132.36796 c -0.707107,-0.70711 0.707107,-0.70711 1.414213,0 l 43.400138,43.40014 c 0.70711,0.707107 0.70711,-0.707107 0,-1.414213 L 84.089646,-132.36796 c -0.707107,-0.70711 0.707107,-0.70711 1.414213,0 l 40.571711,40.571714 c 0.70711,0.707107 0.70711,-0.707107 0,-1.414213 L 86.918073,-132.36796 c -0.707107,-0.70711 0.707107,-0.70711 1.414213,0 l 37.743284,37.743288 c 0.70711,0.707107 0.70711,-0.707107 0,-1.414213 L 89.746499,-132.36796 c -0.707107,-0.70711 0.707107,-0.70711 1.414213,0 l 34.914858,34.914861 c 0.70711,0.707107 0.70711,-0.707107 0,-1.414213 L 92.574925,-132.36796 c -0.707107,-0.70711 0.707107,-0.70711 1.414213,0 l 32.086432,32.08643 c 0.70711,0.707111 0.70711,-0.7071 0,-1.41421 l -30.672219,-30.67222 c -0.707107,-0.70711 0.707107,-0.70711 1.414213,0 l 29.258006,29.25801 c 0.70711,0.7071 0.70711,-0.70711 0,-1.41422 l -27.843792,-27.84379 c -0.707107,-0.70711 0.707107,-0.70711 1.414213,0 l 26.429579,26.42958 c 0.70711,0.70711 0.70711,-0.70711 0,-1.41421 l -25.01536,-25.01537 c -0.70711,-0.70711 0.7071,-0.70711 1.41421,0 l 23.60115,23.60116 c 0.70711,0.7071 0.70711,-0.70711 0,-1.41422 l -22.18694,-22.18694 c -0.70711,-0.70711 0.70711,-0.70711 1.41421,0 l 20.77273,20.77273 c 0.70711,0.70711 0.70711,-0.70711 0,-1.41421 l -19.35851,-19.35852 c -0.70711,-0.70711 0.7071,-0.70711 1.41421,0 l 17.9443,17.9443 c 0.70711,0.70711 0.70711,-0.70711 0,-1.41421 l -16.53009,-16.53009 c -0.7071,-0.70711 0.70711,-0.70711 1.41422,0 l 15.11587,15.11588 c 0.70711,0.7071 0.70711,-0.70711 0,-1.41422 l -13.70166,-13.70166 c -0.70711,-0.7071 0.70711,-0.7071 1.41421,0 l 12.28745,12.28745 c 0.70711,0.70711 0.70711,-0.70711 0,-1.41421 l -10.87323,-10.87324 c -0.70711,-0.7071 0.7071,-0.7071 1.41421,0 l 9.45902,9.45902 c 0.70711,0.70711 0.70711,-0.7071 0,-1.41421 l -8.04481,-8.04481 c -0.7071,-0.7071 0.70711,-0.7071 1.41422,0 l 6.63059,6.6306 c 0.70711,0.7071 0.70711,-0.70711 0,-1.41422 l -5.21638,-5.21638 c -0.70711,-0.7071 0.70711,-0.7071 1.41421,0 l 3.80217,3.80217 c 0.70711,0.70711 0.70711,-0.70711 0,-1.41421 l -2.38795,-2.38796 c -0.70711,-0.7071 0.7071,-0.7071 1.41421,0 l 1.19398,1.19398 c 0.41345,0.41346 0.41345,-1.00076 0,-1.41421 l -0.3101,-0.3101 m -84.687222,-1e-5 -0.263652,0.26365 c -0.351537,0.35154 -0.351537,1.76575 0,1.41422 l 1.147536,-1.14754 c 0.707107,-0.70711 2.12132,-0.70711 1.414213,0 l -2.295072,2.29507 c -0.707107,0.70711 -0.707107,2.12132 0,1.41421 l 3.709285,-3.70928 c 0.707107,-0.70711 2.12132,-0.70711 1.414213,0 l -5.123498,5.1235 c -0.707107,0.7071 -0.707107,2.12132 0,1.41421 l 6.537712,-6.53771 c 0.707107,-0.70711 2.12132,-0.70711 1.414213,0 l -7.951925,7.95192 c -0.707107,0.70711 -0.707107,2.12132 0,1.41422 l 9.366139,-9.36614 c 0.707107,-0.70711 2.12132,-0.70711 1.414213,0 l -10.780352,10.78035 c -0.707107,0.70711 -0.707107,2.12132 0,1.41421 l 12.194565,-12.19456 c 0.707107,-0.70711 2.12132,-0.70711 1.414213,0 l -13.608779,13.60878 c -0.707107,0.7071 -0.707107,2.12132 0,1.41421 l 15.022992,-15.02299 c 0.707107,-0.70711 2.12132,-0.70711 1.414213,0 l -16.437206,16.4372 c -0.707107,0.70711 -0.707107,2.12132 0,1.41422 l 17.851419,-17.85142 c 0.707107,-0.70711 2.12132,-0.70711 1.414213,0 l -19.265632,19.26563 c -0.707107,0.70711 -0.707107,2.12132 0,1.41421 l 20.679846,-20.67984 c 0.707107,-0.70711 2.12132,-0.70711 1.414213,0 l -22.094059,22.09405 c -0.707107,0.70711 -0.707107,2.12132 0,1.41422 l 23.508273,-23.50827 c 0.707107,-0.70711 2.12132,-0.70711 1.414213,0 l -24.922486,24.92248 c -0.707107,0.70711 -0.707107,2.12132 0,1.41421 l 26.336699,-26.33669 c 0.707107,-0.70711 2.12132,-0.70711 1.414213,0 l -27.750913,27.75091 c -0.707107,0.7071 -0.707107,2.12132 0,1.41421 l 29.165126,-29.16512 c 0.707107,-0.70711 2.12132,-0.70711 1.414213,0 l -30.579339,30.57933 c -0.707107,0.70711 -0.707107,2.121324 0,1.41422 l 31.993553,-31.99356 c 0.707107,-0.7071 2.12132,-0.7071 1.414213,0 L 41.30151,-98.96021 c -0.707107,0.707107 -0.707107,2.12132 0,1.414213 l 34.82198,-34.821983 c 0.707107,-0.7071 2.12132,-0.7071 1.414213,0 L 41.30151,-96.131784 c -0.707107,0.707107 -0.707107,2.12132 0,1.414213 l 37.650406,-37.650409 c 0.707107,-0.7071 2.12132,-0.7071 1.414213,0 l -39.06462,39.064623 c -0.707107,0.707107 -0.707107,2.12132 0,1.414213 l 40.478833,-40.478836 c 0.707107,-0.7071 2.12132,-0.7071 1.414213,0 l -41.893047,41.89305 c -0.707107,0.707107 -0.707107,2.12132 0,1.414213 l 43.30726,-43.307263 c 0.707107,-0.7071 2.12132,-0.7071 1.414213,0 l -44.721473,44.721476 c -0.707107,0.707107 -0.707107,2.12132 0,1.414213 l 46.135687,-46.135689 c 0.707107,-0.7071 2.12132,-0.7071 1.414213,0 l -47.5499,47.549902 c -0.707107,0.707107 -0.707107,2.12132 0,1.414213 l 48.964114,-48.964115 c 0.707107,-0.70711 2.12132,-0.70711 1.414213,0 l -50.378327,50.378328 c -0.707107,0.707107 -0.707107,2.12132 0,1.414213 l 51.79254,-51.792541 c 0.707107,-0.70711 2.12132,-0.70711 1.414213,0 l -53.206754,53.206755 c -0.707107,0.707107 -0.707107,2.12132 0,1.414213 l 54.620967,-54.620968 c 0.707107,-0.70711 2.12132,-0.70711 1.414213,0 l -56.035181,56.035182 c -0.707107,0.707107 -0.345357,1.75957 0.36175,1.052463 L 98.7509,-132.36798 c 0.707107,-0.70711 2.12132,-0.70711 1.41421,0 l -57.087641,57.087645 c -0.707107,0.707107 0.707107,0.707107 1.414213,0 l 57.087648,-57.087645 c 0.7071,-0.70711 2.12132,-0.70711 1.41421,0 l -57.087645,57.087645 c -0.707107,0.707107 0.707107,0.707107 1.414213,0 l 57.087642,-57.087645 c 0.70711,-0.70711 2.12132,-0.70711 1.41422,0 l -57.087649,57.087645 c -0.707107,0.707107 0.707107,0.707107 1.414213,0 l 57.087646,-57.087645 c 0.70711,-0.70711 2.12132,-0.70711 1.41421,0 l -57.087643,57.087645 c -0.707107,0.707107 0.707107,0.707107 1.414213,0 l 57.08764,-57.087645 c 0.70711,-0.70711 2.12132,-0.70711 1.41422,0 l -57.087647,57.087645 c -0.707107,0.707107 0.707107,0.707107 1.414213,0 l 57.087644,-57.087645 c 0.70711,-0.70711 2.12132,-0.70711 1.41421,0 l -57.087641,57.087645 c -0.707107,0.707107 0.707107,0.707107 1.414213,0 l 57.087648,-57.087645 c 0.7071,-0.70711 2.12132,-0.70711 1.41421,0 l -57.087645,57.087645 c -0.707107,0.707107 0.707107,0.707107 1.414213,0 l 57.087642,-57.087645 c 0.70711,-0.70711 2.12132,-0.70711 1.41422,0 l -57.087649,57.087645 c -0.707107,0.707107 0.707107,0.707107 1.414213,0 l 57.087646,-57.087645 c 0.70711,-0.70711 2.12132,-0.70711 1.41421,0 l -57.087643,57.087645 c -0.707107,0.707107 0.707107,0.707107 1.414213,0 l 57.08764,-57.087645 c 0.70711,-0.70711 2.12132,-0.70711 1.41422,0 l -57.087647,57.087645 c -0.707107,0.707107 0.707107,0.707107 1.414213,0 L 126.07558,-131.4084 c 0.70711,-0.7071 0.70711,0.70711 0,1.41422 l -54.713851,54.713845 c -0.707107,0.707107 0.707107,0.707107 1.414213,0 l 53.299638,-53.299635 c 0.7071,-0.70711 0.7071,0.70711 0,1.41421 l -51.885425,51.885425 c -0.707107,0.707107 0.707107,0.707107 1.414213,0 l 50.471212,-50.471205 c 0.7071,-0.70711 0.7071,0.7071 0,1.41421 l -49.056998,49.056994 c -0.707107,0.707107 0.707107,0.707107 1.414213,0 l 47.642785,-47.642784 c 0.7071,-0.7071 0.7071,0.70711 0,1.41422 l -46.228571,46.228563 c -0.707107,0.707107 0.707107,0.707107 1.414213,0 l 44.814358,-44.814353 c 0.7071,-0.70711 0.7071,0.70711 0,1.41421 l -43.400145,43.400143 c -0.707107,0.707107 0.707107,0.707107 1.414213,0 l 41.985932,-41.985923 c 0.7071,-0.70711 0.7071,0.7071 0,1.41421 l -40.571719,40.571713 c -0.707107,0.707107 0.707107,0.707107 1.414213,0 l 39.157506,-39.157503 c 0.7071,-0.7071 0.7071,0.70711 0,1.41422 l -37.743293,37.743283 c -0.707107,0.707107 0.707107,0.707107 1.414213,0 l 36.32908,-36.329073 c 0.7071,-0.70711 0.7071,0.70711 0,1.41421 l -34.914866,34.914862 c -0.707107,0.707107 0.707107,0.707107 1.414213,0 l 33.500653,-33.500652 c 0.7071,-0.7071 0.7071,0.70711 0,1.41422 l -32.086439,32.086431 c -0.707107,0.707107 0.707107,0.707107 1.414213,0 l 30.672226,-30.672221 c 0.7071,-0.70711 0.7071,0.70711 0,1.41421 l -29.258013,29.258011 c -0.707107,0.707107 0.707107,0.707107 1.414213,0 l 27.84379,-27.843791 c 0.70711,-0.70711 0.70711,0.7071 0,1.41421 l -26.429577,26.429581 c -0.707107,0.707107 0.707107,0.707107 1.414217,0 l 25.01536,-25.015371 c 0.70711,-0.7071 0.70711,0.707111 0,1.414217 l -23.60115,23.601154 c -0.70711,0.707107 0.70711,0.707107 1.41421,0 l 22.18694,-22.186941 c 0.70711,-0.707107 0.70711,0.707107 0,1.414213 l -20.77272,20.772727 c -0.70711,0.707107 0.7071,0.707107 1.41421,0 l 19.35851,-19.358514 c 0.70711,-0.707107 0.70711,0.707107 0,1.414213 l -17.9443,17.9443 c -0.7071,0.707107 0.70711,0.707107 1.41422,0 l 16.53008,-16.530087 c 0.70711,-0.707107 0.70711,0.707107 0,1.414213 l -15.11587,15.115874 c -0.70711,0.707107 0.70711,0.707107 1.41421,0 l 13.70166,-13.70166 c 0.70711,-0.707107 0.70711,0.707107 0,1.414213 l -12.28744,12.287447 c -0.70711,0.707107 0.7071,0.707107 1.41421,0 l 10.87323,-10.873233 c 0.70711,-0.707107 0.70711,0.707107 0,1.414213 l -9.45902,9.45902 c -0.70711,0.707107 0.70711,0.707107 1.41421,0 l 8.04481,-8.044807 c 0.70711,-0.707107 0.70711,0.707107 0,1.414213 l -6.63059,6.630593 c -0.70711,0.707107 0.70711,0.707107 1.41421,0 l 5.21638,-5.21638 c 0.70711,-0.707107 0.70711,0.707107 0,1.414213 l -3.80216,3.802166 c -0.70711,0.707107 0.7071,0.707107 1.41421,0 l 2.38795,-2.387953 c 0.70711,-0.707107 0.70711,0.707107 0,1.414213 l -1.19398,1.193977 c -0.41345,0.413458 1.00076,0.413458 1.41422,0 l 0.31009,-0.310093"
         transform="scale(1,-1)"
         id="path1" />
      <g
         id="g2">
        <rect
           style="fill:none;fill-rule:evenodd;stroke-width:0.264583"
           id="rect1"
           width="86.83474"
           height="59.148304"
           x="40.271183"
           y="-133.3983"
           transform="scale(1,-1)" />
        <path
           style="fill:none;stroke:#000000;stroke-width:0.264583"
           d="m 40.771183,-75.277301 0.263652,0.263652 c 0.351537,0.351537 1.76575,0.351537 1.414213,0 l -1.147536,-1.147536 c -0.707107,-0.707107 -0.707107,-2.12132 0,-1.414213 l 2.295072,2.295072 c 0.707107,0.707107 2.12132,0.707107 1.414213,0 l -3.709285,-3.709285 c -0.707107,-0.707107 -0.707107,-2.12132 0,-1.414213 l 5.123498,5.123498 c 0.707107,0.707107 2.12132,0.707107 1.414213,0 l -6.537712,-6.537712 c -0.707107,-0.707107 -0.707107,-2.12132 0,-1.414213 l 7.951925,7.951925 c 0.707107,0.707107 2.12132,0.707107 1.414213,0 l -9.366139,-9.366139 c -0.707107,-0.707107 -0.707107,-2.12132 0,-1.414213 l 10.780352,10.780352 c 0.707107,0.707107 2.12132,0.707107 1.414213,0 L 41.30151,-87.474891 c -0.707107,-0.707107 -0.707107,-2.12132 0,-1.414213 l 13.608779,13.608779 c 0.707107,0.707107 2.12132,0.707107 1.414213,0 L 41.30151,-90.303317 c -0.707107,-0.707107 -0.707107,-2.12132 0,-1.414213 l 16.437206,16.437206 c 0.707107,0.707107 2.12132,0.707107 1.414213,0 L 41.30151,-93.131743 c -0.707107,-0.707107 -0.707107,-2.12132 0,-1.414213 l 19.265632,19.265632 c 0.707107,0.707107 2.12132,0.707107 1.414213,0 L 41.301509,-95.96017 c -0.707107,-0.707107 -0.707107,-2.12132 0,-1.414213 l 22.094059,22.094059 c 0.707107,0.707107 2.12132,0.707107 1.414213,0 L 41.301508,-98.788597 c -0.707107,-0.707107 -0.707107,-2.121323 0,-1.414213 l 24.922486,24.922486 c 0.707107,0.707107 2.12132,0.707107 1.414213,0 L 41.301508,-101.61702 c -0.707107,-0.70711 -0.707107,-2.12132 0,-1.41422 l 27.750913,27.750917 c 0.707107,0.707107 2.12132,0.707107 1.414213,0 L 41.301508,-104.44545 c -0.707107,-0.70711 -0.707107,-2.12132 0,-1.41421 l 30.579339,30.579337 c 0.707107,0.707107 2.12132,0.707107 1.414213,0 L 41.301507,-107.27388 c -0.707107,-0.7071 -0.707107,-2.12132 0,-1.41421 l 33.407766,33.407767 c 0.707107,0.707107 2.12132,0.707107 1.414213,0 L 41.301506,-110.1023 c -0.707107,-0.70711 -0.707107,-2.12132 0,-1.41422 l 36.236193,36.236197 c 0.707107,0.707107 2.12132,0.707107 1.414213,0 L 41.301506,-112.93073 c -0.707107,-0.70711 -0.707107,-2.12132 0,-1.41421 l 39.06462,39.064618 c 0.707107,0.707107 2.12132,0.707107 1.414213,0 L 41.301506,-115.75916 c -0.707107,-0.7071 -0.707107,-2.12132 0,-1.41421 l 41.893047,41.893049 c 0.707107,0.707107 2.12132,0.707107 1.414213,0 l -43.30726,-43.307259 c -0.707107,-0.70711 -0.707107,-2.12132 0,-1.41421 l 44.721473,44.721469 c 0.707107,0.707107 2.12132,0.707107 1.414213,0 L 41.301505,-121.41601 c -0.707107,-0.70711 -0.707107,-2.12132 0,-1.41421 l 47.5499,47.549899 c 0.707107,0.707107 2.12132,0.707107 1.414213,0 L 41.301504,-124.24444 c -0.707107,-0.7071 -0.707107,-2.12132 0,-1.41421 l 50.378327,50.378329 c 0.707107,0.707107 2.12132,0.707107 1.414213,0 l -51.79254,-51.792539 c -0.707107,-0.70711 -0.707107,-2.12132 0,-1.41421 l 53.206754,53.20675 c 0.707107,0.707107 2.12132,0.707107 1.414213,0 l -54.620967,-54.62097 c -0.707107,-0.7071 -0.707107,-2.12132 0,-1.41421 l 56.035181,56.035181 c 0.707107,0.707107 2.12132,0.707107 1.414213,0 L 41.663254,-132.36796 c -0.707107,-0.70711 0.707107,-0.70711 1.414213,0 l 57.087643,57.087641 c 0.70711,0.707107 2.12132,0.707107 1.41421,0 L 44.49168,-132.36796 c -0.707107,-0.70711 0.707107,-0.70711 1.414213,0 l 57.087647,57.087641 c 0.7071,0.707107 2.12132,0.707107 1.41421,0 L 47.320106,-132.36796 c -0.707107,-0.70711 0.707107,-0.70711 1.414213,0 l 57.087641,57.087641 c 0.70711,0.707107 2.12132,0.707107 1.41422,0 L 50.148532,-132.36796 c -0.707107,-0.70711 0.707107,-0.70711 1.414213,0 l 57.087645,57.087641 c 0.70711,0.707107 2.12132,0.707107 1.41421,0 L 52.976958,-132.36796 c -0.707107,-0.70711 0.707107,-0.70711 1.414213,0 l 57.087649,57.087641 c 0.7071,0.707107 2.12132,0.707107 1.41421,0 L 55.805384,-132.36796 c -0.707107,-0.70711 0.707107,-0.70711 1.414213,0 l 57.087643,57.087641 c 0.70711,0.707107 2.12132,0.707107 1.41421,0 L 58.63381,-132.36796 c -0.707107,-0.70711 0.707107,-0.70711 1.414213,0 l 57.087647,57.087641 c 0.7071,0.707107 2.12132,0.707107 1.41421,0 L 61.462236,-132.36796 c -0.707107,-0.70711 0.707107,-0.70711 1.414213,0 l 57.087641,57.087641 c 0.70711,0.707107 2.12132,0.707107 1.41422,0 L 64.290662,-132.36796 c -0.707107,-0.70711 0.707107,-0.70711 1.414213,0 l 57.087645,57.087641 c 0.70711,0.707107 2.12132,0.707107 1.41421,0 L 67.119088,-132.36796 c -0.707107,-0.70711 0.707107,-0.70711 1.414213,0 l 57.087649,57.087641 c 0.7071,0.707107 1.16173,-0.252475 0.45463,-0.959582 L 69.947514,-132.36796 c -0.707107,-0.70711 0.707107,-0.70711 1.414213,0 l 54.713853,54.713846 c 0.7071,0.707107 0.7071,-0.707107 0,-1.414213 L 72.775941,-132.36796 c -0.707107,-0.70711 0.707107,-0.70711 1.414213,0 l 51.885426,51.88542 c 0.7071,0.707107 0.7071,-0.707107 0,-1.414213 L 75.604367,-132.36796 c -0.707107,-0.70711 0.707107,-0.70711 1.414213,0 l 49.057,49.056993 c 0.7071,0.707107 0.7071,-0.707107 0,-1.414213 l -47.642787,-47.64278 c -0.707107,-0.70711 0.707107,-0.70711 1.414213,0 l 46.228564,46.228566 c 0.70711,0.707107 0.70711,-0.707107 0,-1.414213 L 81.261219,-132.36796 c -0.707107,-0.70711 0.707107,-0.70711 1.414213,0 l 43.400138,43.40014 c 0.70711,0.707107 0.70711,-0.707107 0,-1.414213 L 84.089646,-132.36796 c -0.707107,-0.70711 0.707107,-0.70711 1.414213,0 l 40.571711,40.571714 c 0.70711,0.707107 0.70711,-0.707107 0,-1.414213 L 86.918073,-132.36796 c -0.707107,-0.70711 0.707107,-0.70711 1.414213,0 l 37.743284,37.743288 c 0.70711,0.707107 0.70711,-0.707107 0,-1.414213 L 89.746499,-132.36796 c -0.707107,-0.70711 0.707107,-0.70711 1.414213,0 l 34.914858,34.914861 c 0.70711,0.707107 0.70711,-0.707107 0,-1.414213 L 92.574925,-132.36796 c -0.707107,-0.70711 0.707107,-0.70711 1.414213,0 l 32.086432,32.08643 c 0.70711,0.707111 0.70711,-0.7071 0,-1.41421 l -30.672219,-30.67222 c -0.707107,-0.70711 0.707107,-0.70711 1.414213,0 l 29.258006,29.25801 c 0.70711,0.7071 0.70711,-0.70711 0,-1.41422 l -27.843792,-27.84379 c -0.707107,-0.70711 0.707107,-0.70711 1.414213,0 l 26.429579,26.42958 c 0.70711,0.70711 0.70711,-0.70711 0,-1.41421 l -25.01536,-25.01537 c -0.70711,-0.70711 0.7071,-0.70711 1.41421,0 l 23.60115,23.60116 c 0.70711,0.7071 0.70711,-0.70711 0,-1.41422 l -22.18694,-22.18694 c -0.70711,-0.70711 0.70711,-0.70711 1.41421,0 l 20.77273,20.77273 c 0.70711,0.70711 0.70711,-0.70711 0,-1.41421 l -19.35851,-19.35852 c -0.70711,-0.70711 0.7071,-0.70711 1.41421,0 l 17.9443,17.9443 c 0.70711,0.70711 0.70711,-0.70711 0,-1.41421 l -16.53009,-16.53009 c -0.7071,-0.70711 0.70711,-0.70711 1.41422,0 l 15.11587,15.11588 c 0.70711,0.7071 0.70711,-0.70711 0,-1.41422 l -13.70166,-13.70166 c -0.70711,-0.7071 0.70711,-0.7071 1.41421,0 l 12.28745,12.28745 c 0.70711,0.70711 0.70711,-0.70711 0,-1.41421 l -10.87323,-10.87324 c -0.70711,-0.7071 0.7071,-0.7071 1.41421,0 l 9.45902,9.45902 c 0.70711,0.70711 0.70711,-0.7071 0,-1.41421 l -8.04481,-8.04481 c -0.7071,-0.7071 0.70711,-0.7071 1.41422,0 l 6.63059,6.6306 c 0.70711,0.7071 0.70711,-0.70711 0,-1.41422 l -5.21638,-5.21638 c -0.70711,-0.7071 0.70711,-0.7071 1.41421,0 l 3.80217,3.80217 c 0.70711,0.70711 0.70711,-0.70711 0,-1.41421 l -2.38795,-2.38796 c -0.70711,-0.7071 0.7071,-0.7071 1.41421,0 l 1.19398,1.19398 c 0.41345,0.41346 0.41345,-1.00076 0,-1.41421 l -0.3101,-0.3101 m -84.687222,-1e-5 -0.263652,0.26365 c -0.351537,0.35154 -0.351537,1.76575 0,1.41422 l 1.147536,-1.14754 c 0.707107,-0.70711 2.12132,-0.70711 1.414213,0 l -2.295072,2.29507 c -0.707107,0.70711 -0.707107,2.12132 0,1.41421 l 3.709285,-3.70928 c 0.707107,-0.70711 2.12132,-0.70711 1.414213,0 l -5.123498,5.1235 c -0.707107,0.7071 -0.707107,2.12132 0,1.41421 l 6.537712,-6.53771 c 0.707107,-0.70711 2.12132,-0.70711 1.414213,0 l -7.951925,7.95192 c -0.707107,0.70711 -0.707107,2.12132 0,1.41422 l 9.366139,-9.36614 c 0.707107,-0.70711 2.12132,-0.70711 1.414213,0 l -10.780352,10.78035 c -0.707107,0.70711 -0.707107,2.12132 0,1.41421 l 12.194565,-12.19456 c 0.707107,-0.70711 2.12132,-0.70711 1.414213,0 l -13.608779,13.60878 c -0.707107,0.7071 -0.707107,2.12132 0,1.41421 l 15.022992,-15.02299 c 0.707107,-0.70711 2.12132,-0.70711 1.414213,0 l -16.437206,16.4372 c -0.707107,0.70711 -0.707107,2.12132 0,1.41422 l 17.851419,-17.85142 c 0.707107,-0.70711 2.12132,-0.70711 1.414213,0 l -19.265632,19.26563 c -0.707107,0.70711 -0.707107,2.12132 0,1.41421 l 20.679846,-20.67984 c 0.707107,-0.70711 2.12132,-0.70711 1.414213,0 l -22.094059,22.09405 c -0.707107,0.70711 -0.707107,2.12132 0,1.41422 l 23.508273,-23.50827 c 0.707107,-0.70711 2.12132,-0.70711 1.414213,0 l -24.922486,24.92248 c -0.707107,0.70711 -0.707107,2.12132 0,1.41421 l 26.336699,-26.33669 c 0.707107,-0.70711 2.12132,-0.70711 1.414213,0 l -27.750913,27.75091 c -0.707107,0.7071 -0.707107,2.12132 0,1.41421 l 29.165126,-29.16512 c 0.707107,-0.70711 2.12132,-0.70711 1.414213,0 l -30.579339,30.57933 c -0.707107,0.70711 -0.707107,2.121324 0,1.41422 l 31.993553,-31.99356 c 0.707107,-0.7071 2.12132,-0.7071 1.414213,0 L 41.30151,-98.96021 c -0.707107,0.707107 -0.707107,2.12132 0,1.414213 l 34.82198,-34.821983 c 0.707107,-0.7071 2.12132,-0.7071 1.414213,0 L 41.30151,-96.131784 c -0.707107,0.707107 -0.707107,2.12132 0,1.414213 l 37.650406,-37.650409 c 0.707107,-0.7071 2.12132,-0.7071 1.414213,0 l -39.06462,39.064623 c -0.707107,0.707107 -0.707107,2.12132 0,1.414213 l 40.478833,-40.478836 c 0.707107,-0.7071 2.12132,-0.7071 1.414213,0 l -41.893047,41.89305 c -0.707107,0.707107 -0.707107,2.12132 0,1.414213 l 43.30726,-43.307263 c 0.707107,-0.7071 2.12132,-0.7071 1.414213,0 l -44.721473,44.721476 c -0.707107,0.707107 -0.707107,2.12132 0,1.414213 l 46.135687,-46.135689 c 0.707107,-0.7071 2.12132,-0.7071 1.414213,0 l -47.5499,47.549902 c -0.707107,0.707107 -0.707107,2.12132 0,1.414213 l 48.964114,-48.964115 c 0.707107,-0.70711 2.12132,-0.70711 1.414213,0 l -50.378327,50.378328 c -0.707107,0.707107 -0.707107,2.12132 0,1.414213 l 51.79254,-51.792541 c 0.707107,-0.70711 2.12132,-0.70711 1.414213,0 l -53.206754,53.206755 c -0.707107,0.707107 -0.707107,2.12132 0,1.414213 l 54.620967,-54.620968 c 0.707107,-0.70711 2.12132,-0.70711 1.414213,0 l -56.035181,56.035182 c -0.707107,0.707107 -0.345357,1.75957 0.36175,1.052463 L 98.7509,-132.36798 c 0.707107,-0.70711 2.12132,-0.70711 1.41421,0 l -57.087641,57.087645 c -0.707107,0.707107 0.707107,0.707107 1.414213,0 l 57.087648,-57.087645 c 0.7071,-0.70711 2.12132,-0.70711 1.41421,0 l -57.087645,57.087645 c -0.707107,0.707107 0.707107,0.707107 1.414213,0 l 57.087642,-57.087645 c 0.70711,-0.70711 2.12132,-0.70711 1.41422,0 l -57.087649,57.087645 c -0.707107,0.707107 0.707107,0.707107 1.414213,0 l 57.087646,-57.087645 c 0.70711,-0.70711 2.12132,-0.70711 1.41421,0 l -57.087643,57.087645 c -0.707107,0.707107 0.707107,0.707107 1.414213,0 l 57.08764,-57.087645 c 0.70711,-0.70711 2.12132,-0.70711 1.41422,0 l -57.087647,57.087645 c -0.707107,0.707107 0.707107,0.707107 1.414213,0 l 57.087644,-57.087645 c 0.70711,-0.70711 2.12132,-0.70711 1.41421,0 l -57.087641,57.087645 c -0.707107,0.707107 0.707107,0.707107 1.414213,0 l 57.087648,-57.087645 c 0.7071,-0.70711 2.12132,-0.70711 1.41421,0 l -57.087645,57.087645 c -0.707107,0.707107 0.707107,0.707107 1.414213,0 l 57.087642,-57.087645 c 0.70711,-0.70711 2.12132,-0.70711 1.41422,0 l -57.087649,57.087645 c -0.707107,0.707107 0.707107,0.707107 1.414213,0 l 57.087646,-57.087645 c 0.70711,-0.70711 2.12132,-0.70711 1.41421,0 l -57.087643,57.087645 c -0.707107,0.707107 0.707107,0.707107 1.414213,0 l 57.08764,-57.087645 c 0.70711,-0.70711 2.12132,-0.70711 1.41422,0 l -57.087647,57.087645 c -0.707107,0.707107 0.707107,0.707107 1.414213,0 L 126.07558,-131.4084 c 0.70711,-0.7071 0.70711,0.70711 0,1.41422 l -54.713851,54.713845 c -0.707107,0.707107 0.707107,0.707107 1.414213,0 l 53.299638,-53.299635 c 0.7071,-0.70711 0.7071,0.70711 0,1.41421 l -51.885425,51.885425 c -0.707107,0.707107 0.707107,0.707107 1.414213,0 l 50.471212,-50.471205 c 0.7071,-0.70711 0.7071,0.7071 0,1.41421 l -49.056998,49.056994 c -0.707107,0.707107 0.707107,0.707107 1.414213,0 l 47.642785,-47.642784 c 0.7071,-0.7071 0.7071,0.70711 0,1.41422 l -46.228571,46.228563 c -0.707107,0.707107 0.707107,0.707107 1.414213,0 l 44.814358,-44.814353 c 0.7071,-0.70711 0.7071,0.70711 0,1.41421 l -43.400145,43.400143 c -0.707107,0.707107 0.707107,0.707107 1.414213,0 l 41.985932,-41.985923 c 0.7071,-0.70711 0.7071,0.7071 0,1.41421 l -40.571719,40.571713 c -0.707107,0.707107 0.707107,0.707107 1.414213,0 l 39.157506,-39.157503 c 0.7071,-0.7071 0.7071,0.70711 0,1.41422 l -37.743293,37.743283 c -0.707107,0.707107 0.707107,0.707107 1.414213,0 l 36.32908,-36.329073 c 0.7071,-0.70711 0.7071,0.70711 0,1.41421 l -34.914866,34.914862 c -0.707107,0.707107 0.707107,0.707107 1.414213,0 l 33.500653,-33.500652 c 0.7071,-0.7071 0.7071,0.70711 0,1.41422 l -32.086439,32.086431 c -0.707107,0.707107 0.707107,0.707107 1.414213,0 l 30.672226,-30.672221 c 0.7071,-0.70711 0.7071,0.70711 0,1.41421 l -29.258013,29.258011 c -0.707107,0.707107 0.707107,0.707107 1.414213,0 l 27.84379,-27.843791 c 0.70711,-0.70711 0.70711,0.7071 0,1.41421 l -26.429577,26.429581 c -0.707107,0.707107 0.707107,0.707107 1.414217,0 l 25.01536,-25.015371 c 0.70711,-0.7071 0.70711,0.707111 0,1.414217 l -23.60115,23.601154 c -0.70711,0.707107 0.70711,0.707107 1.41421,0 l 22.18694,-22.186941 c 0.70711,-0.707107 0.70711,0.707107 0,1.414213 l -20.77272,20.772727 c -0.70711,0.707107 0.7071,0.707107 1.41421,0 l 19.35851,-19.358514 c 0.70711,-0.707107 0.70711,0.707107 0,1.414213 l -17.9443,17.9443 c -0.7071,0.707107 0.70711,0.707107 1.41422,0 l 16.53008,-16.530087 c 0.70711,-0.707107 0.70711,0.707107 0,1.414213 l -15.11587,15.115874 c -0.70711,0.707107 0.70711,0.707107 1.41421,0 l 13.70166,-13.70166 c 0.70711,-0.707107 0.70711,0.707107 0,1.414213 l -12.28744,12.287447 c -0.70711,0.707107 0.7071,0.707107 1.41421,0 l 10.87323,-10.873233 c 0.70711,-0.707107 0.70711,0.707107 0,1.414213 l -9.45902,9.45902 c -0.70711,0.707107 0.70711,0.707107 1.41421,0 l 8.04481,-8.044807 c 0.70711,-0.707107 0.70711,0.707107 0,1.414213 l -6.63059,6.630593 c -0.70711,0.707107 0.70711,0.707107 1.41421,0 l 5.21638,-5.21638 c 0.70711,-0.707107 0.70711,0.707107 0,1.414213 l -3.80216,3.802166 c -0.70711,0.707107 0.7071,0.707107 1.41421,0 l 2.38795,-2.387953 c 0.70711,-0.707107 0.70711,0.707107 0,1.414213 l -1.19398,1.193977 c -0.41345,0.413458 1.00076,0.413458 1.41422,0 l 0.31009,-0.310093"
           transform="scale(1,-1)"
           id="path2" />
      </g>
    </g>
  </g>
</svg>
