<svg id="svg" xmlns="http://www.w3.org/2000/svg" width="5000" height="5000">
    <path id="path4429" d="m 1756.5,1246 -8,0 0,-8 8,0 0,-16 -8,0 0,8 -8,0 0,-8 -8,0 0,16 8,0 0,8 -16,0 0,-8 -8,0 0,8 -16,0 0,-8 8,0 0,-8 -8,0 0,-8 16,0 0,8 8,0 0,-24 -8,0 0,8 -16,0 0,-8 8,0 0,-8 -8,0 0,-8 16,0 0,8 8,0 0,-8 16,0 0,8 -8,0 0,16 8,0 0,-8 8,0 0,8 8,0 0,-16 -8,0 0,-8 8,0 0,-16 -8,0 0,8 -16,0 0,-8 8,0 0,-8 -8,0 0,-8 16,0 0,8 8,0 0,-16 -8,0 0,-8 8,0 0,-16 -8,0 0,8 -8,0 0,-8 -8,0 0,16 8,0 0,8 -24,0 0,-8 8,0 0,-16 -8,0 0,8 -8,0 0,-8 -8,0 0,16 8,0 0,8 -8,0 0,16 8,0 0,-8 16,0 0,8 -8,0 0,8 8,0 0,8 -16,0 0,-8 -8,0 0,8 -8,0 0,-8 -8,0 0,8 -16,0 0,-8 8,0 0,-8 -8,0 0,-8 16,0 0,8 8,0 0,-16 -8,0 0,-8 8,0 0,-16 -8,0 0,8 -8,0 0,-8 -8,0 0,16 8,0 0,8 -24,0 0,-8 8,0 0,-16 -8,0 0,8 -8,0 0,-8 -8,0 0,16 8,0 0,8 -8,0 0,16 8,0 0,-8 16,0 0,8 -8,0 0,8 8,0 0,8 -16,0 0,-8 -8,0 0,16 8,0 0,8 -8,0 0,16 8,0 0,-8 8,0 0,8 8,0 0,-16 -8,0 0,-8 16,0 0,8 8,0 0,-8 16,0 0,8 -8,0 0,8 8,0 0,8 -16,0 0,-8 -8,0 0,24 8,0 0,-8 16,0 0,8 -8,0 0,8 8,0 0,8 -16,0 0,-8 -8,0 0,8 -16,0 0,-8 8,0 0,-16 -8,0 0,8 -8,0 0,-8 -8,0 0,16 8,0 0,8 -16,0 0,-8 -8,0 0,8 -16,0 0,-8 8,0 0,-8 -8,0 0,-8 16,0 0,8 8,0 0,-16 -8,0 0,-8 8,0 0,-16 -8,0 0,8 -8,0 0,-8 -8,0 0,16 8,0 0,8 -24,0 0,-8 8,0 0,-16 -8,0 0,8 -8,0 0,-8 -8,0 0,16 8,0 0,8 -8,0 0,16 8,0 0,-8 16,0 0,8 -8,0 0,8 8,0 0,8 -16,0 0,-8 -8,0 0,8 -16,0 0,-8 8,0 0,-16 -8,0 0,8 -8,0 0,-8 -8,0 0,16 8,0 0,8 -16,0 0,-8 -8,0 0,8 -16,0 0,-8 8,0 0,-8 -8,0 0,-8 16,0 0,8 8,0 0,-24 -8,0 0,8 -16,0 0,-8 8,0 0,-8 -8,0 0,-8 16,0 0,8 8,0 0,-8 16,0 0,8 -8,0 0,16 8,0 0,-8 8,0 0,8 8,0 0,-16 -8,0 0,-8 8,0 0,-8 -8,0 0,-8 8,0 0,-16 -8,0 0,8 -8,0 0,-8 -8,0 0,16 8,0 0,8 -16,0 0,-8 -8,0 0,8 -16,0 0,-8 8,0 0,-8 -8,0 0,-8 16,0 0,8 8,0 0,-24 -8,0 0,8 -16,0 0,-8 8,0 0,-8 -8,0 0,-8 16,0 0,8 8,0 0,-8 16,0 0,8 -8,0 0,16 8,0 0,-8 8,0 0,8 8,0 0,-16 -8,0 0,-8 16,0 0,8 8,0 0,-8 16,0 0,8 -8,0 0,8 8,0 0,8 -16,0 0,-8 -8,0 0,16 8,0 0,8 -8,0 0,16 8,0 0,-8 8,0 0,8 8,0 0,-16 -8,0 0,-8 24,0 0,8 -8,0 0,16 8,0 0,-8 8,0 0,8 8,0 0,-16 -8,0 0,-8 8,0 0,-16 -8,0 0,8 -16,0 0,-8 8,0 0,-8 -8,0 0,-8 16,0 0,8 8,0 0,-24 -8,0 0,8 -16,0 0,-8 8,0 0,-8 -8,0 0,-8 16,0 0,8 8,0 0,-16 -8,0 0,-8 8,0 0,-16 -8,0 0,8 -8,0 0,-8 -8,0 0,16 8,0 0,8 -24,0 0,-8 8,0 0,-16 -8,0 0,8 -8,0 0,-8 -8,0 0,16 8,0 0,8 -8,0 0,16 8,0 0,-8 16,0 0,8 -8,0 0,8 8,0 0,8 -16,0 0,-8 -8,0 0,8 -16,0 0,-8 8,0 0,-16 -8,0 0,8 -8,0 0,-8 -8,0 0,16 8,0 0,8 -16,0 0,-8 -8,0 0,8 -16,0 0,-8 8,0 0,-8 -8,0 0,-8 16,0 0,8 8,0 0,-24 -8,0 0,8 -16,0 0,-8 8,0 0,-8 -8,0 0,-8 16,0 0,8 8,0 0,-8 16,0 0,8 -8,0 0,16 8,0 0,-8 8,0 0,8 8,0 0,-16 -8,0 0,-8 8,0 0,-8 -8,0 0,-8 8,0 0,-16 -8,0 0,8 -8,0 0,-8 -8,0 0,16 8,0 0,8 -16,0 0,-8 -8,0 0,8 -16,0 0,-8 8,0 0,-8 -8,0 0,-8 16,0 0,8 8,0 0,-24 -8,0 0,8 -16,0 0,-8 8,0 0,-8 -8,0 0,-8 16,0 0,8 8,0 0,-8 16,0 0,8 -8,0 0,16 8,0 0,-8 8,0 0,8 8,0 0,-16 -8,0 0,-8 16,0 0,8 8,0 0,-8 16,0 0,8 -8,0 0,8 8,0 0,8 -16,0 0,-8 -8,0 0,16 8,0 0,8 -8,0 0,16 8,0 0,-8 8,0 0,8 8,0 0,-16 -8,0 0,-8 24,0 0,8 -8,0 0,16 8,0 0,-8 8,0 0,8 8,0 0,-16 -8,0 0,-8 8,0 0,-16 -8,0 0,8 -16,0 0,-8 8,0 0,-8 -8,0 0,-8 16,0 0,8 8,0 0,-8 16,0 0,8 -8,0 0,16 8,0 0,-8 8,0 0,8 8,0 0,-16 -8,0 0,-8 16,0 0,8 8,0 0,-8 16,0 0,8 -8,0 0,8 8,0 0,8 -16,0 0,-8 -8,0 0,24 8,0 0,-8 16,0 0,8 -8,0 0,8 8,0 0,8 -16,0 0,-8 -8,0 0,8 -16,0 0,-8 8,0 0,-16 -8,0 0,8 -8,0 0,-8 -8,0 0,16 8,0 0,8 -8,0 0,16 8,0 0,-8 16,0 0,8 -8,0 0,8 8,0 0,8 -16,0 0,-8 -8,0 0,16 8,0 0,8 -8,0 0,16 8,0 0,-8 8,0 0,8 8,0 0,-16 -8,0 0,-8 24,0 0,8 -8,0 0,16 8,0 0,-8 8,0 0,8 8,0 0,-16 -8,0 0,-8 8,0 0,-16 -8,0 0,8 -16,0 0,-8 8,0 0,-8 -8,0 0,-8 16,0 0,8 8,0 0,-8 8,0 0,8 8,0 0,-8 16,0 0,8 -8,0 0,8 8,0 0,8 -16,0 0,-8 -8,0 0,16 8,0 0,8 -8,0 0,16 8,0 0,-8 8,0 0,8 8,0 0,-16 -8,0 0,-8 24,0 0,8 -8,0 0,16 8,0 0,-8 8,0 0,8 8,0 0,-16 -8,0 0,-8 8,0 0,-16 -8,0 0,8 -16,0 0,-8 8,0 0,-8 -8,0 0,-8 16,0 0,8 8,0 0,-16 -8,0 0,-8 8,0 0,-16 -8,0 0,8 -8,0 0,-8 -8,0 0,16 8,0 0,8 -16,0 0,-8 -8,0 0,8 -16,0 0,-8 8,0 0,-8 -8,0 0,-8 16,0 0,8 8,0 0,-24 -8,0 0,8 -16,0 0,-8 8,0 0,-8 -8,0 0,-8 16,0 0,8 8,0 0,-8 16,0 0,8 -8,0 0,16 8,0 0,-8 8,0 0,8 8,0 0,-16 -8,0 0,-8 8,0 0,-16 -8,0 0,8 -16,0 0,-8 8,0 0,-8 -8,0 0,-8 16,0 0,8 8,0 0,-16 -8,0 0,-8 8,0 0,-16 -8,0 0,8 -8,0 0,-8 -8,0 0,16 8,0 0,8 -24,0 0,-8 8,0 0,-16 -8,0 0,8 -8,0 0,-8 -8,0 0,16 8,0 0,8 -8,0 0,16 8,0 0,-8 16,0 0,8 -8,0 0,8 8,0 0,8 -16,0 0,-8 -8,0 0,8 -16,0 0,-8 8,0 0,-16 -8,0 0,8 -8,0 0,-8 -8,0 0,16 8,0 0,8 -16,0 0,-8 -8,0 0,8 -16,0 0,-8 8,0 0,-8 -8,0 0,-8 16,0 0,8 8,0 0,-24 -8,0 0,8 -16,0 0,-8 8,0 0,-8 -8,0 0,-8 16,0 0,8 8,0 0,-8 16,0 0,8 -8,0 0,16 8,0 0,-8 8,0 0,8 8,0 0,-16 -8,0 0,-8 8,0 0,-8 -8,0 0,-8 8,0 0,-16 -8,0 0,8 -8,0 0,-8 -8,0 0,16 8,0 0,8 -16,0 0,-8 -8,0 0,8 -16,0 0,-8 8,0 0,-8 -8,0 0,-8 16,0 0,8 8,0 0,-24 -8,0 0,8 -16,0 0,-8 8,0 0,-8 -8,0 0,-8 16,0 0,8 8,0 0,-8 16,0 0,8 -8,0 0,16 8,0 0,-8 8,0 0,8 8,0 0,-16 -8,0 0,-8 16,0 0,8 8,0 0,-8 16,0 0,8 -8,0 0,8 8,0 0,8 -16,0 0,-8 -8,0 0,16 8,0 0,8 -8,0 0,16 8,0 0,-8 8,0 0,8 8,0 0,-16 -8,0 0,-8 24,0 0,8 -8,0 0,16 8,0 0,-8 8,0 0,8 8,0 0,-16 -8,0 0,-8 8,0 0,-16 -8,0 0,8 -16,0 0,-8 8,0 0,-8 -8,0 0,-8 16,0 0,8 8,0 0,-16 -8,0 0,-8 8,0 0,-16 -8,0 0,8 -8,0 0,-8 -8,0 0,16 8,0 0,8 -16,0 0,-8 -8,0 0,8 -16,0 0,-8 8,0 0,-8 -8,0 0,-8 16,0 0,8 8,0 0,-24 -8,0 0,8 -16,0 0,-8 8,0 0,-8 -8,0 0,-8 16,0 0,8 8,0 0,-8 16,0 0,8 -8,0 0,16 8,0 0,-8 8,0 0,8 8,0 0,-16 -8,0 0,-8 8,0 0,-16 -8,0 0,8 -16,0 0,-8 8,0 0,-8 -8,0 0,-8 16,0 0,8 8,0 0,-16 -8,0 0,-8 8,0 0,-16 -8,0 0,8 -8,0 0,-8 -8,0 0,16 8,0 0,8 -24,0 0,-8 8,0 0,-16 -8,0 0,8 -8,0 0,-8 -8,0 0,16 8,0 0,8 -8,0 0,16 8,0 0,-8 16,0 0,8 -8,0 0,8 8,0 0,8 -16,0 0,-8 -8,0 0,8 -8,0 0,-8 -8,0 0,8 -16,0 0,-8 8,0 0,-8 -8,0 0,-8 16,0 0,8 8,0 0,-16 -8,0 0,-8 8,0 0,-16 -8,0 0,8 -8,0 0,-8 -8,0 0,16 8,0 0,8 -24,0 0,-8 8,0 0,-16 -8,0 0,8 -8,0 0,-8 -8,0 0,16 8,0 0,8 -8,0 0,16 8,0 0,-8 16,0 0,8 -8,0 0,8 8,0 0,8 -16,0 0,-8 -8,0 0,16 8,0 0,8 -8,0 0,16 8,0 0,-8 8,0 0,8 8,0 0,-16 -8,0 0,-8 16,0 0,8 8,0 0,-8 16,0 0,8 -8,0 0,8 8,0 0,8 -16,0 0,-8 -8,0 0,24 8,0 0,-8 16,0 0,8 -8,0 0,8 8,0 0,8 -16,0 0,-8 -8,0 0,8 -16,0 0,-8 8,0 0,-16 -8,0 0,8 -8,0 0,-8 -8,0 0,16 8,0 0,8 -24,0 0,-8 8,0 0,-16 -8,0 0,8 -8,0 0,-8 -8,0 0,16 8,0 0,8 -16,0 0,-8 -8,0 0,8 -16,0 0,-8 8,0 0,-8 -8,0 0,-8 16,0 0,8 8,0 0,-24 -8,0 0,8 -16,0 0,-8 8,0 0,-8 -8,0 0,-8 16,0 0,8 8,0 0,-8 16,0 0,8 -8,0 0,16 8,0 0,-8 8,0 0,8 8,0 0,-16 -8,0 0,-8 8,0 0,-16 -8,0 0,8 -16,0 0,-8 8,0 0,-8 -8,0 0,-8 16,0 0,8 8,0 0,-16 -8,0 0,-8 8,0 0,-16 -8,0 0,8 -8,0 0,-8 -8,0 0,16 8,0 0,8 -24,0 0,-8 8,0 0,-16 -8,0 0,8 -8,0 0,-8 -8,0 0,16 8,0 0,8 -8,0 0,16 8,0 0,-8 16,0 0,8 -8,0 0,8 8,0 0,8 -16,0 0,-8 -8,0 0,8 -8,0 0,-8 -8,0 0,8 -16,0 0,-8 8,0 0,-8 -8,0 0,-8 16,0 0,8 8,0 0,-16 -8,0 0,-8 8,0 0,-16 -8,0 0,8 -8,0 0,-8 -8,0 0,16 8,0 0,8 -24,0 0,-8 8,0 0,-16 -8,0 0,8 -8,0 0,-8 -8,0 0,16 8,0 0,8 -8,0 0,16 8,0 0,-8 16,0 0,8 -8,0 0,8 8,0 0,8 -16,0 0,-8 -8,0 0,16 8,0 0,8 -8,0 0,16 8,0 0,-8 8,0 0,8 8,0 0,-16 -8,0 0,-8 16,0 0,8 8,0 0,-8 16,0 0,8 -8,0 0,8 8,0 0,8 -16,0 0,-8 -8,0 0,24 8,0 0,-8 16,0 0,8 -8,0 0,8 8,0 0,8 -16,0 0,-8 -8,0 0,8 -16,0 0,-8 8,0 0,-16 -8,0 0,8 -8,0 0,-8 -8,0 0,16 8,0 0,8 -8,0 0,16 8,0 0,-8 16,0 0,8 -8,0 0,8 8,0 0,8 -16,0 0,-8 -8,0 0,16 8,0 0,8 -8,0 0,16 8,0 0,-8 8,0 0,8 8,0 0,-16 -8,0 0,-8 24,0 0,8 -8,0 0,16 8,0 0,-8 8,0 0,8 8,0 0,-16 -8,0 0,-8 8,0 0,-16 -8,0 0,8 -16,0 0,-8 8,0 0,-8 -8,0 0,-8 16,0 0,8 8,0 0,-8 16,0 0,8 -8,0 0,16 8,0 0,-8 8,0 0,8 8,0 0,-16 -8,0 0,-8 16,0 0,8 8,0 0,-8 16,0 0,8 -8,0 0,8 8,0 0,8 -16,0 0,-8 -8,0 0,24 8,0 0,-8 16,0 0,8 -8,0 0,8 8,0 0,8 -16,0 0,-8 -8,0 0,8 -16,0 0,-8 8,0 0,-16 -8,0 0,8 -8,0 0,-8 -8,0 0,16 8,0 0,8 -8,0 0,8 8,0 0,8 -8,0 0,16 8,0 0,-8 8,0 0,8 8,0 0,-16 -8,0 0,-8 16,0 0,8 8,0 0,-8 16,0 0,8 -8,0 0,8 8,0 0,8 -16,0 0,-8 -8,0 0,24 8,0 0,-8 16,0 0,8 -8,0 0,8 8,0 0,8 -16,0 0,-8 -8,0 0,8 -16,0 0,-8 8,0 0,-16 -8,0 0,8 -8,0 0,-8 -8,0 0,16 8,0 0,8 -16,0 0,-8 -8,0 0,8 -16,0 0,-8 8,0 0,-8 -8,0 0,-8 16,0 0,8 8,0 0,-16 -8,0 0,-8 8,0 0,-16 -8,0 0,8 -8,0 0,-8 -8,0 0,16 8,0 0,8 -24,0 0,-8 8,0 0,-16 -8,0 0,8 -8,0 0,-8 -8,0 0,16 8,0 0,8 -8,0 0,16 8,0 0,-8 16,0 0,8 -8,0 0,8 8,0 0,8 -16,0 0,-8 -8,0 0,8 -8,0 0,-8 -8,0 0,8 -16,0 0,-8 8,0 0,-8 -8,0 0,-8 16,0 0,8 8,0 0,-16 -8,0 0,-8 8,0 0,-16 -8,0 0,8 -8,0 0,-8 -8,0 0,16 8,0 0,8 -24,0 0,-8 8,0 0,-16 -8,0 0,8 -8,0 0,-8 -8,0 0,16 8,0 0,8 -8,0 0,16 8,0 0,-8 16,0 0,8 -8,0 0,8 8,0 0,8 -16,0 0,-8 -8,0 0,8 -16,0 0,-8 8,0 0,-16 -8,0 0,8 -8,0 0,-8 -8,0 0,16 8,0 0,8 -16,0 0,-8 -8,0 0,8 -16,0 0,-8 8,0 0,-8 -8,0 0,-8 16,0 0,8 8,0 0,-24 -8,0 0,8 -16,0 0,-8 8,0 0,-8 -8,0 0,-8 16,0 0,8 8,0 0,-8 16,0 0,8 -8,0 0,16 8,0 0,-8 8,0 0,8 8,0 0,-16 -8,0 0,-8 8,0 0,-8 -8,0 0,-8 8,0 0,-16 -8,0 0,8 -8,0 0,-8 -8,0 0,16 8,0 0,8 -16,0 0,-8 -8,0 0,8 -16,0 0,-8 8,0 0,-8 -8,0 0,-8 16,0 0,8 8,0 0,-24 -8,0 0,8 -16,0 0,-8 8,0 0,-8 -8,0 0,-8 16,0 0,8 8,0 0,-8 16,0 0,8 -8,0 0,16 8,0 0,-8 8,0 0,8 8,0 0,-16 -8,0 0,-8 16,0 0,8 8,0 0,-8 16,0 0,8 -8,0 0,8 8,0 0,8 -16,0 0,-8 -8,0 0,16 8,0 0,8 -8,0 0,16 8,0 0,-8 8,0 0,8 8,0 0,-16 -8,0 0,-8 24,0 0,8 -8,0 0,16 8,0 0,-8 8,0 0,8 8,0 0,-16 -8,0 0,-8 8,0 0,-16 -8,0 0,8 -16,0 0,-8 8,0 0,-8 -8,0 0,-8 16,0 0,8 8,0 0,-16 -8,0 0,-8 8,0 0,-16 -8,0 0,8 -8,0 0,-8 -8,0 0,16 8,0 0,8 -16,0 0,-8 -8,0 0,8 -16,0 0,-8 8,0 0,-8 -8,0 0,-8 16,0 0,8 8,0 0,-24 -8,0 0,8 -16,0 0,-8 8,0 0,-8 -8,0 0,-8 16,0 0,8 8,0 0,-8 16,0 0,8 -8,0 0,16 8,0 0,-8 8,0 0,8 8,0 0,-16 -8,0 0,-8 8,0 0,-16 -8,0 0,8 -16,0 0,-8 8,0 0,-8 -8,0 0,-8 16,0 0,8 8,0 0,-16 -8,0 0,-8 8,0 0,-16 -8,0 0,8 -8,0 0,-8 -8,0 0,16 8,0 0,8 -24,0 0,-8 8,0 0,-16 -8,0 0,8 -8,0 0,-8 -8,0 0,16 8,0 0,8 -8,0 0,16 8,0 0,-8 16,0 0,8 -8,0 0,8 8,0 0,8 -16,0 0,-8 -8,0 0,8 -8,0 0,-8 -8,0 0,8 -16,0 0,-8 8,0 0,-8 -8,0 0,-8 16,0 0,8 8,0 0,-16 -8,0 0,-8 8,0 0,-16 -8,0 0,8 -8,0 0,-8 -8,0 0,16 8,0 0,8 -24,0 0,-8 8,0 0,-16 -8,0 0,8 -8,0 0,-8 -8,0 0,16 8,0 0,8 -8,0 0,16 8,0 0,-8 16,0 0,8 -8,0 0,8 8,0 0,8 -16,0 0,-8 -8,0 0,16 8,0 0,8 -8,0 0,16 8,0 0,-8 8,0 0,8 8,0 0,-16 -8,0 0,-8 16,0 0,8 8,0 0,-8 16,0 0,8 -8,0 0,8 8,0 0,8 -16,0 0,-8 -8,0 0,24 8,0 0,-8 16,0 0,8 -8,0 0,8 8,0 0,8 -16,0 0,-8 -8,0 0,8 -16,0 0,-8 8,0 0,-16 -8,0 0,8 -8,0 0,-8 -8,0 0,16 8,0 0,8 -24,0 0,-8 8,0 0,-16 -8,0 0,8 -8,0 0,-8 -8,0 0,16 8,0 0,8 -16,0 0,-8 -8,0 0,8 -16,0 0,-8 8,0 0,-8 -8,0 0,-8 16,0 0,8 8,0 0,-24 -8,0 0,8 -16,0 0,-8 8,0 0,-8 -8,0 0,-8 16,0 0,8 8,0 0,-8 16,0 0,8 -8,0 0,16 8,0 0,-8 8,0 0,8 8,0 0,-16 -8,0 0,-8 8,0 0,-16 -8,0 0,8 -16,0 0,-8 8,0 0,-8 -8,0 0,-8 16,0 0,8 8,0 0,-16 -8,0 0,-8 8,0 0,-16 -8,0 0,8 -8,0 0,-8 -8,0 0,16 8,0 0,8 -24,0 0,-8 8,0 0,-16 -8,0 0,8 -8,0 0,-8 -8,0 0,16 8,0 0,8 -8,0 0,16 8,0 0,-8 16,0 0,8 -8,0 0,8 8,0 0,8 -16,0 0,-8 -8,0 0,8 -8,0 0,-8 -8,0 0,8 -16,0 0,-8 8,0 0,-8 -8,0 0,-8 16,0 0,8 8,0 0,-16 -8,0 0,-8 8,0 0,-16 -8,0 0,8 -8,0 0,-8 -8,0 0,16 8,0 0,8 -24,0 0,-8 8,0 0,-16 -8,0 0,8 -8,0 0,-8 -8,0 0,16 8,0 0,8 -8,0 0,16 8,0 0,-8 16,0 0,8 -8,0 0,8 8,0 0,8 -16,0 0,-8 -8,0 0,16 8,0 0,8 -8,0 0,16 8,0 0,-8 8,0 0,8 8,0 0,-16 -8,0 0,-8 16,0 0,8 8,0 0,-8 16,0 0,8 -8,0 0,8 8,0 0,8 -16,0 0,-8 -8,0 0,24 8,0 0,-8 16,0 0,8 -8,0 0,8 8,0 0,8 -16,0 0,-8 -8,0 0,8 -16,0 0,-8 8,0 0,-16 -8,0 0,8 -8,0 0,-8 -8,0 0,16 8,0 0,8 -8,0 0,16 8,0 0,-8 16,0 0,8 -8,0 0,8 8,0 0,8 -16,0 0,-8 -8,0 0,16 8,0 0,8 -8,0 0,16 8,0 0,-8 8,0 0,8 8,0 0,-16 -8,0 0,-8 24,0 0,8 -8,0 0,16 8,0 0,-8 8,0 0,8 8,0 0,-16 -8,0 0,-8 8,0 0,-16 -8,0 0,8 -16,0 0,-8 8,0 0,-8 -8,0 0,-8 16,0 0,8 8,0 0,-8 16,0 0,8 -8,0 0,16 8,0 0,-8 8,0 0,8 8,0 0,-16 -8,0 0,-8 16,0 0,8 8,0 0,-8 16,0 0,8 -8,0 0,8 8,0 0,8 -16,0 0,-8 -8,0 0,24 8,0 0,-8 16,0 0,8 -8,0 0,8 8,0 0,8 -16,0 0,-8 -8,0 0,8 -16,0 0,-8 8,0 0,-16 -8,0 0,8 -8,0 0,-8 -8,0 0,16 8,0 0,8 -8,0 0,8 8,0 0,8 -8,0 0,16 8,0 0,-8 8,0 0,8 8,0 0,-16 -8,0 0,-8 16,0 0,8 8,0 0,-8 16,0 0,8 -8,0 0,8 8,0 0,8 -16,0 0,-8 -8,0 0,24 8,0 0,-8 16,0 0,8 -8,0 0,8 8,0 0,8 -16,0 0,-8 -8,0 0,8 -16,0 0,-8 8,0 0,-16 -8,0 0,8 -8,0 0,-8 -8,0 0,16 8,0 0,8 -16,0 0,-8 -8,0 0,8 -16,0 0,-8 8,0 0,-8 -8,0 0,-8 16,0 0,8 8,0 0,-16 -8,0 0,-8 8,0 0,-16 -8,0 0,8 -8,0 0,-8 -8,0 0,16 8,0 0,8 -24,0 0,-8 8,0 0,-16 -8,0 0,8 -8,0 0,-8 -8,0 0,16 8,0 0,8 -8,0 0,16 8,0 0,-8 16,0 0,8 -8,0 0,8 8,0 0,8 -16,0 0,-8 -8,0 0,16 8,0 0,8 -8,0 0,16 8,0 0,-8 8,0 0,8 8,0 0,-16 -8,0 0,-8 16,0 0,8 8,0 0,-8 16,0 0,8 -8,0 0,8 8,0 0,8 -16,0 0,-8 -8,0 0,24 8,0 0,-8 16,0 0,8 -8,0 0,8 8,0 0,8 -16,0 0,-8 -8,0 0,8 -16,0 0,-8 8,0 0,-16 -8,0 0,8 -8,0 0,-8 -8,0 0,16 8,0 0,8 -8,0 0,16 8,0 0,-8 16,0 0,8 -8,0 0,8 8,0 0,8 -16,0 0,-8 -8,0 0,16 8,0 0,8 -8,0 0,16 8,0 0,-8 8,0 0,8 8,0 0,-16 -8,0 0,-8 24,0 0,8 -8,0 0,16 8,0 0,-8 8,0 0,8 8,0 0,-16 -8,0 0,-8 8,0 0,-16 -8,0 0,8 -16,0 0,-8 8,0 0,-8 -8,0 0,-8 16,0 0,8 8,0 0,-8 8,0 0,8 8,0 0,-8 16,0 0,8 -8,0 0,8 8,0 0,8 -16,0 0,-8 -8,0 0,16 8,0 0,8 -8,0 0,16 8,0 0,-8 8,0 0,8 8,0 0,-16 -8,0 0,-8 24,0 0,8 -8,0 0,16 8,0 0,-8 8,0 0,8 8,0 0,-16 -8,0 0,-8 8,0 0,-16 -8,0 0,8 -16,0 0,-8 8,0 0,-8 -8,0 0,-8 16,0 0,8 8,0 0,-16 -8,0 0,-8 8,0 0,-16 -8,0 0,8 -8,0 0,-8 -8,0 0,16 8,0 0,8 -16,0 0,-8 -8,0 0,8 -16,0 0,-8 8,0 0,-8 -8,0 0,-8 16,0 0,8 8,0 0,-24 -8,0 0,8 -16,0 0,-8 8,0 0,-8 -8,0 0,-8 16,0 0,8 8,0 0,-8 16,0 0,8 -8,0 0,16 8,0 0,-8 8,0 0,8 8,0 0,-16 -8,0 0,-8 16,0 0,8 8,0 0,-8 16,0 0,8 -8,0 0,8 8,0 0,8 -16,0 0,-8 -8,0 0,16 8,0 0,8 -8,0 0,16 8,0 0,-8 8,0 0,8 8,0 0,-16 -8,0 0,-8 24,0 0,8 -8,0 0,16 8,0 0,-8 8,0 0,8 8,0 0,-16 -8,0 0,-8 8,0 0,-16 -8,0 0,8 -16,0 0,-8 8,0 0,-8 -8,0 0,-8 16,0 0,8 8,0 0,-8 16,0 0,8 -8,0 0,16 8,0 0,-8 8,0 0,8 8,0 0,-16 -8,0 0,-8 16,0 0,8 8,0 0,-8 16,0 0,8 -8,0 0,8 8,0 0,8 -16,0 0,-8 -8,0 0,24 8,0 0,-8 16,0 0,8 -8,0 0,8 8,0 0,8 -16,0 0,-8 -8,0 0,8 -16,0 0,-8 8,0 0,-16 -8,0 0,8 -8,0 0,-8 -8,0 0,16 8,0 0,8 -8,0 0,8 8,0 0,8 -8,0 0,16 8,0 0,-8 8,0 0,8 8,0 0,-16 -8,0 0,-8 16,0 0,8 8,0 0,-8 16,0 0,8 -8,0 0,8 8,0 0,8 -16,0 0,-8 -8,0 0,24 8,0 0,-8 16,0 0,8 -8,0 0,8 8,0 0,8 -16,0 0,-8 -8,0 0,8 -16,0 0,-8 8,0 0,-16 -8,0 0,8 -8,0 0,-8 -8,0 0,16 8,0 0,8 -16,0 0,-8 -8,0 0,8 -16,0 0,-8 8,0 0,-8 -8,0 0,-8 16,0 0,8 8,0 0,-16 -8,0 0,-8 8,0 0,-16 -8,0 0,8 -8,0 0,-8 -8,0 0,16 8,0 0,8 -24,0 0,-8 8,0 0,-16 -8,0 0,8 -8,0 0,-8 -8,0 0,16 8,0 0,8 -8,0 0,16 8,0 0,-8 16,0 0,8 -8,0 0,8 8,0 0,8 -16,0 0,-8 -8,0 0,24 8,0 0,-8 16,0 0,8 -8,0 0,8 8,0 0,8 -16,0 0,-8 -8,0 0,16 8,0 0,8 -8,0 0,16 8,0 0,-8 8,0 0,8 8,0 0,-16 -8,0 0,-8 24,0 0,8 -8,0 0,16 8,0 0,-8 8,0 0,8 8,0 0,-16 -8,0 0,-8 8,0 0,-16 -8,0 0,8 -16,0 0,-8 8,0 0,-8 -8,0 0,-8 16,0 0,8 8,0 0,-8 16,0 0,8 -8,0 0,16 8,0 0,-8 8,0 0,8 8,0 0,-16 -8,0 0,-8 16,0 0,8 8,0 0,-8 16,0 0,8 -8,0 0,8 8,0 0,8 -16,0 0,-8 -8,0 0,24 8,0 0,-8 16,0 0,8 -8,0 0,8 8,0 0,8 -16,0 0,-8 -8,0 0,8 -16,0 0,-8 8,0 0,-16 -8,0 0,8 -8,0 0,-8 -8,0 0,16 8,0 0,8 -8,0 0,8 8,0 0,8 -8,0 0,16 8,0 0,-8 8,0 0,8 8,0 0,-16 -8,0 0,-8 16,0 0,8 8,0 0,-8 16,0 0,8 -8,0 0,8 8,0 0,8 -16,0 0,-8 -8,0 0,24 8,0 0,-8 16,0 0,8 -8,0 0,8 8,0 0,8 -16,0 0,-8 -8,0 0,8 -16,0 0,-8 8,0 0,-16 -8,0 0,8 -8,0 0,-8 -8,0 0,16 8,0 0,8 -16,0 0,-8 -8,0 0,8 -16,0 0,-8 8,0 0,-8 -8,0 0,-8 16,0 0,8 8,0 0,-16 -8,0 0,-8 8,0 0,-16 -8,0 0,8 -8,0 0,-8 -8,0 0,16 8,0 0,8 -24,0 0,-8 8,0 0,-16 -8,0 0,8 -8,0 0,-8 -8,0 0,16 8,0 0,8 -8,0 0,16 8,0 0,-8 16,0 0,8 -8,0 0,8 8,0 0,8 -16,0 0,-8 -8,0 0,8 -16,0 0,-8 8,0 0,-16 -8,0 0,8 -8,0 0,-8 -8,0 0,16 8,0 0,8 -16,0 0,-8 -8,0 0,8 -16,0 0,-8 8,0 0,-8 -8,0 0,-8 16,0 0,8 8,0 0,-24 -8,0 0,8 -16,0 0,-8 8,0 0,-8 -8,0 0,-8 16,0 0,8 8,0 0,-8 16,0 0,8 -8,0 0,16 8,0 0,-8 8,0 0,8 8,0 0,-16 -8,0 0,-8 8,0 0,-16 -8,0 0,8 -16,0 0,-8 8,0 0,-8 -8,0 0,-8 16,0 0,8 8,0 0,-16 -8,0 0,-8 8,0 0,-16 -8,0 0,8 -8,0 0,-8 -8,0 0,16 8,0 0,8 -24,0 0,-8 8,0 0,-16 -8,0 0,8 -8,0 0,-8 -8,0 0,16 8,0 0,8 -8,0 0,16 8,0 0,-8 16,0 0,8 -8,0 0,8 8,0 0,8 -16,0 0,-8 -8,0 0,8 -8,0 0,-8 -8,0 0,8 -16,0 0,-8 8,0 0,-8 -8,0 0,-8 16,0 0,8 8,0 0,-16 -8,0 0,-8 8,0 0,-16 -8,0 0,8 -8,0 0,-8 -8,0 0,16 8,0 0,8 -24,0 0,-8 8,0 0,-16 -8,0 0,8 -8,0 0,-8 -8,0 0,16 8,0 0,8 -8,0 0,16 8,0 0,-8 16,0 0,8 -8,0 0,8 8,0 0,8 -16,0 0,-8 -8,0 0,16 8,0 0,8 -8,0 0,16 8,0 0,-8 8,0 0,8 8,0 0,-16 -8,0 0,-8 16,0 0,8 8,0 0,-8 16,0 0,8 -8,0 0,8 8,0 0,8 -16,0 0,-8 -8,0 0,24 8,0 0,-8 16,0 0,8 -8,0 0,8 8,0 0,8 -16,0 0,-8 -8,0 0,8 -16,0 0,-8 8,0 0,-16 -8,0 0,8 -8,0 0,-8 -8,0 0,16 8,0 0,8 -8,0" stroke="black" fill="none"/>
</svg>
