<svg style="border: 1px solid red;" id="svg" xmlns="http://www.w3.org/2000/svg" width="2000" height="2000" viewBox="-400 -400 2000 2000"><rect y="0" width="0" height="0" transform="
          rotate(0)
          translate(200 200)" fill="transparent" stroke="orange" x="0"></rect><rect y="-5" width="20" height="20" transform="
          rotate(2)
          translate(190 190)" fill="transparent" stroke="orange" x="5"></rect><rect y="-10" width="40" height="40" transform="
          rotate(4)
          translate(180 180)" fill="transparent" stroke="orange" x="10"></rect><rect y="-15" width="60" height="60" transform="
          rotate(6)
          translate(170 170)" fill="transparent" stroke="orange" x="15"></rect><rect y="-20" width="80" height="80" transform="
          rotate(8)
          translate(160 160)" fill="transparent" stroke="orange" x="20"></rect><rect y="-25" width="100" height="100" transform="
          rotate(10)
          translate(150 150)" fill="transparent" stroke="orange" x="25"></rect><rect y="-30" width="120" height="120" transform="
          rotate(12)
          translate(140 140)" fill="transparent" stroke="orange" x="30"></rect><rect y="-35" width="140" height="140" transform="
          rotate(14)
          translate(130 130)" fill="transparent" stroke="orange" x="35"></rect><rect y="-40" width="160" height="160" transform="
          rotate(16)
          translate(120 120)" fill="transparent" stroke="orange" x="40"></rect><rect y="-45" width="180" height="180" transform="
          rotate(18)
          translate(110 110)" fill="transparent" stroke="orange" x="45"></rect><rect y="-50" width="200" height="200" transform="
          rotate(20)
          translate(100 100)" fill="transparent" stroke="orange" x="50"></rect><rect y="-55" x="55" width="220" height="220" transform="
          rotate(22)
          translate(90 90)" fill="transparent" stroke="orange"></rect><rect y="-60" x="60" width="240" height="240" transform="
          rotate(24)
          translate(80 80)" fill="transparent" stroke="orange"></rect><rect y="-65" x="65" width="260" height="260" transform="
          rotate(26)
          translate(70 70)" fill="transparent" stroke="orange"></rect><rect y="-70" x="70" width="280" height="280" transform="
          rotate(28)
          translate(60 60)" fill="transparent" stroke="orange"></rect><rect y="-75" x="75" width="300" height="300" transform="
          rotate(30)
          translate(50 50)" fill="transparent" stroke="orange"></rect><rect y="-80" x="80" width="320" height="320" transform="
          rotate(32)
          translate(40 40)" fill="transparent" stroke="orange"></rect><rect y="-85" x="85" width="340" height="340" transform="
          rotate(34)
          translate(30 30)" fill="transparent" stroke="orange"></rect><rect y="-90" x="90" width="360" height="360" transform="
          rotate(36)
          translate(20 20)" fill="transparent" stroke="orange"></rect><rect y="-95" x="95" width="380" height="380" transform="
          rotate(38)
          translate(10 10)" fill="transparent" stroke="orange"></rect><rect y="-100" x="100" width="400" height="400" transform="
          rotate(40)
          translate(0 0)" fill="transparent" stroke="orange"></rect></svg>
