<svg id="svg" xmlns="http://www.w3.org/2000/svg" width="5000" height="5000"><path d="M295,0L295,0" stroke="black" transform="translate(295 295)" fill="none"></path>
    <path d="M295,0L295,0" stroke="black" transform="translate(295 295)" fill="none"></path>
    <path d="M295,0L-295,0L295,0" stroke="black" transform="translate(295 295)" fill="none"></path>
    <path d="M295,0L-147.5,255.477L-147.5,-255.477L295,0" stroke="black" transform="translate(295 295)" fill="none"></path>
    <path d="M295,0L0,295L-295,0L0,-295L295,0" stroke="black" transform="translate(295 295)" fill="none"></path>
    <path d="M295,0L91.16,280.562L-238.66,173.397L-238.66,-173.397L91.16,-280.562L295,0" stroke="black" transform="translate(295 295)" fill="none"></path>
    <path d="M295,0L147.5,255.477L-147.5,255.477L-295,0L-147.5,-255.477L147.5,-255.477L295,0L295,0" stroke="black" transform="translate(295 295)" fill="none"></path>
    <path d="M295,0L183.929,230.64L-65.644,287.604L-265.786,127.996L-265.786,-127.996L-65.644,-287.604L183.929,-230.64L295,0" stroke="black" transform="translate(295 295)" fill="none"></path>
    <path d="M295,0L208.597,208.597L0,295L-208.597,208.597L-295,0L-208.597,-208.597L0,-295L208.597,-208.597L295,0" stroke="black" transform="translate(295 295)" fill="none"></path>
    <path d="M295,0L225.983,189.622L51.226,290.518L-147.5,255.477L-277.209,100.896L-277.209,-100.896L-147.5,-255.477L51.226,-290.518L225.983,-189.622L295,0" stroke="black" transform="translate(295 295)" fill="none"></path>
    <path d="M295,0L238.66,173.397L91.16,280.562L-91.16,280.562L-238.66,173.397L-295,0L-238.66,-173.397L-91.16,-280.562L91.16,-280.562L238.66,-173.397L295,0" stroke="black" transform="translate(295 295)" fill="none"></path>
    <path d="M295,0L248.17,159.489L122.547,268.341L-41.983,291.997L-193.184,222.946L-283.05,83.111L-283.05,-83.111L-193.184,-222.946L-41.983,-291.997L122.547,-268.341L248.17,-159.489L295,0L295,0" stroke="black" transform="translate(295 295)" fill="none"></path>
    <path d="M295,0L255.477,147.5L147.5,255.477L0,295L-147.5,255.477L-255.477,147.5L-295,0L-255.477,-147.5L-147.5,-255.477L0,-295L147.5,-255.477L255.477,-147.5L295,0" stroke="black" transform="translate(295 295)" fill="none"></path>
    <path d="M295,0L261.21,137.093L167.579,242.78L35.558,292.849L-104.608,275.83L-220.811,195.621L-286.428,70.598L-286.428,-70.598L-220.811,-195.621L-104.608,-275.83L35.558,-292.849L167.579,-242.78L261.21,-137.093L295,0L295,0" stroke="black" transform="translate(295 295)" fill="none"></path>
    <path d="M295,0L265.786,127.996L183.929,230.64L65.644,287.604L-65.644,287.604L-183.929,230.64L-265.786,127.996L-295,0L-265.786,-127.996L-183.929,-230.64L-65.644,-287.604L65.644,-287.604L183.929,-230.64L265.786,-127.996L295,0" stroke="black" transform="translate(295 295)" fill="none"></path>
    <path d="M295,0L269.496,119.987L197.394,219.228L91.16,280.562L-30.836,293.384L-147.5,255.477L-238.66,173.397L-288.554,61.334L-288.554,-61.334L-238.66,-173.397L-147.5,-255.477L-30.836,-293.384L91.16,-280.562L197.394,-219.228L269.496,-119.987L295,0L295,0" stroke="black" transform="translate(295 295)" fill="none"></path>
    <path d="M295,0L272.544,112.892L208.597,208.597L112.892,272.544L0,295L-112.892,272.544L-208.597,208.597L-272.544,112.892L-295,0L-272.544,-112.892L-208.597,-208.597L-112.892,-272.544L0,-295L112.892,-272.544L208.597,-208.597L272.544,-112.892L295,0" stroke="black" transform="translate(295 295)" fill="none"></path></svg>
