<svg id="svg" xmlns="http://www.w3.org/2000/svg" width="5000" height="5000">
    <path xmlns="http://www.w3.org/2000/svg" d="m455.28 512.03h5l-5.15-8.57-6.1 11.48 15.97-0.84-10.62-15.75-9.3 19.94 24.87-2.62-16.86-22.36-11.61 28.74 33.58-5.31-23.78-28.35-13.02 37.82 42.06-8.94-31.37-33.64-13.51 47.1 50.23-13.46-39.57-38.2-13.04 56.51 58.01-18.85-48.3-41.99-11.63 65.98 65.35-25.08-57.53-44.94-9.26 75.43 72.17-32.13-67.17-47.04-5.93 84.8 78.41-39.95-77.17-48.23-1.64 93.99 84-48.5-87.46-48.48 3.59 102.93 88.9-57.73-97.97-47.78 9.76 111.57 93.04-67.59-108.62-46.11 16.84 119.83 96.37-78.04-119.34-43.44 24.8 127.61 98.84-88.99-130.06-39.76 33.63 134.87 100.41-100.41-140.69-35.08 43.27 141.53 101.04-112.21-151.17-29.39 53.69 147.54 100.69-124.35-161.41-22.68 64.86 152.8 99.34-136.72-171.35-14.99 76.72 157.29 96.94-149.29-180.89-6.31 89.21 160.93 93.5-161.95-189.97 3.31 102.27 163.68 88.98-174.64-198.51 13.88 115.86 165.47 83.38-187.28-206.45 25.35 129.91 166.27 76.69-199.78-213.71 37.68 144.34 166.03 68.91-212.08-220.21 50.84 159.08 164.73 60.04-224.1-225.89 64.78 174.06 162.31 50.1-235.73-230.7 79.44 189.21 158.77 39.11-246.93-234.58 94.78 204.45 154.06 27.08-257.58-237.46 110.73 219.7 148.19 14.02-267.64-239.27 127.23 234.86 141.12v-277l-240.01 144.21 249.88 132.86-14.97-285.61-239.59 161.61 264.64 123.4-30.84-293.38-237.99 179.34 279.08 112.76-47.55-300.26-235.18 197.34 293.11 100.92-65.08-306.16-231.1 215.51 306.64 87.93-83.34-311.03-225.76 233.79 319.59 73.78-102.29-314.8-219.12 252.08 331.88 58.52-121.84-317.42-211.18 270.29 343.42 42.16-141.95-318.82-201.9 288.34 354.14 24.76-162.53-318.98-191.3 306.15 363.95 6.35-183.5-317.83-179.38 323.61 372.77-13.02-204.79-315.34-166.14 340.64 380.55-33.29-226.3-311.47-151.6 357.15 387.19-54.41-247.95-306.2-135.78 373.06 392.65-76.33-269.66-299.48-118.7 388.26 396.85-98.95-291.33-291.33-100.4 402.68 399.74-122.22-312.87-281.7-80.9 416.21 401.25-146.04-334.17-270.61-60.27 428.79 401.34-170.36-355.15-258.04-38.53 440.32 399.97-195.08-375.73-244-15.74 450.73 397.08-220.1-395.77-228.5 8.02 459.93 392.65-245.36-415.21-211.56 32.72 467.86 386.64-270.73-433.94-193.2 58.26 474.44 379.03-296.13-451.85-173.45 84.56 479.6 369.81-321.47-468.87-152.35 111.58 483.29 358.95-346.63-484.9-129.93 139.2 485.44 346.45-371.53-499.83-106.24 167.34 485.99 332.32-396.04-513.6-81.35 195.92 484.92 316.56-420.08-526.1-55.3 224.83 482.16 299.17-443.54-537.26-28.15 253.98 477.67 280.18-466.3h-547l283.27 471.44 259.62-488.27-555.24 29.1 312.59 463.43 237.51-509.34-561.9 59.06 341.83 453.62 213.9-529.42-566.94 89.79 370.89 442.01 188.83-548.4-570.26 121.21 399.65 428.58 162.35-566.19-571.82 153.22 428 413.33 134.52-582.68-571.58 185.72 455.84 396.26 105.41-597.78-569.49 218.61 483.05 377.4 75.08-611.41-565.49 251.77 509.51 356.76 43.6-623.47-559.55 285.1 535.12 334.38 11.06-633.9-551.66 318.5 559.76 310.28-22.44-642.61-541.78 351.83 583.32 284.51-56.83-649.52-529.91 385 605.7 257.1-92-654.57-516.02 417.87 626.77 228.13-127.84-657.69-500.13 450.32 646.46 197.65-164.27-658.83-482.24 482.24 664.65 165.72-201.15-657.94-462.37 513.51 681.25 132.43-238.39-654.97-440.53 544 696.16 97.84-275.85-649.88-416.74 573.6 709.29 62.05-313.44-642.64-391.05 602.17 720.56 25.16-351-633.22-363.5 629.6 729.89-12.74-388.43-621.62-334.14 655.78 737.2-51.55-425.59-607.81-303.02 680.59 742.42-91.16-462.36-591.79-270.21 703.92 745.5-131.46-498.6-573.58-235.78 725.66 746.36-172.31-534.19-553.17-199.81 745.69 744.98-213.62-568.99-530.59-162.38 763.93 741.28-255.25-602.87-505.87-123.59 780.27 735.26-297.06-635.71-479.04-83.52 794.62 726.86-338.94-667.38-450.15-42.28 806.89 716.07-380.74-697.74-419.24v817" fill="none" stroke="#000"/>
</svg>
