<svg id="svg" xmlns="http://www.w3.org/2000/svg" width="2000" height="2000">
    <path stroke="black" fill="none" d="M10,0C10,0,319.466,148.649,317,216C314.592,281.766,10,400,10,400"></path>
    <path stroke="black" fill="none" d="M20,0C20,0,319.499,148.616,317,216C314.562,281.725,20,400,20,400"></path>
    <path stroke="black" fill="none" d="M30,0C30,0,319.532,148.581,317,216C314.534,281.681,30,400,30,400"></path>
    <path stroke="black" fill="none" d="M40,0C40,0,319.563,148.543,317,216C314.506,281.635,40,400,40,400"></path>
    <path stroke="black" fill="none" d="M50,0C50,0,319.593,148.504,317,216C314.48,281.586,50,400,50,400"></path>
    <path stroke="black" fill="none" d="M60,0C60,0,319.621,148.461,317,216C314.457,281.534,60,400,60,400"></path>
    <path stroke="black" fill="none" d="M70,0C70,0,319.647,148.416,317,216C314.436,281.479,70,400,70,400"></path>
    <path stroke="black" fill="none" d="M80,0C80,0,319.67,148.368,317,216C314.418,281.421,80,400,80,400"></path>
    <path stroke="black" fill="none" d="M90,0C90,0,319.689,148.318,317,216C314.403,281.36,90,400,90,400"></path>
    <path stroke="black" fill="none" d="M100,0C100,0,319.704,148.264,317,216C314.393,281.295,100,400,100,400"></path>
    <path stroke="black" fill="none" d="M110,0C110,0,319.714,148.207,317,216C314.389,281.228,110,400,110,400"></path>
    <path stroke="black" fill="none" d="M120,0C120,0,319.718,148.146,317,216C314.39,281.157,120,400,120,400"></path>
    <path stroke="black" fill="none" d="M130,0C130,0,319.716,148.083,317,216C314.398,281.082,130,400,130,400"></path>
    <path stroke="black" fill="none" d="M140,0C140,0,319.705,148.016,317,216C314.414,281.005,140,400,140,400"></path>
    <path stroke="black" fill="none" d="M150,0C150,0,319.684,147.945,317,216C314.439,280.924,150,400,150,400"></path>
    <path stroke="black" fill="none" d="M160,0C160,0,319.654,147.872,317,216C314.474,280.84,160,400,160,400"></path>
    <path stroke="black" fill="none" d="M170,0C170,0,319.611,147.795,317,216C314.521,280.754,170,400,170,400"></path>
    <path stroke="black" fill="none" d="M180,0C180,0,319.554,147.716,317,216C314.581,280.666,180,400,180,400"></path>
    <path stroke="black" fill="none" d="M190,0C190,0,319.483,147.635,317,216C314.655,280.577,190,400,190,400"></path>
    <path stroke="black" fill="none" d="M200,0C200,0,319.395,147.553,317,216C314.743,280.487,200,400,200,400"></path>
    <path stroke="black" fill="none" d="M210,0C210,0,319.289,147.47,317,216C314.849,280.397,210,400,210,400"></path>
    <path stroke="black" fill="none" d="M220,0C220,0,319.164,147.387,317,216C314.971,280.309,220,400,220,400"></path>
    <path stroke="black" fill="none" d="M230,0C230,0,319.019,147.306,317,216C315.112,280.223,230,400,230,400"></path>
    <path stroke="black" fill="none" d="M240,0C240,0,318.854,147.227,317,216C315.271,280.14,240,400,240,400"></path>
    <path stroke="black" fill="none" d="M250,0C250,0,318.668,147.153,317,216C315.448,280.064,250,400,250,400"></path>
    <path stroke="black" fill="none" d="M260,0C260,0,318.461,147.085,317,216C315.643,279.993,260,400,260,400"></path>
    <path stroke="black" fill="none" d="M270,0C270,0,318.236,147.025,317,216C315.854,279.932,270,400,270,400"></path>
    <path stroke="black" fill="none" d="M280,0C280,0,317.994,146.973,317,216C316.08,279.88,280,400,280,400"></path>
    <path stroke="black" fill="none" d="M290,0C290,0,317.737,146.933,317,216C316.319,279.839,290,400,290,400"></path>
    <path stroke="black" fill="none" d="M300,0C300,0,317.469,146.904,317,216C316.566,279.81,300,400,300,400"></path>
    <path stroke="black" fill="none" d="M310,0C310,0,317.195,146.888,317,216C316.82,279.794,310,400,310,400"></path>
    <path stroke="black" fill="none" d="M320,0C320,0,316.917,146.885,317,216C317.077,279.791,320,400,320,400"></path>
    <path stroke="black" fill="none" d="M330,0C330,0,316.64,146.896,317,216C317.332,279.802,330,400,330,400"></path>
    <path stroke="black" fill="none" d="M340,0C340,0,316.369,146.92,317,216C317.583,279.826,340,400,340,400"></path>
    <path stroke="black" fill="none" d="M350,0C350,0,316.107,146.956,317,216C317.826,279.862,350,400,350,400"></path>
    <path stroke="black" fill="none" d="M360,0C360,0,315.859,147.003,317,216C318.057,279.91,360,400,360,400"></path>
    <path stroke="black" fill="none" d="M370,0C370,0,315.627,147.06,317,216C318.274,279.968,370,400,370,400"></path>
    <path stroke="black" fill="none" d="M380,0C380,0,315.413,147.125,317,216C318.476,280.035,380,400,380,400"></path>
    <path stroke="black" fill="none" d="M390,0C390,0,315.218,147.197,317,216C318.66,280.109,390,400,390,400"></path>
    <path stroke="black" fill="none" d="M400,0C400,0,315.044,147.274,317,216C318.826,280.189,400,400,400,400"></path>
    <path stroke="black" fill="none" d="M410,0C410,0,314.891,147.354,317,216C318.974,280.274,410,400,410,400"></path>
    <path stroke="black" fill="none" d="M420,0C420,0,314.758,147.436,317,216C319.104,280.361,420,400,420,400"></path>
    <path stroke="black" fill="none" d="M430,0C430,0,314.645,147.52,317,216C319.216,280.451,430,400,430,400"></path>
    <path stroke="black" fill="none" d="M440,0C440,0,314.55,147.602,317,216C319.312,280.541,440,400,440,400"></path>
    <path stroke="black" fill="none" d="M450,0C450,0,314.472,147.684,317,216C319.391,280.631,450,400,450,400"></path>
    <path stroke="black" fill="none" d="M460,0C460,0,314.41,147.764,317,216C319.457,280.719,460,400,460,400"></path>
    <path stroke="black" fill="none" d="M470,0C470,0,314.362,147.842,317,216C319.508,280.806,470,400,470,400"></path>
    <path stroke="black" fill="none" d="M480,0C480,0,314.326,147.916,317,216C319.548,280.891,480,400,480,400"></path>
    <path stroke="black" fill="none" d="M490,0C490,0,314.302,147.988,317,216C319.577,280.973,490,400,490,400"></path>
    <path stroke="black" fill="none" d="M500,0C500,0,314.288,148.056,317,216C319.597,281.052,500,400,500,400"></path>
    <path stroke="black" fill="none" d="M510,0C510,0,314.282,148.121,317,216C319.608,281.127,510,400,510,400"></path>
    <path stroke="black" fill="none" d="M520,0C520,0,314.283,148.183,317,216C319.612,281.2,520,400,520,400"></path>
    <path stroke="black" fill="none" d="M530,0C530,0,314.291,148.241,317,216C319.609,281.269,530,400,530,400"></path>
    <path stroke="black" fill="none" d="M540,0C540,0,314.304,148.296,317,216C319.601,281.334,540,400,540,400"></path>
    <path stroke="black" fill="none" d="M550,0C550,0,314.322,148.348,317,216C319.589,281.397,550,400,550,400"></path>
    <path stroke="black" fill="none" d="M560,0C560,0,314.344,148.397,317,216C319.572,281.456,560,400,560,400"></path>
    <path stroke="black" fill="none" d="M570,0C570,0,314.368,148.444,317,216C319.552,281.512,570,400,570,400"></path>
    <path stroke="black" fill="none" d="M580,0C580,0,314.395,148.487,317,216C319.529,281.565,580,400,580,400"></path>
    <path stroke="black" fill="none" d="M590,0C590,0,314.425,148.528,317,216C319.504,281.615,590,400,590,400"></path>
    <path stroke="black" fill="none" d="M600,0C600,0,314.456,148.566,317,216C319.478,281.663,600,400,600,400"></path>
    <path stroke="black" fill="none" d="M610,0C610,0,314.488,148.602,317,216C319.449,281.708,610,400,610,400"></path>
    <path stroke="black" fill="none" d="M620,0C620,0,314.521,148.636,317,216C319.42,281.75,620,400,620,400"></path>
    <path stroke="black" fill="none" d="M630,0C630,0,314.555,148.668,317,216C319.389,281.79,630,400,630,400"></path>
    <path stroke="black" fill="none" d="M640,0C640,0,314.589,148.698,317,216C319.358,281.828,640,400,640,400"></path>
</svg>
