<svg id="svg" xmlns="http://www.w3.org/2000/svg" width="2000" height="2000">
    <path stroke="black" fill="none"
          d="M100,100C100,100,100,220,100,220C100,220,100,220,100,220C100,220,101.995,221.325,102.98,222C103.941,222.659,104.904,223.316,105.841,224C106.733,224.651,107.621,225.307,108.47,226C109.257,226.644,110.039,227.298,110.76,228C111.416,228.638,112.062,229.292,112.622,230C113.124,230.634,113.61,231.295,113.981,232C114.315,232.636,114.614,233.311,114.782,234C114.94,234.647,115.021,235.337,114.994,236C114.966,236.671,114.818,237.357,114.608,238C114.38,238.695,114.023,239.366,113.639,240C113.211,240.707,112.676,241.365,112.127,242C111.517,242.707,110.828,243.361,110.132,244C109.37,244.7,108.554,245.354,107.733,246C106.854,246.691,105.94,247.347,105.025,248C104.07,248.681,103.091,249.339,102.117,250C101.125,250.673,100.12,251.331,99.124,252C98.136,252.664,97.142,253.322,96.167,254C95.222,254.656,94.277,255.313,93.362,256C92.498,256.649,91.637,257.304,90.822,258C90.071,258.642,89.326,259.296,88.648,260C88.036,260.636,87.433,261.292,86.926,262C86.473,262.634,86.038,263.298,85.726,264C85.443,264.638,85.204,265.319,85.095,266C84.99,266.653,84.975,267.344,85.058,268C85.143,268.678,85.354,269.361,85.616,270C85.903,270.7,86.315,271.366,86.748,272C87.232,272.708,87.815,273.364,88.409,274C89.067,274.705,89.795,275.359,90.531,276C91.331,276.697,92.179,277.352,93.031,278C93.936,278.688,94.872,279.345,95.809,280C96.779,280.679,97.769,281.337,98.754,282C99.749,282.67,100.755,283.328,101.748,284C102.728,284.662,103.711,285.32,104.673,286C105.598,286.654,106.522,287.31,107.412,288C108.246,288.647,109.076,289.301,109.855,290C110.568,290.64,111.274,291.294,111.905,292C112.473,292.635,113.029,293.292,113.481,294C113.886,294.634,114.266,295.303,114.519,296C114.751,296.641,114.926,297.326,114.978,298C115.029,298.66,114.976,299.35,114.84,300C114.697,300.686,114.424,301.364,114.111,302C113.765,302.704,113.3,303.366,112.819,304C112.281,304.708,111.653,305.363,111.016,306C110.313,306.703,109.546,307.357,108.774,308C107.939,308.694,107.062,309.35,106.182,310C105.254,310.685,104.298,311.342,103.343,312C102.362,312.676,101.363,313.334,100.372,314C99.377,314.668,98.374,315.326,97.385,316C96.418,316.66,95.448,317.317,94.503,318C93.601,318.652,92.701,319.308,91.84,320C91.038,320.645,90.241,321.299,89.502,322C88.829,322.638,88.164,323.293,87.583,324C87.061,324.634,86.553,325.294,86.158,326C85.803,326.635,85.479,327.309,85.286,328C85.106,328.645,84.996,329.334,85,330C85.004,330.667,85.124,331.356,85.312,332C85.514,332.692,85.847,333.365,86.21,334C86.614,334.706,87.129,335.366,87.658,336C88.247,336.707,88.918,337.362,89.597,338C90.343,338.701,91.144,339.355,91.951,340C92.817,340.692,93.721,341.348,94.627,342C95.574,342.683,96.547,343.34,97.516,344C98.506,344.674,99.509,345.332,100.504,346C101.495,346.665,102.492,347.323,103.473,348C104.425,348.657,105.378,349.314,106.303,350C107.179,350.65,108.052,351.305,108.881,352C109.648,352.643,110.409,353.297,111.106,354C111.736,354.637,112.358,355.292,112.887,356C113.362,356.634,113.819,357.297,114.155,358C114.46,358.637,114.725,359.315,114.859,360C114.987,360.65,115.03,361.341,114.97,362C114.91,362.675,114.725,363.36,114.485,364C114.223,364.698,113.834,365.366,113.422,366C112.961,366.708,112.386,367.323,111.824,368C108.759,371.69,103.366,375.587,100,380C80.297,405.834,100,500,100,500"></path>
    <path stroke="black" fill="none"
          d="M110,100C110,100,110,220,110,220C110,220,110,220,110,220C110,220,111.995,221.325,112.98,222C113.941,222.659,114.904,223.316,115.841,224C116.733,224.651,117.621,225.307,118.47,226C119.257,226.644,120.039,227.298,120.76,228C121.416,228.638,122.062,229.292,122.622,230C123.124,230.634,123.61,231.295,123.981,232C124.315,232.636,124.614,233.311,124.782,234C124.94,234.647,125.021,235.337,124.994,236C124.966,236.671,124.818,237.357,124.608,238C124.38,238.695,124.023,239.366,123.639,240C123.211,240.707,122.676,241.365,122.127,242C121.517,242.707,120.828,243.361,120.132,244C119.37,244.7,118.554,245.354,117.733,246C116.854,246.691,115.94,247.347,115.025,248C114.07,248.681,113.091,249.339,112.117,250C111.125,250.673,110.12,251.331,109.124,252C108.136,252.664,107.142,253.322,106.167,254C105.222,254.656,104.277,255.313,103.362,256C102.498,256.649,101.637,257.304,100.822,258C100.071,258.642,99.326,259.296,98.648,260C98.036,260.636,97.433,261.292,96.926,262C96.473,262.634,96.038,263.298,95.726,264C95.443,264.638,95.204,265.319,95.095,266C94.99,266.653,94.975,267.344,95.058,268C95.143,268.678,95.354,269.361,95.616,270C95.903,270.7,96.315,271.366,96.748,272C97.232,272.708,97.815,273.364,98.409,274C99.067,274.705,99.795,275.359,100.531,276C101.331,276.697,102.179,277.352,103.031,278C103.936,278.688,104.872,279.345,105.809,280C106.779,280.679,107.769,281.337,108.754,282C109.749,282.67,110.755,283.328,111.748,284C112.728,284.662,113.711,285.32,114.673,286C115.598,286.654,116.522,287.31,117.412,288C118.246,288.647,119.076,289.301,119.855,290C120.568,290.64,121.274,291.294,121.905,292C122.473,292.635,123.029,293.292,123.481,294C123.886,294.634,124.266,295.303,124.519,296C124.751,296.641,124.926,297.326,124.978,298C125.029,298.66,124.976,299.35,124.84,300C124.697,300.686,124.424,301.364,124.111,302C123.765,302.704,123.3,303.366,122.819,304C122.281,304.708,121.653,305.363,121.016,306C120.313,306.703,119.546,307.357,118.774,308C117.939,308.694,117.062,309.35,116.182,310C115.254,310.685,114.298,311.342,113.343,312C112.362,312.676,111.363,313.334,110.372,314C109.377,314.668,108.374,315.326,107.385,316C106.418,316.66,105.448,317.317,104.503,318C103.601,318.652,102.701,319.308,101.84,320C101.038,320.645,100.241,321.299,99.502,322C98.829,322.638,98.164,323.293,97.583,324C97.061,324.634,96.553,325.294,96.158,326C95.803,326.635,95.479,327.309,95.286,328C95.106,328.645,94.996,329.334,95,330C95.004,330.667,95.124,331.356,95.312,332C95.514,332.692,95.847,333.365,96.21,334C96.614,334.706,97.129,335.366,97.658,336C98.247,336.707,98.918,337.362,99.597,338C100.343,338.701,101.144,339.355,101.951,340C102.817,340.692,103.721,341.348,104.627,342C105.574,342.683,106.547,343.34,107.516,344C108.506,344.674,109.509,345.332,110.504,346C111.495,346.665,112.492,347.323,113.473,348C114.425,348.657,115.378,349.314,116.303,350C117.179,350.65,118.052,351.305,118.881,352C119.648,352.643,120.409,353.297,121.106,354C121.736,354.637,122.358,355.292,122.887,356C123.362,356.634,123.819,357.297,124.155,358C124.46,358.637,124.725,359.315,124.859,360C124.987,360.65,125.03,361.341,124.97,362C124.91,362.675,124.725,363.36,124.485,364C124.223,364.698,123.834,365.366,123.422,366C122.961,366.708,122.386,367.323,121.824,368C118.759,371.69,113.366,375.587,110,380C90.297,405.834,110,500,110,500"></path>
    <path stroke="black" fill="none"
          d="M120,100C120,100,120,220,120,220C120,220,120,220,120,220C120,220,121.995,221.325,122.98,222C123.941,222.659,124.904,223.316,125.841,224C126.733,224.651,127.621,225.307,128.47,226C129.257,226.644,130.039,227.298,130.76,228C131.416,228.638,132.062,229.292,132.622,230C133.124,230.634,133.61,231.295,133.981,232C134.315,232.636,134.614,233.311,134.782,234C134.94,234.647,135.021,235.337,134.994,236C134.966,236.671,134.818,237.357,134.608,238C134.38,238.695,134.023,239.366,133.639,240C133.211,240.707,132.676,241.365,132.127,242C131.517,242.707,130.828,243.361,130.132,244C129.37,244.7,128.554,245.354,127.733,246C126.854,246.691,125.94,247.347,125.025,248C124.07,248.681,123.091,249.339,122.117,250C121.125,250.673,120.12,251.331,119.124,252C118.136,252.664,117.142,253.322,116.167,254C115.222,254.656,114.277,255.313,113.362,256C112.498,256.649,111.637,257.304,110.822,258C110.071,258.642,109.326,259.296,108.648,260C108.036,260.636,107.433,261.292,106.926,262C106.473,262.634,106.038,263.298,105.726,264C105.443,264.638,105.204,265.319,105.095,266C104.99,266.653,104.975,267.344,105.058,268C105.143,268.678,105.354,269.361,105.616,270C105.903,270.7,106.315,271.366,106.748,272C107.232,272.708,107.815,273.364,108.409,274C109.067,274.705,109.795,275.359,110.531,276C111.331,276.697,112.179,277.352,113.031,278C113.936,278.688,114.872,279.345,115.809,280C116.779,280.679,117.769,281.337,118.754,282C119.749,282.67,120.755,283.328,121.748,284C122.728,284.662,123.711,285.32,124.673,286C125.598,286.654,126.522,287.31,127.412,288C128.246,288.647,129.076,289.301,129.855,290C130.568,290.64,131.274,291.294,131.905,292C132.473,292.635,133.029,293.292,133.481,294C133.886,294.634,134.266,295.303,134.519,296C134.751,296.641,134.926,297.326,134.978,298C135.029,298.66,134.976,299.35,134.84,300C134.697,300.686,134.424,301.364,134.111,302C133.765,302.704,133.3,303.366,132.819,304C132.281,304.708,131.653,305.363,131.016,306C130.313,306.703,129.546,307.357,128.774,308C127.939,308.694,127.062,309.35,126.182,310C125.254,310.685,124.298,311.342,123.343,312C122.362,312.676,121.363,313.334,120.372,314C119.377,314.668,118.374,315.326,117.385,316C116.418,316.66,115.448,317.317,114.503,318C113.601,318.652,112.701,319.308,111.84,320C111.038,320.645,110.241,321.299,109.502,322C108.829,322.638,108.164,323.293,107.583,324C107.061,324.634,106.553,325.294,106.158,326C105.803,326.635,105.479,327.309,105.286,328C105.106,328.645,104.996,329.334,105,330C105.004,330.667,105.124,331.356,105.312,332C105.514,332.692,105.847,333.365,106.21,334C106.614,334.706,107.129,335.366,107.658,336C108.247,336.707,108.918,337.362,109.597,338C110.343,338.701,111.144,339.355,111.951,340C112.817,340.692,113.721,341.348,114.627,342C115.574,342.683,116.547,343.34,117.516,344C118.506,344.674,119.509,345.332,120.504,346C121.495,346.665,122.492,347.323,123.473,348C124.425,348.657,125.378,349.314,126.303,350C127.179,350.65,128.052,351.305,128.881,352C129.648,352.643,130.409,353.297,131.106,354C131.736,354.637,132.358,355.292,132.887,356C133.362,356.634,133.819,357.297,134.155,358C134.46,358.637,134.725,359.315,134.859,360C134.987,360.65,135.03,361.341,134.97,362C134.91,362.675,134.725,363.36,134.485,364C134.223,364.698,133.834,365.366,133.422,366C132.961,366.708,132.386,367.323,131.824,368C128.759,371.69,123.366,375.587,120,380C100.297,405.834,120,500,120,500"></path>
    <path stroke="black" fill="none"
          d="M130,100C130,100,130,220,130,220C130,220,130,220,130,220C130,220,131.995,221.325,132.98,222C133.941,222.659,134.904,223.316,135.841,224C136.733,224.651,137.621,225.307,138.47,226C139.257,226.644,140.039,227.298,140.76,228C141.416,228.638,142.062,229.292,142.622,230C143.124,230.634,143.61,231.295,143.981,232C144.315,232.636,144.614,233.311,144.782,234C144.94,234.647,145.021,235.337,144.994,236C144.966,236.671,144.818,237.357,144.608,238C144.38,238.695,144.023,239.366,143.639,240C143.211,240.707,142.676,241.365,142.127,242C141.517,242.707,140.828,243.361,140.132,244C139.37,244.7,138.554,245.354,137.733,246C136.854,246.691,135.94,247.347,135.025,248C134.07,248.681,133.091,249.339,132.117,250C131.125,250.673,130.12,251.331,129.124,252C128.136,252.664,127.142,253.322,126.167,254C125.222,254.656,124.277,255.313,123.362,256C122.498,256.649,121.637,257.304,120.822,258C120.071,258.642,119.326,259.296,118.648,260C118.036,260.636,117.433,261.292,116.926,262C116.473,262.634,116.038,263.298,115.726,264C115.443,264.638,115.204,265.319,115.095,266C114.99,266.653,114.975,267.344,115.058,268C115.143,268.678,115.354,269.361,115.616,270C115.903,270.7,116.315,271.366,116.748,272C117.232,272.708,117.815,273.364,118.409,274C119.067,274.705,119.795,275.359,120.531,276C121.331,276.697,122.179,277.352,123.031,278C123.936,278.688,124.872,279.345,125.809,280C126.779,280.679,127.769,281.337,128.754,282C129.749,282.67,130.755,283.328,131.748,284C132.728,284.662,133.711,285.32,134.673,286C135.598,286.654,136.522,287.31,137.412,288C138.246,288.647,139.076,289.301,139.855,290C140.568,290.64,141.274,291.294,141.905,292C142.473,292.635,143.029,293.292,143.481,294C143.886,294.634,144.266,295.303,144.519,296C144.751,296.641,144.926,297.326,144.978,298C145.029,298.66,144.976,299.35,144.84,300C144.697,300.686,144.424,301.364,144.111,302C143.765,302.704,143.3,303.366,142.819,304C142.281,304.708,141.653,305.363,141.016,306C140.313,306.703,139.546,307.357,138.774,308C137.939,308.694,137.062,309.35,136.182,310C135.254,310.685,134.298,311.342,133.343,312C132.362,312.676,131.363,313.334,130.372,314C129.377,314.668,128.374,315.326,127.385,316C126.418,316.66,125.448,317.317,124.503,318C123.601,318.652,122.701,319.308,121.84,320C121.038,320.645,120.241,321.299,119.502,322C118.829,322.638,118.164,323.293,117.583,324C117.061,324.634,116.553,325.294,116.158,326C115.803,326.635,115.479,327.309,115.286,328C115.106,328.645,114.996,329.334,115,330C115.004,330.667,115.124,331.356,115.312,332C115.514,332.692,115.847,333.365,116.21,334C116.614,334.706,117.129,335.366,117.658,336C118.247,336.707,118.918,337.362,119.597,338C120.343,338.701,121.144,339.355,121.951,340C122.817,340.692,123.721,341.348,124.627,342C125.574,342.683,126.547,343.34,127.516,344C128.506,344.674,129.509,345.332,130.504,346C131.495,346.665,132.492,347.323,133.473,348C134.425,348.657,135.378,349.314,136.303,350C137.179,350.65,138.052,351.305,138.881,352C139.648,352.643,140.409,353.297,141.106,354C141.736,354.637,142.358,355.292,142.887,356C143.362,356.634,143.819,357.297,144.155,358C144.46,358.637,144.725,359.315,144.859,360C144.987,360.65,145.03,361.341,144.97,362C144.91,362.675,144.725,363.36,144.485,364C144.223,364.698,143.834,365.366,143.422,366C142.961,366.708,142.386,367.323,141.824,368C138.759,371.69,133.366,375.587,130,380C110.297,405.834,130,500,130,500"></path>
    <path stroke="black" fill="none"
          d="M140,100C140,100,140,220,140,220C140,220,140,220,140,220C140,220,141.995,221.325,142.98,222C143.941,222.659,144.904,223.316,145.841,224C146.733,224.651,147.621,225.307,148.47,226C149.257,226.644,150.039,227.298,150.76,228C151.416,228.638,152.062,229.292,152.622,230C153.124,230.634,153.61,231.295,153.981,232C154.315,232.636,154.614,233.311,154.782,234C154.94,234.647,155.021,235.337,154.994,236C154.966,236.671,154.818,237.357,154.608,238C154.38,238.695,154.023,239.366,153.639,240C153.211,240.707,152.676,241.365,152.127,242C151.517,242.707,150.828,243.361,150.132,244C149.37,244.7,148.554,245.354,147.733,246C146.854,246.691,145.94,247.347,145.025,248C144.07,248.681,143.091,249.339,142.117,250C141.125,250.673,140.12,251.331,139.124,252C138.136,252.664,137.142,253.322,136.167,254C135.222,254.656,134.277,255.313,133.362,256C132.498,256.649,131.637,257.304,130.822,258C130.071,258.642,129.326,259.296,128.648,260C128.036,260.636,127.433,261.292,126.926,262C126.473,262.634,126.038,263.298,125.726,264C125.443,264.638,125.204,265.319,125.095,266C124.99,266.653,124.975,267.344,125.058,268C125.143,268.678,125.354,269.361,125.616,270C125.903,270.7,126.315,271.366,126.748,272C127.232,272.708,127.815,273.364,128.409,274C129.067,274.705,129.795,275.359,130.531,276C131.331,276.697,132.179,277.352,133.031,278C133.936,278.688,134.872,279.345,135.809,280C136.779,280.679,137.769,281.337,138.754,282C139.749,282.67,140.755,283.328,141.748,284C142.728,284.662,143.711,285.32,144.673,286C145.598,286.654,146.522,287.31,147.412,288C148.246,288.647,149.076,289.301,149.855,290C150.568,290.64,151.274,291.294,151.905,292C152.473,292.635,153.029,293.292,153.481,294C153.886,294.634,154.266,295.303,154.519,296C154.751,296.641,154.926,297.326,154.978,298C155.029,298.66,154.976,299.35,154.84,300C154.697,300.686,154.424,301.364,154.111,302C153.765,302.704,153.3,303.366,152.819,304C152.281,304.708,151.653,305.363,151.016,306C150.313,306.703,149.546,307.357,148.774,308C147.939,308.694,147.062,309.35,146.182,310C145.254,310.685,144.298,311.342,143.343,312C142.362,312.676,141.363,313.334,140.372,314C139.377,314.668,138.374,315.326,137.385,316C136.418,316.66,135.448,317.317,134.503,318C133.601,318.652,132.701,319.308,131.84,320C131.038,320.645,130.241,321.299,129.502,322C128.829,322.638,128.164,323.293,127.583,324C127.061,324.634,126.553,325.294,126.158,326C125.803,326.635,125.479,327.309,125.286,328C125.106,328.645,124.996,329.334,125,330C125.004,330.667,125.124,331.356,125.312,332C125.514,332.692,125.847,333.365,126.21,334C126.614,334.706,127.129,335.366,127.658,336C128.247,336.707,128.918,337.362,129.597,338C130.343,338.701,131.144,339.355,131.951,340C132.817,340.692,133.721,341.348,134.627,342C135.574,342.683,136.547,343.34,137.516,344C138.506,344.674,139.509,345.332,140.504,346C141.495,346.665,142.492,347.323,143.473,348C144.425,348.657,145.378,349.314,146.303,350C147.179,350.65,148.052,351.305,148.881,352C149.648,352.643,150.409,353.297,151.106,354C151.736,354.637,152.358,355.292,152.887,356C153.362,356.634,153.819,357.297,154.155,358C154.46,358.637,154.725,359.315,154.859,360C154.987,360.65,155.03,361.341,154.97,362C154.91,362.675,154.725,363.36,154.485,364C154.223,364.698,153.834,365.366,153.422,366C152.961,366.708,152.386,367.323,151.824,368C148.759,371.69,143.366,375.587,140,380C120.297,405.834,140,500,140,500"></path>
    <path stroke="black" fill="none"
          d="M150,100C150,100,150,220,150,220C150,220,150,220,150,220C150,220,151.995,221.325,152.98,222C153.941,222.659,154.904,223.316,155.841,224C156.733,224.651,157.621,225.307,158.47,226C159.257,226.644,160.039,227.298,160.76,228C161.416,228.638,162.062,229.292,162.622,230C163.124,230.634,163.61,231.295,163.981,232C164.315,232.636,164.614,233.311,164.782,234C164.94,234.647,165.021,235.337,164.994,236C164.966,236.671,164.818,237.357,164.608,238C164.38,238.695,164.023,239.366,163.639,240C163.211,240.707,162.676,241.365,162.127,242C161.517,242.707,160.828,243.361,160.132,244C159.37,244.7,158.554,245.354,157.733,246C156.854,246.691,155.94,247.347,155.025,248C154.07,248.681,153.091,249.339,152.117,250C151.125,250.673,150.12,251.331,149.124,252C148.136,252.664,147.142,253.322,146.167,254C145.222,254.656,144.277,255.313,143.362,256C142.498,256.649,141.637,257.304,140.822,258C140.071,258.642,139.326,259.296,138.648,260C138.036,260.636,137.433,261.292,136.926,262C136.473,262.634,136.038,263.298,135.726,264C135.443,264.638,135.204,265.319,135.095,266C134.99,266.653,134.975,267.344,135.058,268C135.143,268.678,135.354,269.361,135.616,270C135.903,270.7,136.315,271.366,136.748,272C137.232,272.708,137.815,273.364,138.409,274C139.067,274.705,139.795,275.359,140.531,276C141.331,276.697,142.179,277.352,143.031,278C143.936,278.688,144.872,279.345,145.809,280C146.779,280.679,147.769,281.337,148.754,282C149.749,282.67,150.755,283.328,151.748,284C152.728,284.662,153.711,285.32,154.673,286C155.598,286.654,156.522,287.31,157.412,288C158.246,288.647,159.076,289.301,159.855,290C160.568,290.64,161.274,291.294,161.905,292C162.473,292.635,163.029,293.292,163.481,294C163.886,294.634,164.266,295.303,164.519,296C164.751,296.641,164.926,297.326,164.978,298C165.029,298.66,164.976,299.35,164.84,300C164.697,300.686,164.424,301.364,164.111,302C163.765,302.704,163.3,303.366,162.819,304C162.281,304.708,161.653,305.363,161.016,306C160.313,306.703,159.546,307.357,158.774,308C157.939,308.694,157.062,309.35,156.182,310C155.254,310.685,154.298,311.342,153.343,312C152.362,312.676,151.363,313.334,150.372,314C149.377,314.668,148.374,315.326,147.385,316C146.418,316.66,145.448,317.317,144.503,318C143.601,318.652,142.701,319.308,141.84,320C141.038,320.645,140.241,321.299,139.502,322C138.829,322.638,138.164,323.293,137.583,324C137.061,324.634,136.553,325.294,136.158,326C135.803,326.635,135.479,327.309,135.286,328C135.106,328.645,134.996,329.334,135,330C135.004,330.667,135.124,331.356,135.312,332C135.514,332.692,135.847,333.365,136.21,334C136.614,334.706,137.129,335.366,137.658,336C138.247,336.707,138.918,337.362,139.597,338C140.343,338.701,141.144,339.355,141.951,340C142.817,340.692,143.721,341.348,144.627,342C145.574,342.683,146.547,343.34,147.516,344C148.506,344.674,149.509,345.332,150.504,346C151.495,346.665,152.492,347.323,153.473,348C154.425,348.657,155.378,349.314,156.303,350C157.179,350.65,158.052,351.305,158.881,352C159.648,352.643,160.409,353.297,161.106,354C161.736,354.637,162.358,355.292,162.887,356C163.362,356.634,163.819,357.297,164.155,358C164.46,358.637,164.725,359.315,164.859,360C164.987,360.65,165.03,361.341,164.97,362C164.91,362.675,164.725,363.36,164.485,364C164.223,364.698,163.834,365.366,163.422,366C162.961,366.708,162.386,367.323,161.824,368C158.759,371.69,153.366,375.587,150,380C130.297,405.834,150,500,150,500"></path>
    <path stroke="black" fill="none"
          d="M160,100C160,100,160,220,160,220C160,220,160,220,160,220C160,220,161.995,221.325,162.98,222C163.941,222.659,164.904,223.316,165.841,224C166.733,224.651,167.621,225.307,168.47,226C169.257,226.644,170.039,227.298,170.76,228C171.416,228.638,172.062,229.292,172.622,230C173.124,230.634,173.61,231.295,173.981,232C174.315,232.636,174.614,233.311,174.782,234C174.94,234.647,175.021,235.337,174.994,236C174.966,236.671,174.818,237.357,174.608,238C174.38,238.695,174.023,239.366,173.639,240C173.211,240.707,172.676,241.365,172.127,242C171.517,242.707,170.828,243.361,170.132,244C169.37,244.7,168.554,245.354,167.733,246C166.854,246.691,165.94,247.347,165.025,248C164.07,248.681,163.091,249.339,162.117,250C161.125,250.673,160.12,251.331,159.124,252C158.136,252.664,157.142,253.322,156.167,254C155.222,254.656,154.277,255.313,153.362,256C152.498,256.649,151.637,257.304,150.822,258C150.071,258.642,149.326,259.296,148.648,260C148.036,260.636,147.433,261.292,146.926,262C146.473,262.634,146.038,263.298,145.726,264C145.443,264.638,145.204,265.319,145.095,266C144.99,266.653,144.975,267.344,145.058,268C145.143,268.678,145.354,269.361,145.616,270C145.903,270.7,146.315,271.366,146.748,272C147.232,272.708,147.815,273.364,148.409,274C149.067,274.705,149.795,275.359,150.531,276C151.331,276.697,152.179,277.352,153.031,278C153.936,278.688,154.872,279.345,155.809,280C156.779,280.679,157.769,281.337,158.754,282C159.749,282.67,160.755,283.328,161.748,284C162.728,284.662,163.711,285.32,164.673,286C165.598,286.654,166.522,287.31,167.412,288C168.246,288.647,169.076,289.301,169.855,290C170.568,290.64,171.274,291.294,171.905,292C172.473,292.635,173.029,293.292,173.481,294C173.886,294.634,174.266,295.303,174.519,296C174.751,296.641,174.926,297.326,174.978,298C175.029,298.66,174.976,299.35,174.84,300C174.697,300.686,174.424,301.364,174.111,302C173.765,302.704,173.3,303.366,172.819,304C172.281,304.708,171.653,305.363,171.016,306C170.313,306.703,169.546,307.357,168.774,308C167.939,308.694,167.062,309.35,166.182,310C165.254,310.685,164.298,311.342,163.343,312C162.362,312.676,161.363,313.334,160.372,314C159.377,314.668,158.374,315.326,157.385,316C156.418,316.66,155.448,317.317,154.503,318C153.601,318.652,152.701,319.308,151.84,320C151.038,320.645,150.241,321.299,149.502,322C148.829,322.638,148.164,323.293,147.583,324C147.061,324.634,146.553,325.294,146.158,326C145.803,326.635,145.479,327.309,145.286,328C145.106,328.645,144.996,329.334,145,330C145.004,330.667,145.124,331.356,145.312,332C145.514,332.692,145.847,333.365,146.21,334C146.614,334.706,147.129,335.366,147.658,336C148.247,336.707,148.918,337.362,149.597,338C150.343,338.701,151.144,339.355,151.951,340C152.817,340.692,153.721,341.348,154.627,342C155.574,342.683,156.547,343.34,157.516,344C158.506,344.674,159.509,345.332,160.504,346C161.495,346.665,162.492,347.323,163.473,348C164.425,348.657,165.378,349.314,166.303,350C167.179,350.65,168.052,351.305,168.881,352C169.648,352.643,170.409,353.297,171.106,354C171.736,354.637,172.358,355.292,172.887,356C173.362,356.634,173.819,357.297,174.155,358C174.46,358.637,174.725,359.315,174.859,360C174.987,360.65,175.03,361.341,174.97,362C174.91,362.675,174.725,363.36,174.485,364C174.223,364.698,173.834,365.366,173.422,366C172.961,366.708,172.386,367.323,171.824,368C168.759,371.69,163.366,375.587,160,380C140.297,405.834,160,500,160,500"></path>
    <path stroke="black" fill="none"
          d="M170,100C170,100,170,220,170,220C170,220,170,220,170,220C170,220,171.995,221.325,172.98,222C173.941,222.659,174.904,223.316,175.841,224C176.733,224.651,177.621,225.307,178.47,226C179.257,226.644,180.039,227.298,180.76,228C181.416,228.638,182.062,229.292,182.622,230C183.124,230.634,183.61,231.295,183.981,232C184.315,232.636,184.614,233.311,184.782,234C184.94,234.647,185.021,235.337,184.994,236C184.966,236.671,184.818,237.357,184.608,238C184.38,238.695,184.023,239.366,183.639,240C183.211,240.707,182.676,241.365,182.127,242C181.517,242.707,180.828,243.361,180.132,244C179.37,244.7,178.554,245.354,177.733,246C176.854,246.691,175.94,247.347,175.025,248C174.07,248.681,173.091,249.339,172.117,250C171.125,250.673,170.12,251.331,169.124,252C168.136,252.664,167.142,253.322,166.167,254C165.222,254.656,164.277,255.313,163.362,256C162.498,256.649,161.637,257.304,160.822,258C160.071,258.642,159.326,259.296,158.648,260C158.036,260.636,157.433,261.292,156.926,262C156.473,262.634,156.038,263.298,155.726,264C155.443,264.638,155.204,265.319,155.095,266C154.99,266.653,154.975,267.344,155.058,268C155.143,268.678,155.354,269.361,155.616,270C155.903,270.7,156.315,271.366,156.748,272C157.232,272.708,157.815,273.364,158.409,274C159.067,274.705,159.795,275.359,160.531,276C161.331,276.697,162.179,277.352,163.031,278C163.936,278.688,164.872,279.345,165.809,280C166.779,280.679,167.769,281.337,168.754,282C169.749,282.67,170.755,283.328,171.748,284C172.728,284.662,173.711,285.32,174.673,286C175.598,286.654,176.522,287.31,177.412,288C178.246,288.647,179.076,289.301,179.855,290C180.568,290.64,181.274,291.294,181.905,292C182.473,292.635,183.029,293.292,183.481,294C183.886,294.634,184.266,295.303,184.519,296C184.751,296.641,184.926,297.326,184.978,298C185.029,298.66,184.976,299.35,184.84,300C184.697,300.686,184.424,301.364,184.111,302C183.765,302.704,183.3,303.366,182.819,304C182.281,304.708,181.653,305.363,181.016,306C180.313,306.703,179.546,307.357,178.774,308C177.939,308.694,177.062,309.35,176.182,310C175.254,310.685,174.298,311.342,173.343,312C172.362,312.676,171.363,313.334,170.372,314C169.377,314.668,168.374,315.326,167.385,316C166.418,316.66,165.448,317.317,164.503,318C163.601,318.652,162.701,319.308,161.84,320C161.038,320.645,160.241,321.299,159.502,322C158.829,322.638,158.164,323.293,157.583,324C157.061,324.634,156.553,325.294,156.158,326C155.803,326.635,155.479,327.309,155.286,328C155.106,328.645,154.996,329.334,155,330C155.004,330.667,155.124,331.356,155.312,332C155.514,332.692,155.847,333.365,156.21,334C156.614,334.706,157.129,335.366,157.658,336C158.247,336.707,158.918,337.362,159.597,338C160.343,338.701,161.144,339.355,161.951,340C162.817,340.692,163.721,341.348,164.627,342C165.574,342.683,166.547,343.34,167.516,344C168.506,344.674,169.509,345.332,170.504,346C171.495,346.665,172.492,347.323,173.473,348C174.425,348.657,175.378,349.314,176.303,350C177.179,350.65,178.052,351.305,178.881,352C179.648,352.643,180.409,353.297,181.106,354C181.736,354.637,182.358,355.292,182.887,356C183.362,356.634,183.819,357.297,184.155,358C184.46,358.637,184.725,359.315,184.859,360C184.987,360.65,185.03,361.341,184.97,362C184.91,362.675,184.725,363.36,184.485,364C184.223,364.698,183.834,365.366,183.422,366C182.961,366.708,182.386,367.323,181.824,368C178.759,371.69,173.366,375.587,170,380C150.297,405.834,170,500,170,500"></path>
    <path stroke="black" fill="none"
          d="M180,100C180,100,180,220,180,220C180,220,180,220,180,220C180,220,181.995,221.325,182.98,222C183.941,222.659,184.904,223.316,185.841,224C186.733,224.651,187.621,225.307,188.47,226C189.257,226.644,190.039,227.298,190.76,228C191.416,228.638,192.062,229.292,192.622,230C193.124,230.634,193.61,231.295,193.981,232C194.315,232.636,194.614,233.311,194.782,234C194.94,234.647,195.021,235.337,194.994,236C194.966,236.671,194.818,237.357,194.608,238C194.38,238.695,194.023,239.366,193.639,240C193.211,240.707,192.676,241.365,192.127,242C191.517,242.707,190.828,243.361,190.132,244C189.37,244.7,188.554,245.354,187.733,246C186.854,246.691,185.94,247.347,185.025,248C184.07,248.681,183.091,249.339,182.117,250C181.125,250.673,180.12,251.331,179.124,252C178.136,252.664,177.142,253.322,176.167,254C175.222,254.656,174.277,255.313,173.362,256C172.498,256.649,171.637,257.304,170.822,258C170.071,258.642,169.326,259.296,168.648,260C168.036,260.636,167.433,261.292,166.926,262C166.473,262.634,166.038,263.298,165.726,264C165.443,264.638,165.204,265.319,165.095,266C164.99,266.653,164.975,267.344,165.058,268C165.143,268.678,165.354,269.361,165.616,270C165.903,270.7,166.315,271.366,166.748,272C167.232,272.708,167.815,273.364,168.409,274C169.067,274.705,169.795,275.359,170.531,276C171.331,276.697,172.179,277.352,173.031,278C173.936,278.688,174.872,279.345,175.809,280C176.779,280.679,177.769,281.337,178.754,282C179.749,282.67,180.755,283.328,181.748,284C182.728,284.662,183.711,285.32,184.673,286C185.598,286.654,186.522,287.31,187.412,288C188.246,288.647,189.076,289.301,189.855,290C190.568,290.64,191.274,291.294,191.905,292C192.473,292.635,193.029,293.292,193.481,294C193.886,294.634,194.266,295.303,194.519,296C194.751,296.641,194.926,297.326,194.978,298C195.029,298.66,194.976,299.35,194.84,300C194.697,300.686,194.424,301.364,194.111,302C193.765,302.704,193.3,303.366,192.819,304C192.281,304.708,191.653,305.363,191.016,306C190.313,306.703,189.546,307.357,188.774,308C187.939,308.694,187.062,309.35,186.182,310C185.254,310.685,184.298,311.342,183.343,312C182.362,312.676,181.363,313.334,180.372,314C179.377,314.668,178.374,315.326,177.385,316C176.418,316.66,175.448,317.317,174.503,318C173.601,318.652,172.701,319.308,171.84,320C171.038,320.645,170.241,321.299,169.502,322C168.829,322.638,168.164,323.293,167.583,324C167.061,324.634,166.553,325.294,166.158,326C165.803,326.635,165.479,327.309,165.286,328C165.106,328.645,164.996,329.334,165,330C165.004,330.667,165.124,331.356,165.312,332C165.514,332.692,165.847,333.365,166.21,334C166.614,334.706,167.129,335.366,167.658,336C168.247,336.707,168.918,337.362,169.597,338C170.343,338.701,171.144,339.355,171.951,340C172.817,340.692,173.721,341.348,174.627,342C175.574,342.683,176.547,343.34,177.516,344C178.506,344.674,179.509,345.332,180.504,346C181.495,346.665,182.492,347.323,183.473,348C184.425,348.657,185.378,349.314,186.303,350C187.179,350.65,188.052,351.305,188.881,352C189.648,352.643,190.409,353.297,191.106,354C191.736,354.637,192.358,355.292,192.887,356C193.362,356.634,193.819,357.297,194.155,358C194.46,358.637,194.725,359.315,194.859,360C194.987,360.65,195.03,361.341,194.97,362C194.91,362.675,194.725,363.36,194.485,364C194.223,364.698,193.834,365.366,193.422,366C192.961,366.708,192.386,367.323,191.824,368C188.759,371.69,183.366,375.587,180,380C160.297,405.834,180,500,180,500"></path>
    <path stroke="black" fill="none"
          d="M190,100C190,100,190,220,190,220C190,220,190,220,190,220C190,220,191.995,221.325,192.98,222C193.941,222.659,194.904,223.316,195.841,224C196.733,224.651,197.621,225.307,198.47,226C199.257,226.644,200.039,227.298,200.76,228C201.416,228.638,202.062,229.292,202.622,230C203.124,230.634,203.61,231.295,203.981,232C204.315,232.636,204.614,233.311,204.782,234C204.94,234.647,205.021,235.337,204.994,236C204.966,236.671,204.818,237.357,204.608,238C204.38,238.695,204.023,239.366,203.639,240C203.211,240.707,202.676,241.365,202.127,242C201.517,242.707,200.828,243.361,200.132,244C199.37,244.7,198.554,245.354,197.733,246C196.854,246.691,195.94,247.347,195.025,248C194.07,248.681,193.091,249.339,192.117,250C191.125,250.673,190.12,251.331,189.124,252C188.136,252.664,187.142,253.322,186.167,254C185.222,254.656,184.277,255.313,183.362,256C182.498,256.649,181.637,257.304,180.822,258C180.071,258.642,179.326,259.296,178.648,260C178.036,260.636,177.433,261.292,176.926,262C176.473,262.634,176.038,263.298,175.726,264C175.443,264.638,175.204,265.319,175.095,266C174.99,266.653,174.975,267.344,175.058,268C175.143,268.678,175.354,269.361,175.616,270C175.903,270.7,176.315,271.366,176.748,272C177.232,272.708,177.815,273.364,178.409,274C179.067,274.705,179.795,275.359,180.531,276C181.331,276.697,182.179,277.352,183.031,278C183.936,278.688,184.872,279.345,185.809,280C186.779,280.679,187.769,281.337,188.754,282C189.749,282.67,190.755,283.328,191.748,284C192.728,284.662,193.711,285.32,194.673,286C195.598,286.654,196.522,287.31,197.412,288C198.246,288.647,199.076,289.301,199.855,290C200.568,290.64,201.274,291.294,201.905,292C202.473,292.635,203.029,293.292,203.481,294C203.886,294.634,204.266,295.303,204.519,296C204.751,296.641,204.926,297.326,204.978,298C205.029,298.66,204.976,299.35,204.84,300C204.697,300.686,204.424,301.364,204.111,302C203.765,302.704,203.3,303.366,202.819,304C202.281,304.708,201.653,305.363,201.016,306C200.313,306.703,199.546,307.357,198.774,308C197.939,308.694,197.062,309.35,196.182,310C195.254,310.685,194.298,311.342,193.343,312C192.362,312.676,191.363,313.334,190.372,314C189.377,314.668,188.374,315.326,187.385,316C186.418,316.66,185.448,317.317,184.503,318C183.601,318.652,182.701,319.308,181.84,320C181.038,320.645,180.241,321.299,179.502,322C178.829,322.638,178.164,323.293,177.583,324C177.061,324.634,176.553,325.294,176.158,326C175.803,326.635,175.479,327.309,175.286,328C175.106,328.645,174.996,329.334,175,330C175.004,330.667,175.124,331.356,175.312,332C175.514,332.692,175.847,333.365,176.21,334C176.614,334.706,177.129,335.366,177.658,336C178.247,336.707,178.918,337.362,179.597,338C180.343,338.701,181.144,339.355,181.951,340C182.817,340.692,183.721,341.348,184.627,342C185.574,342.683,186.547,343.34,187.516,344C188.506,344.674,189.509,345.332,190.504,346C191.495,346.665,192.492,347.323,193.473,348C194.425,348.657,195.378,349.314,196.303,350C197.179,350.65,198.052,351.305,198.881,352C199.648,352.643,200.409,353.297,201.106,354C201.736,354.637,202.358,355.292,202.887,356C203.362,356.634,203.819,357.297,204.155,358C204.46,358.637,204.725,359.315,204.859,360C204.987,360.65,205.03,361.341,204.97,362C204.91,362.675,204.725,363.36,204.485,364C204.223,364.698,203.834,365.366,203.422,366C202.961,366.708,202.386,367.323,201.824,368C198.759,371.69,193.366,375.587,190,380C170.297,405.834,190,500,190,500"></path>
    <path stroke="black" fill="none"
          d="M200,100C200,100,200,220,200,220C200,220,200,220,200,220C200,220,201.995,221.325,202.98,222C203.941,222.659,204.904,223.316,205.841,224C206.733,224.651,207.621,225.307,208.47,226C209.257,226.644,210.039,227.298,210.76,228C211.416,228.638,212.062,229.292,212.622,230C213.124,230.634,213.61,231.295,213.981,232C214.315,232.636,214.614,233.311,214.782,234C214.94,234.647,215.021,235.337,214.994,236C214.966,236.671,214.818,237.357,214.608,238C214.38,238.695,214.023,239.366,213.639,240C213.211,240.707,212.676,241.365,212.127,242C211.517,242.707,210.828,243.361,210.132,244C209.37,244.7,208.554,245.354,207.733,246C206.854,246.691,205.94,247.347,205.025,248C204.07,248.681,203.091,249.339,202.117,250C201.125,250.673,200.12,251.331,199.124,252C198.136,252.664,197.142,253.322,196.167,254C195.222,254.656,194.277,255.313,193.362,256C192.498,256.649,191.637,257.304,190.822,258C190.071,258.642,189.326,259.296,188.648,260C188.036,260.636,187.433,261.292,186.926,262C186.473,262.634,186.038,263.298,185.726,264C185.443,264.638,185.204,265.319,185.095,266C184.99,266.653,184.975,267.344,185.058,268C185.143,268.678,185.354,269.361,185.616,270C185.903,270.7,186.315,271.366,186.748,272C187.232,272.708,187.815,273.364,188.409,274C189.067,274.705,189.795,275.359,190.531,276C191.331,276.697,192.179,277.352,193.031,278C193.936,278.688,194.872,279.345,195.809,280C196.779,280.679,197.769,281.337,198.754,282C199.749,282.67,200.755,283.328,201.748,284C202.728,284.662,203.711,285.32,204.673,286C205.598,286.654,206.522,287.31,207.412,288C208.246,288.647,209.076,289.301,209.855,290C210.568,290.64,211.274,291.294,211.905,292C212.473,292.635,213.029,293.292,213.481,294C213.886,294.634,214.266,295.303,214.519,296C214.751,296.641,214.926,297.326,214.978,298C215.029,298.66,214.976,299.35,214.84,300C214.697,300.686,214.424,301.364,214.111,302C213.765,302.704,213.3,303.366,212.819,304C212.281,304.708,211.653,305.363,211.016,306C210.313,306.703,209.546,307.357,208.774,308C207.939,308.694,207.062,309.35,206.182,310C205.254,310.685,204.298,311.342,203.343,312C202.362,312.676,201.363,313.334,200.372,314C199.377,314.668,198.374,315.326,197.385,316C196.418,316.66,195.448,317.317,194.503,318C193.601,318.652,192.701,319.308,191.84,320C191.038,320.645,190.241,321.299,189.502,322C188.829,322.638,188.164,323.293,187.583,324C187.061,324.634,186.553,325.294,186.158,326C185.803,326.635,185.479,327.309,185.286,328C185.106,328.645,184.996,329.334,185,330C185.004,330.667,185.124,331.356,185.312,332C185.514,332.692,185.847,333.365,186.21,334C186.614,334.706,187.129,335.366,187.658,336C188.247,336.707,188.918,337.362,189.597,338C190.343,338.701,191.144,339.355,191.951,340C192.817,340.692,193.721,341.348,194.627,342C195.574,342.683,196.547,343.34,197.516,344C198.506,344.674,199.509,345.332,200.504,346C201.495,346.665,202.492,347.323,203.473,348C204.425,348.657,205.378,349.314,206.303,350C207.179,350.65,208.052,351.305,208.881,352C209.648,352.643,210.409,353.297,211.106,354C211.736,354.637,212.358,355.292,212.887,356C213.362,356.634,213.819,357.297,214.155,358C214.46,358.637,214.725,359.315,214.859,360C214.987,360.65,215.03,361.341,214.97,362C214.91,362.675,214.725,363.36,214.485,364C214.223,364.698,213.834,365.366,213.422,366C212.961,366.708,212.386,367.323,211.824,368C208.759,371.69,203.366,375.587,200,380C180.297,405.834,200,500,200,500"></path>
    <path stroke="black" fill="none"
          d="M210,100C210,100,210,220,210,220C210,220,210,220,210,220C210,220,211.995,221.325,212.98,222C213.941,222.659,214.904,223.316,215.841,224C216.733,224.651,217.621,225.307,218.47,226C219.257,226.644,220.039,227.298,220.76,228C221.416,228.638,222.062,229.292,222.622,230C223.124,230.634,223.61,231.295,223.981,232C224.315,232.636,224.614,233.311,224.782,234C224.94,234.647,225.021,235.337,224.994,236C224.966,236.671,224.818,237.357,224.608,238C224.38,238.695,224.023,239.366,223.639,240C223.211,240.707,222.676,241.365,222.127,242C221.517,242.707,220.828,243.361,220.132,244C219.37,244.7,218.554,245.354,217.733,246C216.854,246.691,215.94,247.347,215.025,248C214.07,248.681,213.091,249.339,212.117,250C211.125,250.673,210.12,251.331,209.124,252C208.136,252.664,207.142,253.322,206.167,254C205.222,254.656,204.277,255.313,203.362,256C202.498,256.649,201.637,257.304,200.822,258C200.071,258.642,199.326,259.296,198.648,260C198.036,260.636,197.433,261.292,196.926,262C196.473,262.634,196.038,263.298,195.726,264C195.443,264.638,195.204,265.319,195.095,266C194.99,266.653,194.975,267.344,195.058,268C195.143,268.678,195.354,269.361,195.616,270C195.903,270.7,196.315,271.366,196.748,272C197.232,272.708,197.815,273.364,198.409,274C199.067,274.705,199.795,275.359,200.531,276C201.331,276.697,202.179,277.352,203.031,278C203.936,278.688,204.872,279.345,205.809,280C206.779,280.679,207.769,281.337,208.754,282C209.749,282.67,210.755,283.328,211.748,284C212.728,284.662,213.711,285.32,214.673,286C215.598,286.654,216.522,287.31,217.412,288C218.246,288.647,219.076,289.301,219.855,290C220.568,290.64,221.274,291.294,221.905,292C222.473,292.635,223.029,293.292,223.481,294C223.886,294.634,224.266,295.303,224.519,296C224.751,296.641,224.926,297.326,224.978,298C225.029,298.66,224.976,299.35,224.84,300C224.697,300.686,224.424,301.364,224.111,302C223.765,302.704,223.3,303.366,222.819,304C222.281,304.708,221.653,305.363,221.016,306C220.313,306.703,219.546,307.357,218.774,308C217.939,308.694,217.062,309.35,216.182,310C215.254,310.685,214.298,311.342,213.343,312C212.362,312.676,211.363,313.334,210.372,314C209.377,314.668,208.374,315.326,207.385,316C206.418,316.66,205.448,317.317,204.503,318C203.601,318.652,202.701,319.308,201.84,320C201.038,320.645,200.241,321.299,199.502,322C198.829,322.638,198.164,323.293,197.583,324C197.061,324.634,196.553,325.294,196.158,326C195.803,326.635,195.479,327.309,195.286,328C195.106,328.645,194.996,329.334,195,330C195.004,330.667,195.124,331.356,195.312,332C195.514,332.692,195.847,333.365,196.21,334C196.614,334.706,197.129,335.366,197.658,336C198.247,336.707,198.918,337.362,199.597,338C200.343,338.701,201.144,339.355,201.951,340C202.817,340.692,203.721,341.348,204.627,342C205.574,342.683,206.547,343.34,207.516,344C208.506,344.674,209.509,345.332,210.504,346C211.495,346.665,212.492,347.323,213.473,348C214.425,348.657,215.378,349.314,216.303,350C217.179,350.65,218.052,351.305,218.881,352C219.648,352.643,220.409,353.297,221.106,354C221.736,354.637,222.358,355.292,222.887,356C223.362,356.634,223.819,357.297,224.155,358C224.46,358.637,224.725,359.315,224.859,360C224.987,360.65,225.03,361.341,224.97,362C224.91,362.675,224.725,363.36,224.485,364C224.223,364.698,223.834,365.366,223.422,366C222.961,366.708,222.386,367.323,221.824,368C218.759,371.69,213.366,375.587,210,380C190.297,405.834,210,500,210,500"></path>
    <path stroke="black" fill="none"
          d="M220,100C220,100,220,220,220,220C220,220,220,220,220,220C220,220,221.995,221.325,222.98,222C223.941,222.659,224.904,223.316,225.841,224C226.733,224.651,227.621,225.307,228.47,226C229.257,226.644,230.039,227.298,230.76,228C231.416,228.638,232.062,229.292,232.622,230C233.124,230.634,233.61,231.295,233.981,232C234.315,232.636,234.614,233.311,234.782,234C234.94,234.647,235.021,235.337,234.994,236C234.966,236.671,234.818,237.357,234.608,238C234.38,238.695,234.023,239.366,233.639,240C233.211,240.707,232.676,241.365,232.127,242C231.517,242.707,230.828,243.361,230.132,244C229.37,244.7,228.554,245.354,227.733,246C226.854,246.691,225.94,247.347,225.025,248C224.07,248.681,223.091,249.339,222.117,250C221.125,250.673,220.12,251.331,219.124,252C218.136,252.664,217.142,253.322,216.167,254C215.222,254.656,214.277,255.313,213.362,256C212.498,256.649,211.637,257.304,210.822,258C210.071,258.642,209.326,259.296,208.648,260C208.036,260.636,207.433,261.292,206.926,262C206.473,262.634,206.038,263.298,205.726,264C205.443,264.638,205.204,265.319,205.095,266C204.99,266.653,204.975,267.344,205.058,268C205.143,268.678,205.354,269.361,205.616,270C205.903,270.7,206.315,271.366,206.748,272C207.232,272.708,207.815,273.364,208.409,274C209.067,274.705,209.795,275.359,210.531,276C211.331,276.697,212.179,277.352,213.031,278C213.936,278.688,214.872,279.345,215.809,280C216.779,280.679,217.769,281.337,218.754,282C219.749,282.67,220.755,283.328,221.748,284C222.728,284.662,223.711,285.32,224.673,286C225.598,286.654,226.522,287.31,227.412,288C228.246,288.647,229.076,289.301,229.855,290C230.568,290.64,231.274,291.294,231.905,292C232.473,292.635,233.029,293.292,233.481,294C233.886,294.634,234.266,295.303,234.519,296C234.751,296.641,234.926,297.326,234.978,298C235.029,298.66,234.976,299.35,234.84,300C234.697,300.686,234.424,301.364,234.111,302C233.765,302.704,233.3,303.366,232.819,304C232.281,304.708,231.653,305.363,231.016,306C230.313,306.703,229.546,307.357,228.774,308C227.939,308.694,227.062,309.35,226.182,310C225.254,310.685,224.298,311.342,223.343,312C222.362,312.676,221.363,313.334,220.372,314C219.377,314.668,218.374,315.326,217.385,316C216.418,316.66,215.448,317.317,214.503,318C213.601,318.652,212.701,319.308,211.84,320C211.038,320.645,210.241,321.299,209.502,322C208.829,322.638,208.164,323.293,207.583,324C207.061,324.634,206.553,325.294,206.158,326C205.803,326.635,205.479,327.309,205.286,328C205.106,328.645,204.996,329.334,205,330C205.004,330.667,205.124,331.356,205.312,332C205.514,332.692,205.847,333.365,206.21,334C206.614,334.706,207.129,335.366,207.658,336C208.247,336.707,208.918,337.362,209.597,338C210.343,338.701,211.144,339.355,211.951,340C212.817,340.692,213.721,341.348,214.627,342C215.574,342.683,216.547,343.34,217.516,344C218.506,344.674,219.509,345.332,220.504,346C221.495,346.665,222.492,347.323,223.473,348C224.425,348.657,225.378,349.314,226.303,350C227.179,350.65,228.052,351.305,228.881,352C229.648,352.643,230.409,353.297,231.106,354C231.736,354.637,232.358,355.292,232.887,356C233.362,356.634,233.819,357.297,234.155,358C234.46,358.637,234.725,359.315,234.859,360C234.987,360.65,235.03,361.341,234.97,362C234.91,362.675,234.725,363.36,234.485,364C234.223,364.698,233.834,365.366,233.422,366C232.961,366.708,232.386,367.323,231.824,368C228.759,371.69,223.366,375.587,220,380C200.297,405.834,220,500,220,500"></path>
    <path stroke="black" fill="none"
          d="M230,100C230,100,230,220,230,220C230,220,230,220,230,220C230,220,231.995,221.325,232.98,222C233.941,222.659,234.904,223.316,235.841,224C236.733,224.651,237.621,225.307,238.47,226C239.257,226.644,240.039,227.298,240.76,228C241.416,228.638,242.062,229.292,242.622,230C243.124,230.634,243.61,231.295,243.981,232C244.315,232.636,244.614,233.311,244.782,234C244.94,234.647,245.021,235.337,244.994,236C244.966,236.671,244.818,237.357,244.608,238C244.38,238.695,244.023,239.366,243.639,240C243.211,240.707,242.676,241.365,242.127,242C241.517,242.707,240.828,243.361,240.132,244C239.37,244.7,238.554,245.354,237.733,246C236.854,246.691,235.94,247.347,235.025,248C234.07,248.681,233.091,249.339,232.117,250C231.125,250.673,230.12,251.331,229.124,252C228.136,252.664,227.142,253.322,226.167,254C225.222,254.656,224.277,255.313,223.362,256C222.498,256.649,221.637,257.304,220.822,258C220.071,258.642,219.326,259.296,218.648,260C218.036,260.636,217.433,261.292,216.926,262C216.473,262.634,216.038,263.298,215.726,264C215.443,264.638,215.204,265.319,215.095,266C214.99,266.653,214.975,267.344,215.058,268C215.143,268.678,215.354,269.361,215.616,270C215.903,270.7,216.315,271.366,216.748,272C217.232,272.708,217.815,273.364,218.409,274C219.067,274.705,219.795,275.359,220.531,276C221.331,276.697,222.179,277.352,223.031,278C223.936,278.688,224.872,279.345,225.809,280C226.779,280.679,227.769,281.337,228.754,282C229.749,282.67,230.755,283.328,231.748,284C232.728,284.662,233.711,285.32,234.673,286C235.598,286.654,236.522,287.31,237.412,288C238.246,288.647,239.076,289.301,239.855,290C240.568,290.64,241.274,291.294,241.905,292C242.473,292.635,243.029,293.292,243.481,294C243.886,294.634,244.266,295.303,244.519,296C244.751,296.641,244.926,297.326,244.978,298C245.029,298.66,244.976,299.35,244.84,300C244.697,300.686,244.424,301.364,244.111,302C243.765,302.704,243.3,303.366,242.819,304C242.281,304.708,241.653,305.363,241.016,306C240.313,306.703,239.546,307.357,238.774,308C237.939,308.694,237.062,309.35,236.182,310C235.254,310.685,234.298,311.342,233.343,312C232.362,312.676,231.363,313.334,230.372,314C229.377,314.668,228.374,315.326,227.385,316C226.418,316.66,225.448,317.317,224.503,318C223.601,318.652,222.701,319.308,221.84,320C221.038,320.645,220.241,321.299,219.502,322C218.829,322.638,218.164,323.293,217.583,324C217.061,324.634,216.553,325.294,216.158,326C215.803,326.635,215.479,327.309,215.286,328C215.106,328.645,214.996,329.334,215,330C215.004,330.667,215.124,331.356,215.312,332C215.514,332.692,215.847,333.365,216.21,334C216.614,334.706,217.129,335.366,217.658,336C218.247,336.707,218.918,337.362,219.597,338C220.343,338.701,221.144,339.355,221.951,340C222.817,340.692,223.721,341.348,224.627,342C225.574,342.683,226.547,343.34,227.516,344C228.506,344.674,229.509,345.332,230.504,346C231.495,346.665,232.492,347.323,233.473,348C234.425,348.657,235.378,349.314,236.303,350C237.179,350.65,238.052,351.305,238.881,352C239.648,352.643,240.409,353.297,241.106,354C241.736,354.637,242.358,355.292,242.887,356C243.362,356.634,243.819,357.297,244.155,358C244.46,358.637,244.725,359.315,244.859,360C244.987,360.65,245.03,361.341,244.97,362C244.91,362.675,244.725,363.36,244.485,364C244.223,364.698,243.834,365.366,243.422,366C242.961,366.708,242.386,367.323,241.824,368C238.759,371.69,233.366,375.587,230,380C210.297,405.834,230,500,230,500"></path>
    <path stroke="black" fill="none"
          d="M240,100C240,100,240,220,240,220C240,220,240,220,240,220C240,220,241.995,221.325,242.98,222C243.941,222.659,244.904,223.316,245.841,224C246.733,224.651,247.621,225.307,248.47,226C249.257,226.644,250.039,227.298,250.76,228C251.416,228.638,252.062,229.292,252.622,230C253.124,230.634,253.61,231.295,253.981,232C254.315,232.636,254.614,233.311,254.782,234C254.94,234.647,255.021,235.337,254.994,236C254.966,236.671,254.818,237.357,254.608,238C254.38,238.695,254.023,239.366,253.639,240C253.211,240.707,252.676,241.365,252.127,242C251.517,242.707,250.828,243.361,250.132,244C249.37,244.7,248.554,245.354,247.733,246C246.854,246.691,245.94,247.347,245.025,248C244.07,248.681,243.091,249.339,242.117,250C241.125,250.673,240.12,251.331,239.124,252C238.136,252.664,237.142,253.322,236.167,254C235.222,254.656,234.277,255.313,233.362,256C232.498,256.649,231.637,257.304,230.822,258C230.071,258.642,229.326,259.296,228.648,260C228.036,260.636,227.433,261.292,226.926,262C226.473,262.634,226.038,263.298,225.726,264C225.443,264.638,225.204,265.319,225.095,266C224.99,266.653,224.975,267.344,225.058,268C225.143,268.678,225.354,269.361,225.616,270C225.903,270.7,226.315,271.366,226.748,272C227.232,272.708,227.815,273.364,228.409,274C229.067,274.705,229.795,275.359,230.531,276C231.331,276.697,232.179,277.352,233.031,278C233.936,278.688,234.872,279.345,235.809,280C236.779,280.679,237.769,281.337,238.754,282C239.749,282.67,240.755,283.328,241.748,284C242.728,284.662,243.711,285.32,244.673,286C245.598,286.654,246.522,287.31,247.412,288C248.246,288.647,249.076,289.301,249.855,290C250.568,290.64,251.274,291.294,251.905,292C252.473,292.635,253.029,293.292,253.481,294C253.886,294.634,254.266,295.303,254.519,296C254.751,296.641,254.926,297.326,254.978,298C255.029,298.66,254.976,299.35,254.84,300C254.697,300.686,254.424,301.364,254.111,302C253.765,302.704,253.3,303.366,252.819,304C252.281,304.708,251.653,305.363,251.016,306C250.313,306.703,249.546,307.357,248.774,308C247.939,308.694,247.062,309.35,246.182,310C245.254,310.685,244.298,311.342,243.343,312C242.362,312.676,241.363,313.334,240.372,314C239.377,314.668,238.374,315.326,237.385,316C236.418,316.66,235.448,317.317,234.503,318C233.601,318.652,232.701,319.308,231.84,320C231.038,320.645,230.241,321.299,229.502,322C228.829,322.638,228.164,323.293,227.583,324C227.061,324.634,226.553,325.294,226.158,326C225.803,326.635,225.479,327.309,225.286,328C225.106,328.645,224.996,329.334,225,330C225.004,330.667,225.124,331.356,225.312,332C225.514,332.692,225.847,333.365,226.21,334C226.614,334.706,227.129,335.366,227.658,336C228.247,336.707,228.918,337.362,229.597,338C230.343,338.701,231.144,339.355,231.951,340C232.817,340.692,233.721,341.348,234.627,342C235.574,342.683,236.547,343.34,237.516,344C238.506,344.674,239.509,345.332,240.504,346C241.495,346.665,242.492,347.323,243.473,348C244.425,348.657,245.378,349.314,246.303,350C247.179,350.65,248.052,351.305,248.881,352C249.648,352.643,250.409,353.297,251.106,354C251.736,354.637,252.358,355.292,252.887,356C253.362,356.634,253.819,357.297,254.155,358C254.46,358.637,254.725,359.315,254.859,360C254.987,360.65,255.03,361.341,254.97,362C254.91,362.675,254.725,363.36,254.485,364C254.223,364.698,253.834,365.366,253.422,366C252.961,366.708,252.386,367.323,251.824,368C248.759,371.69,243.366,375.587,240,380C220.297,405.834,240,500,240,500"></path>
    <path stroke="black" fill="none"
          d="M250,100C250,100,250,220,250,220C250,220,250,220,250,220C250,220,251.995,221.325,252.98,222C253.941,222.659,254.904,223.316,255.841,224C256.733,224.651,257.621,225.307,258.47,226C259.257,226.644,260.039,227.298,260.76,228C261.416,228.638,262.062,229.292,262.622,230C263.124,230.634,263.61,231.295,263.981,232C264.315,232.636,264.614,233.311,264.782,234C264.94,234.647,265.021,235.337,264.994,236C264.966,236.671,264.818,237.357,264.608,238C264.38,238.695,264.023,239.366,263.639,240C263.211,240.707,262.676,241.365,262.127,242C261.517,242.707,260.828,243.361,260.132,244C259.37,244.7,258.554,245.354,257.733,246C256.854,246.691,255.94,247.347,255.025,248C254.07,248.681,253.091,249.339,252.117,250C251.125,250.673,250.12,251.331,249.124,252C248.136,252.664,247.142,253.322,246.167,254C245.222,254.656,244.277,255.313,243.362,256C242.498,256.649,241.637,257.304,240.822,258C240.071,258.642,239.326,259.296,238.648,260C238.036,260.636,237.433,261.292,236.926,262C236.473,262.634,236.038,263.298,235.726,264C235.443,264.638,235.204,265.319,235.095,266C234.99,266.653,234.975,267.344,235.058,268C235.143,268.678,235.354,269.361,235.616,270C235.903,270.7,236.315,271.366,236.748,272C237.232,272.708,237.815,273.364,238.409,274C239.067,274.705,239.795,275.359,240.531,276C241.331,276.697,242.179,277.352,243.031,278C243.936,278.688,244.872,279.345,245.809,280C246.779,280.679,247.769,281.337,248.754,282C249.749,282.67,250.755,283.328,251.748,284C252.728,284.662,253.711,285.32,254.673,286C255.598,286.654,256.522,287.31,257.412,288C258.246,288.647,259.076,289.301,259.855,290C260.568,290.64,261.274,291.294,261.905,292C262.473,292.635,263.029,293.292,263.481,294C263.886,294.634,264.266,295.303,264.519,296C264.751,296.641,264.926,297.326,264.978,298C265.029,298.66,264.976,299.35,264.84,300C264.697,300.686,264.424,301.364,264.111,302C263.765,302.704,263.3,303.366,262.819,304C262.281,304.708,261.653,305.363,261.016,306C260.313,306.703,259.546,307.357,258.774,308C257.939,308.694,257.062,309.35,256.182,310C255.254,310.685,254.298,311.342,253.343,312C252.362,312.676,251.363,313.334,250.372,314C249.377,314.668,248.374,315.326,247.385,316C246.418,316.66,245.448,317.317,244.503,318C243.601,318.652,242.701,319.308,241.84,320C241.038,320.645,240.241,321.299,239.502,322C238.829,322.638,238.164,323.293,237.583,324C237.061,324.634,236.553,325.294,236.158,326C235.803,326.635,235.479,327.309,235.286,328C235.106,328.645,234.996,329.334,235,330C235.004,330.667,235.124,331.356,235.312,332C235.514,332.692,235.847,333.365,236.21,334C236.614,334.706,237.129,335.366,237.658,336C238.247,336.707,238.918,337.362,239.597,338C240.343,338.701,241.144,339.355,241.951,340C242.817,340.692,243.721,341.348,244.627,342C245.574,342.683,246.547,343.34,247.516,344C248.506,344.674,249.509,345.332,250.504,346C251.495,346.665,252.492,347.323,253.473,348C254.425,348.657,255.378,349.314,256.303,350C257.179,350.65,258.052,351.305,258.881,352C259.648,352.643,260.409,353.297,261.106,354C261.736,354.637,262.358,355.292,262.887,356C263.362,356.634,263.819,357.297,264.155,358C264.46,358.637,264.725,359.315,264.859,360C264.987,360.65,265.03,361.341,264.97,362C264.91,362.675,264.725,363.36,264.485,364C264.223,364.698,263.834,365.366,263.422,366C262.961,366.708,262.386,367.323,261.824,368C258.759,371.69,253.366,375.587,250,380C230.297,405.834,250,500,250,500"></path>
    <path stroke="black" fill="none"
          d="M260,100C260,100,260,220,260,220C260,220,260,220,260,220C260,220,261.995,221.325,262.98,222C263.941,222.659,264.904,223.316,265.841,224C266.733,224.651,267.621,225.307,268.47,226C269.257,226.644,270.039,227.298,270.76,228C271.416,228.638,272.062,229.292,272.622,230C273.124,230.634,273.61,231.295,273.981,232C274.315,232.636,274.614,233.311,274.782,234C274.94,234.647,275.021,235.337,274.994,236C274.966,236.671,274.818,237.357,274.608,238C274.38,238.695,274.023,239.366,273.639,240C273.211,240.707,272.676,241.365,272.127,242C271.517,242.707,270.828,243.361,270.132,244C269.37,244.7,268.554,245.354,267.733,246C266.854,246.691,265.94,247.347,265.025,248C264.07,248.681,263.091,249.339,262.117,250C261.125,250.673,260.12,251.331,259.124,252C258.136,252.664,257.142,253.322,256.167,254C255.222,254.656,254.277,255.313,253.362,256C252.498,256.649,251.637,257.304,250.822,258C250.071,258.642,249.326,259.296,248.648,260C248.036,260.636,247.433,261.292,246.926,262C246.473,262.634,246.038,263.298,245.726,264C245.443,264.638,245.204,265.319,245.095,266C244.99,266.653,244.975,267.344,245.058,268C245.143,268.678,245.354,269.361,245.616,270C245.903,270.7,246.315,271.366,246.748,272C247.232,272.708,247.815,273.364,248.409,274C249.067,274.705,249.795,275.359,250.531,276C251.331,276.697,252.179,277.352,253.031,278C253.936,278.688,254.872,279.345,255.809,280C256.779,280.679,257.769,281.337,258.754,282C259.749,282.67,260.755,283.328,261.748,284C262.728,284.662,263.711,285.32,264.673,286C265.598,286.654,266.522,287.31,267.412,288C268.246,288.647,269.076,289.301,269.855,290C270.568,290.64,271.274,291.294,271.905,292C272.473,292.635,273.029,293.292,273.481,294C273.886,294.634,274.266,295.303,274.519,296C274.751,296.641,274.926,297.326,274.978,298C275.029,298.66,274.976,299.35,274.84,300C274.697,300.686,274.424,301.364,274.111,302C273.765,302.704,273.3,303.366,272.819,304C272.281,304.708,271.653,305.363,271.016,306C270.313,306.703,269.546,307.357,268.774,308C267.939,308.694,267.062,309.35,266.182,310C265.254,310.685,264.298,311.342,263.343,312C262.362,312.676,261.363,313.334,260.372,314C259.377,314.668,258.374,315.326,257.385,316C256.418,316.66,255.448,317.317,254.503,318C253.601,318.652,252.701,319.308,251.84,320C251.038,320.645,250.241,321.299,249.502,322C248.829,322.638,248.164,323.293,247.583,324C247.061,324.634,246.553,325.294,246.158,326C245.803,326.635,245.479,327.309,245.286,328C245.106,328.645,244.996,329.334,245,330C245.004,330.667,245.124,331.356,245.312,332C245.514,332.692,245.847,333.365,246.21,334C246.614,334.706,247.129,335.366,247.658,336C248.247,336.707,248.918,337.362,249.597,338C250.343,338.701,251.144,339.355,251.951,340C252.817,340.692,253.721,341.348,254.627,342C255.574,342.683,256.547,343.34,257.516,344C258.506,344.674,259.509,345.332,260.504,346C261.495,346.665,262.492,347.323,263.473,348C264.425,348.657,265.378,349.314,266.303,350C267.179,350.65,268.052,351.305,268.881,352C269.648,352.643,270.409,353.297,271.106,354C271.736,354.637,272.358,355.292,272.887,356C273.362,356.634,273.819,357.297,274.155,358C274.46,358.637,274.725,359.315,274.859,360C274.987,360.65,275.03,361.341,274.97,362C274.91,362.675,274.725,363.36,274.485,364C274.223,364.698,273.834,365.366,273.422,366C272.961,366.708,272.386,367.323,271.824,368C268.759,371.69,263.366,375.587,260,380C240.297,405.834,260,500,260,500"></path>
    <path stroke="black" fill="none"
          d="M270,100C270,100,270,220,270,220C270,220,270,220,270,220C270,220,271.995,221.325,272.98,222C273.941,222.659,274.904,223.316,275.841,224C276.733,224.651,277.621,225.307,278.47,226C279.257,226.644,280.039,227.298,280.76,228C281.416,228.638,282.062,229.292,282.622,230C283.124,230.634,283.61,231.295,283.981,232C284.315,232.636,284.614,233.311,284.782,234C284.94,234.647,285.021,235.337,284.994,236C284.966,236.671,284.818,237.357,284.608,238C284.38,238.695,284.023,239.366,283.639,240C283.211,240.707,282.676,241.365,282.127,242C281.517,242.707,280.828,243.361,280.132,244C279.37,244.7,278.554,245.354,277.733,246C276.854,246.691,275.94,247.347,275.025,248C274.07,248.681,273.091,249.339,272.117,250C271.125,250.673,270.12,251.331,269.124,252C268.136,252.664,267.142,253.322,266.167,254C265.222,254.656,264.277,255.313,263.362,256C262.498,256.649,261.637,257.304,260.822,258C260.071,258.642,259.326,259.296,258.648,260C258.036,260.636,257.433,261.292,256.926,262C256.473,262.634,256.038,263.298,255.726,264C255.443,264.638,255.204,265.319,255.095,266C254.99,266.653,254.975,267.344,255.058,268C255.143,268.678,255.354,269.361,255.616,270C255.903,270.7,256.315,271.366,256.748,272C257.232,272.708,257.815,273.364,258.409,274C259.067,274.705,259.795,275.359,260.531,276C261.331,276.697,262.179,277.352,263.031,278C263.936,278.688,264.872,279.345,265.809,280C266.779,280.679,267.769,281.337,268.754,282C269.749,282.67,270.755,283.328,271.748,284C272.728,284.662,273.711,285.32,274.673,286C275.598,286.654,276.522,287.31,277.412,288C278.246,288.647,279.076,289.301,279.855,290C280.568,290.64,281.274,291.294,281.905,292C282.473,292.635,283.029,293.292,283.481,294C283.886,294.634,284.266,295.303,284.519,296C284.751,296.641,284.926,297.326,284.978,298C285.029,298.66,284.976,299.35,284.84,300C284.697,300.686,284.424,301.364,284.111,302C283.765,302.704,283.3,303.366,282.819,304C282.281,304.708,281.653,305.363,281.016,306C280.313,306.703,279.546,307.357,278.774,308C277.939,308.694,277.062,309.35,276.182,310C275.254,310.685,274.298,311.342,273.343,312C272.362,312.676,271.363,313.334,270.372,314C269.377,314.668,268.374,315.326,267.385,316C266.418,316.66,265.448,317.317,264.503,318C263.601,318.652,262.701,319.308,261.84,320C261.038,320.645,260.241,321.299,259.502,322C258.829,322.638,258.164,323.293,257.583,324C257.061,324.634,256.553,325.294,256.158,326C255.803,326.635,255.479,327.309,255.286,328C255.106,328.645,254.996,329.334,255,330C255.004,330.667,255.124,331.356,255.312,332C255.514,332.692,255.847,333.365,256.21,334C256.614,334.706,257.129,335.366,257.658,336C258.247,336.707,258.918,337.362,259.597,338C260.343,338.701,261.144,339.355,261.951,340C262.817,340.692,263.721,341.348,264.627,342C265.574,342.683,266.547,343.34,267.516,344C268.506,344.674,269.509,345.332,270.504,346C271.495,346.665,272.492,347.323,273.473,348C274.425,348.657,275.378,349.314,276.303,350C277.179,350.65,278.052,351.305,278.881,352C279.648,352.643,280.409,353.297,281.106,354C281.736,354.637,282.358,355.292,282.887,356C283.362,356.634,283.819,357.297,284.155,358C284.46,358.637,284.725,359.315,284.859,360C284.987,360.65,285.03,361.341,284.97,362C284.91,362.675,284.725,363.36,284.485,364C284.223,364.698,283.834,365.366,283.422,366C282.961,366.708,282.386,367.323,281.824,368C278.759,371.69,273.366,375.587,270,380C250.297,405.834,270,500,270,500"></path>
    <path stroke="black" fill="none"
          d="M280,100C280,100,280,220,280,220C280,220,280,220,280,220C280,220,281.995,221.325,282.98,222C283.941,222.659,284.904,223.316,285.841,224C286.733,224.651,287.621,225.307,288.47,226C289.257,226.644,290.039,227.298,290.76,228C291.416,228.638,292.062,229.292,292.622,230C293.124,230.634,293.61,231.295,293.981,232C294.315,232.636,294.614,233.311,294.782,234C294.94,234.647,295.021,235.337,294.994,236C294.966,236.671,294.818,237.357,294.608,238C294.38,238.695,294.023,239.366,293.639,240C293.211,240.707,292.676,241.365,292.127,242C291.517,242.707,290.828,243.361,290.132,244C289.37,244.7,288.554,245.354,287.733,246C286.854,246.691,285.94,247.347,285.025,248C284.07,248.681,283.091,249.339,282.117,250C281.125,250.673,280.12,251.331,279.124,252C278.136,252.664,277.142,253.322,276.167,254C275.222,254.656,274.277,255.313,273.362,256C272.498,256.649,271.637,257.304,270.822,258C270.071,258.642,269.326,259.296,268.648,260C268.036,260.636,267.433,261.292,266.926,262C266.473,262.634,266.038,263.298,265.726,264C265.443,264.638,265.204,265.319,265.095,266C264.99,266.653,264.975,267.344,265.058,268C265.143,268.678,265.354,269.361,265.616,270C265.903,270.7,266.315,271.366,266.748,272C267.232,272.708,267.815,273.364,268.409,274C269.067,274.705,269.795,275.359,270.531,276C271.331,276.697,272.179,277.352,273.031,278C273.936,278.688,274.872,279.345,275.809,280C276.779,280.679,277.769,281.337,278.754,282C279.749,282.67,280.755,283.328,281.748,284C282.728,284.662,283.711,285.32,284.673,286C285.598,286.654,286.522,287.31,287.412,288C288.246,288.647,289.076,289.301,289.855,290C290.568,290.64,291.274,291.294,291.905,292C292.473,292.635,293.029,293.292,293.481,294C293.886,294.634,294.266,295.303,294.519,296C294.751,296.641,294.926,297.326,294.978,298C295.029,298.66,294.976,299.35,294.84,300C294.697,300.686,294.424,301.364,294.111,302C293.765,302.704,293.3,303.366,292.819,304C292.281,304.708,291.653,305.363,291.016,306C290.313,306.703,289.546,307.357,288.774,308C287.939,308.694,287.062,309.35,286.182,310C285.254,310.685,284.298,311.342,283.343,312C282.362,312.676,281.363,313.334,280.372,314C279.377,314.668,278.374,315.326,277.385,316C276.418,316.66,275.448,317.317,274.503,318C273.601,318.652,272.701,319.308,271.84,320C271.038,320.645,270.241,321.299,269.502,322C268.829,322.638,268.164,323.293,267.583,324C267.061,324.634,266.553,325.294,266.158,326C265.803,326.635,265.479,327.309,265.286,328C265.106,328.645,264.996,329.334,265,330C265.004,330.667,265.124,331.356,265.312,332C265.514,332.692,265.847,333.365,266.21,334C266.614,334.706,267.129,335.366,267.658,336C268.247,336.707,268.918,337.362,269.597,338C270.343,338.701,271.144,339.355,271.951,340C272.817,340.692,273.721,341.348,274.627,342C275.574,342.683,276.547,343.34,277.516,344C278.506,344.674,279.509,345.332,280.504,346C281.495,346.665,282.492,347.323,283.473,348C284.425,348.657,285.378,349.314,286.303,350C287.179,350.65,288.052,351.305,288.881,352C289.648,352.643,290.409,353.297,291.106,354C291.736,354.637,292.358,355.292,292.887,356C293.362,356.634,293.819,357.297,294.155,358C294.46,358.637,294.725,359.315,294.859,360C294.987,360.65,295.03,361.341,294.97,362C294.91,362.675,294.725,363.36,294.485,364C294.223,364.698,293.834,365.366,293.422,366C292.961,366.708,292.386,367.323,291.824,368C288.759,371.69,283.366,375.587,280,380C260.297,405.834,280,500,280,500"></path>
    <path stroke="black" fill="none"
          d="M290,100C290,100,290,220,290,220C290,220,290,220,290,220C290,220,291.995,221.325,292.98,222C293.941,222.659,294.904,223.316,295.841,224C296.733,224.651,297.621,225.307,298.47,226C299.257,226.644,300.039,227.298,300.76,228C301.416,228.638,302.062,229.292,302.622,230C303.124,230.634,303.61,231.295,303.981,232C304.315,232.636,304.614,233.311,304.782,234C304.94,234.647,305.021,235.337,304.994,236C304.966,236.671,304.818,237.357,304.608,238C304.38,238.695,304.023,239.366,303.639,240C303.211,240.707,302.676,241.365,302.127,242C301.517,242.707,300.828,243.361,300.132,244C299.37,244.7,298.554,245.354,297.733,246C296.854,246.691,295.94,247.347,295.025,248C294.07,248.681,293.091,249.339,292.117,250C291.125,250.673,290.12,251.331,289.124,252C288.136,252.664,287.142,253.322,286.167,254C285.222,254.656,284.277,255.313,283.362,256C282.498,256.649,281.637,257.304,280.822,258C280.071,258.642,279.326,259.296,278.648,260C278.036,260.636,277.433,261.292,276.926,262C276.473,262.634,276.038,263.298,275.726,264C275.443,264.638,275.204,265.319,275.095,266C274.99,266.653,274.975,267.344,275.058,268C275.143,268.678,275.354,269.361,275.616,270C275.903,270.7,276.315,271.366,276.748,272C277.232,272.708,277.815,273.364,278.409,274C279.067,274.705,279.795,275.359,280.531,276C281.331,276.697,282.179,277.352,283.031,278C283.936,278.688,284.872,279.345,285.809,280C286.779,280.679,287.769,281.337,288.754,282C289.749,282.67,290.755,283.328,291.748,284C292.728,284.662,293.711,285.32,294.673,286C295.598,286.654,296.522,287.31,297.412,288C298.246,288.647,299.076,289.301,299.855,290C300.568,290.64,301.274,291.294,301.905,292C302.473,292.635,303.029,293.292,303.481,294C303.886,294.634,304.266,295.303,304.519,296C304.751,296.641,304.926,297.326,304.978,298C305.029,298.66,304.976,299.35,304.84,300C304.697,300.686,304.424,301.364,304.111,302C303.765,302.704,303.3,303.366,302.819,304C302.281,304.708,301.653,305.363,301.016,306C300.313,306.703,299.546,307.357,298.774,308C297.939,308.694,297.062,309.35,296.182,310C295.254,310.685,294.298,311.342,293.343,312C292.362,312.676,291.363,313.334,290.372,314C289.377,314.668,288.374,315.326,287.385,316C286.418,316.66,285.448,317.317,284.503,318C283.601,318.652,282.701,319.308,281.84,320C281.038,320.645,280.241,321.299,279.502,322C278.829,322.638,278.164,323.293,277.583,324C277.061,324.634,276.553,325.294,276.158,326C275.803,326.635,275.479,327.309,275.286,328C275.106,328.645,274.996,329.334,275,330C275.004,330.667,275.124,331.356,275.312,332C275.514,332.692,275.847,333.365,276.21,334C276.614,334.706,277.129,335.366,277.658,336C278.247,336.707,278.918,337.362,279.597,338C280.343,338.701,281.144,339.355,281.951,340C282.817,340.692,283.721,341.348,284.627,342C285.574,342.683,286.547,343.34,287.516,344C288.506,344.674,289.509,345.332,290.504,346C291.495,346.665,292.492,347.323,293.473,348C294.425,348.657,295.378,349.314,296.303,350C297.179,350.65,298.052,351.305,298.881,352C299.648,352.643,300.409,353.297,301.106,354C301.736,354.637,302.358,355.292,302.887,356C303.362,356.634,303.819,357.297,304.155,358C304.46,358.637,304.725,359.315,304.859,360C304.987,360.65,305.03,361.341,304.97,362C304.91,362.675,304.725,363.36,304.485,364C304.223,364.698,303.834,365.366,303.422,366C302.961,366.708,302.386,367.323,301.824,368C298.759,371.69,293.366,375.587,290,380C270.297,405.834,290,500,290,500"></path>
    <path stroke="black" fill="none"
          d="M300,100C300,100,300,220,300,220C300,220,300,220,300,220C300,220,301.995,221.325,302.98,222C303.941,222.659,304.904,223.316,305.841,224C306.733,224.651,307.621,225.307,308.47,226C309.257,226.644,310.039,227.298,310.76,228C311.416,228.638,312.062,229.292,312.622,230C313.124,230.634,313.61,231.295,313.981,232C314.315,232.636,314.614,233.311,314.782,234C314.94,234.647,315.021,235.337,314.994,236C314.966,236.671,314.818,237.357,314.608,238C314.38,238.695,314.023,239.366,313.639,240C313.211,240.707,312.676,241.365,312.127,242C311.517,242.707,310.828,243.361,310.132,244C309.37,244.7,308.554,245.354,307.733,246C306.854,246.691,305.94,247.347,305.025,248C304.07,248.681,303.091,249.339,302.117,250C301.125,250.673,300.12,251.331,299.124,252C298.136,252.664,297.142,253.322,296.167,254C295.222,254.656,294.277,255.313,293.362,256C292.498,256.649,291.637,257.304,290.822,258C290.071,258.642,289.326,259.296,288.648,260C288.036,260.636,287.433,261.292,286.926,262C286.473,262.634,286.038,263.298,285.726,264C285.443,264.638,285.204,265.319,285.095,266C284.99,266.653,284.975,267.344,285.058,268C285.143,268.678,285.354,269.361,285.616,270C285.903,270.7,286.315,271.366,286.748,272C287.232,272.708,287.815,273.364,288.409,274C289.067,274.705,289.795,275.359,290.531,276C291.331,276.697,292.179,277.352,293.031,278C293.936,278.688,294.872,279.345,295.809,280C296.779,280.679,297.769,281.337,298.754,282C299.749,282.67,300.755,283.328,301.748,284C302.728,284.662,303.711,285.32,304.673,286C305.598,286.654,306.522,287.31,307.412,288C308.246,288.647,309.076,289.301,309.855,290C310.568,290.64,311.274,291.294,311.905,292C312.473,292.635,313.029,293.292,313.481,294C313.886,294.634,314.266,295.303,314.519,296C314.751,296.641,314.926,297.326,314.978,298C315.029,298.66,314.976,299.35,314.84,300C314.697,300.686,314.424,301.364,314.111,302C313.765,302.704,313.3,303.366,312.819,304C312.281,304.708,311.653,305.363,311.016,306C310.313,306.703,309.546,307.357,308.774,308C307.939,308.694,307.062,309.35,306.182,310C305.254,310.685,304.298,311.342,303.343,312C302.362,312.676,301.363,313.334,300.372,314C299.377,314.668,298.374,315.326,297.385,316C296.418,316.66,295.448,317.317,294.503,318C293.601,318.652,292.701,319.308,291.84,320C291.038,320.645,290.241,321.299,289.502,322C288.829,322.638,288.164,323.293,287.583,324C287.061,324.634,286.553,325.294,286.158,326C285.803,326.635,285.479,327.309,285.286,328C285.106,328.645,284.996,329.334,285,330C285.004,330.667,285.124,331.356,285.312,332C285.514,332.692,285.847,333.365,286.21,334C286.614,334.706,287.129,335.366,287.658,336C288.247,336.707,288.918,337.362,289.597,338C290.343,338.701,291.144,339.355,291.951,340C292.817,340.692,293.721,341.348,294.627,342C295.574,342.683,296.547,343.34,297.516,344C298.506,344.674,299.509,345.332,300.504,346C301.495,346.665,302.492,347.323,303.473,348C304.425,348.657,305.378,349.314,306.303,350C307.179,350.65,308.052,351.305,308.881,352C309.648,352.643,310.409,353.297,311.106,354C311.736,354.637,312.358,355.292,312.887,356C313.362,356.634,313.819,357.297,314.155,358C314.46,358.637,314.725,359.315,314.859,360C314.987,360.65,315.03,361.341,314.97,362C314.91,362.675,314.725,363.36,314.485,364C314.223,364.698,313.834,365.366,313.422,366C312.961,366.708,312.386,367.323,311.824,368C308.759,371.69,303.366,375.587,300,380C280.297,405.834,300,500,300,500"></path>
    <path stroke="black" fill="none"
          d="M310,100C310,100,310,220,310,220C310,220,310,220,310,220C310,220,311.995,221.325,312.98,222C313.941,222.659,314.904,223.316,315.841,224C316.733,224.651,317.621,225.307,318.47,226C319.257,226.644,320.039,227.298,320.76,228C321.416,228.638,322.062,229.292,322.622,230C323.124,230.634,323.61,231.295,323.981,232C324.315,232.636,324.614,233.311,324.782,234C324.94,234.647,325.021,235.337,324.994,236C324.966,236.671,324.818,237.357,324.608,238C324.38,238.695,324.023,239.366,323.639,240C323.211,240.707,322.676,241.365,322.127,242C321.517,242.707,320.828,243.361,320.132,244C319.37,244.7,318.554,245.354,317.733,246C316.854,246.691,315.94,247.347,315.025,248C314.07,248.681,313.091,249.339,312.117,250C311.125,250.673,310.12,251.331,309.124,252C308.136,252.664,307.142,253.322,306.167,254C305.222,254.656,304.277,255.313,303.362,256C302.498,256.649,301.637,257.304,300.822,258C300.071,258.642,299.326,259.296,298.648,260C298.036,260.636,297.433,261.292,296.926,262C296.473,262.634,296.038,263.298,295.726,264C295.443,264.638,295.204,265.319,295.095,266C294.99,266.653,294.975,267.344,295.058,268C295.143,268.678,295.354,269.361,295.616,270C295.903,270.7,296.315,271.366,296.748,272C297.232,272.708,297.815,273.364,298.409,274C299.067,274.705,299.795,275.359,300.531,276C301.331,276.697,302.179,277.352,303.031,278C303.936,278.688,304.872,279.345,305.809,280C306.779,280.679,307.769,281.337,308.754,282C309.749,282.67,310.755,283.328,311.748,284C312.728,284.662,313.711,285.32,314.673,286C315.598,286.654,316.522,287.31,317.412,288C318.246,288.647,319.076,289.301,319.855,290C320.568,290.64,321.274,291.294,321.905,292C322.473,292.635,323.029,293.292,323.481,294C323.886,294.634,324.266,295.303,324.519,296C324.751,296.641,324.926,297.326,324.978,298C325.029,298.66,324.976,299.35,324.84,300C324.697,300.686,324.424,301.364,324.111,302C323.765,302.704,323.3,303.366,322.819,304C322.281,304.708,321.653,305.363,321.016,306C320.313,306.703,319.546,307.357,318.774,308C317.939,308.694,317.062,309.35,316.182,310C315.254,310.685,314.298,311.342,313.343,312C312.362,312.676,311.363,313.334,310.372,314C309.377,314.668,308.374,315.326,307.385,316C306.418,316.66,305.448,317.317,304.503,318C303.601,318.652,302.701,319.308,301.84,320C301.038,320.645,300.241,321.299,299.502,322C298.829,322.638,298.164,323.293,297.583,324C297.061,324.634,296.553,325.294,296.158,326C295.803,326.635,295.479,327.309,295.286,328C295.106,328.645,294.996,329.334,295,330C295.004,330.667,295.124,331.356,295.312,332C295.514,332.692,295.847,333.365,296.21,334C296.614,334.706,297.129,335.366,297.658,336C298.247,336.707,298.918,337.362,299.597,338C300.343,338.701,301.144,339.355,301.951,340C302.817,340.692,303.721,341.348,304.627,342C305.574,342.683,306.547,343.34,307.516,344C308.506,344.674,309.509,345.332,310.504,346C311.495,346.665,312.492,347.323,313.473,348C314.425,348.657,315.378,349.314,316.303,350C317.179,350.65,318.052,351.305,318.881,352C319.648,352.643,320.409,353.297,321.106,354C321.736,354.637,322.358,355.292,322.887,356C323.362,356.634,323.819,357.297,324.155,358C324.46,358.637,324.725,359.315,324.859,360C324.987,360.65,325.03,361.341,324.97,362C324.91,362.675,324.725,363.36,324.485,364C324.223,364.698,323.834,365.366,323.422,366C322.961,366.708,322.386,367.323,321.824,368C318.759,371.69,313.366,375.587,310,380C290.297,405.834,310,500,310,500"></path>
    <path stroke="black" fill="none"
          d="M320,100C320,100,320,220,320,220C320,220,320,220,320,220C320,220,321.995,221.325,322.98,222C323.941,222.659,324.904,223.316,325.841,224C326.733,224.651,327.621,225.307,328.47,226C329.257,226.644,330.039,227.298,330.76,228C331.416,228.638,332.062,229.292,332.622,230C333.124,230.634,333.61,231.295,333.981,232C334.315,232.636,334.614,233.311,334.782,234C334.94,234.647,335.021,235.337,334.994,236C334.966,236.671,334.818,237.357,334.608,238C334.38,238.695,334.023,239.366,333.639,240C333.211,240.707,332.676,241.365,332.127,242C331.517,242.707,330.828,243.361,330.132,244C329.37,244.7,328.554,245.354,327.733,246C326.854,246.691,325.94,247.347,325.025,248C324.07,248.681,323.091,249.339,322.117,250C321.125,250.673,320.12,251.331,319.124,252C318.136,252.664,317.142,253.322,316.167,254C315.222,254.656,314.277,255.313,313.362,256C312.498,256.649,311.637,257.304,310.822,258C310.071,258.642,309.326,259.296,308.648,260C308.036,260.636,307.433,261.292,306.926,262C306.473,262.634,306.038,263.298,305.726,264C305.443,264.638,305.204,265.319,305.095,266C304.99,266.653,304.975,267.344,305.058,268C305.143,268.678,305.354,269.361,305.616,270C305.903,270.7,306.315,271.366,306.748,272C307.232,272.708,307.815,273.364,308.409,274C309.067,274.705,309.795,275.359,310.531,276C311.331,276.697,312.179,277.352,313.031,278C313.936,278.688,314.872,279.345,315.809,280C316.779,280.679,317.769,281.337,318.754,282C319.749,282.67,320.755,283.328,321.748,284C322.728,284.662,323.711,285.32,324.673,286C325.598,286.654,326.522,287.31,327.412,288C328.246,288.647,329.076,289.301,329.855,290C330.568,290.64,331.274,291.294,331.905,292C332.473,292.635,333.029,293.292,333.481,294C333.886,294.634,334.266,295.303,334.519,296C334.751,296.641,334.926,297.326,334.978,298C335.029,298.66,334.976,299.35,334.84,300C334.697,300.686,334.424,301.364,334.111,302C333.765,302.704,333.3,303.366,332.819,304C332.281,304.708,331.653,305.363,331.016,306C330.313,306.703,329.546,307.357,328.774,308C327.939,308.694,327.062,309.35,326.182,310C325.254,310.685,324.298,311.342,323.343,312C322.362,312.676,321.363,313.334,320.372,314C319.377,314.668,318.374,315.326,317.385,316C316.418,316.66,315.448,317.317,314.503,318C313.601,318.652,312.701,319.308,311.84,320C311.038,320.645,310.241,321.299,309.502,322C308.829,322.638,308.164,323.293,307.583,324C307.061,324.634,306.553,325.294,306.158,326C305.803,326.635,305.479,327.309,305.286,328C305.106,328.645,304.996,329.334,305,330C305.004,330.667,305.124,331.356,305.312,332C305.514,332.692,305.847,333.365,306.21,334C306.614,334.706,307.129,335.366,307.658,336C308.247,336.707,308.918,337.362,309.597,338C310.343,338.701,311.144,339.355,311.951,340C312.817,340.692,313.721,341.348,314.627,342C315.574,342.683,316.547,343.34,317.516,344C318.506,344.674,319.509,345.332,320.504,346C321.495,346.665,322.492,347.323,323.473,348C324.425,348.657,325.378,349.314,326.303,350C327.179,350.65,328.052,351.305,328.881,352C329.648,352.643,330.409,353.297,331.106,354C331.736,354.637,332.358,355.292,332.887,356C333.362,356.634,333.819,357.297,334.155,358C334.46,358.637,334.725,359.315,334.859,360C334.987,360.65,335.03,361.341,334.97,362C334.91,362.675,334.725,363.36,334.485,364C334.223,364.698,333.834,365.366,333.422,366C332.961,366.708,332.386,367.323,331.824,368C328.759,371.69,323.366,375.587,320,380C300.297,405.834,320,500,320,500"></path>
    <path stroke="black" fill="none"
          d="M330,100C330,100,330,220,330,220C330,220,330,220,330,220C330,220,331.995,221.325,332.98,222C333.941,222.659,334.904,223.316,335.841,224C336.733,224.651,337.621,225.307,338.47,226C339.257,226.644,340.039,227.298,340.76,228C341.416,228.638,342.062,229.292,342.622,230C343.124,230.634,343.61,231.295,343.981,232C344.315,232.636,344.614,233.311,344.782,234C344.94,234.647,345.021,235.337,344.994,236C344.966,236.671,344.818,237.357,344.608,238C344.38,238.695,344.023,239.366,343.639,240C343.211,240.707,342.676,241.365,342.127,242C341.517,242.707,340.828,243.361,340.132,244C339.37,244.7,338.554,245.354,337.733,246C336.854,246.691,335.94,247.347,335.025,248C334.07,248.681,333.091,249.339,332.117,250C331.125,250.673,330.12,251.331,329.124,252C328.136,252.664,327.142,253.322,326.167,254C325.222,254.656,324.277,255.313,323.362,256C322.498,256.649,321.637,257.304,320.822,258C320.071,258.642,319.326,259.296,318.648,260C318.036,260.636,317.433,261.292,316.926,262C316.473,262.634,316.038,263.298,315.726,264C315.443,264.638,315.204,265.319,315.095,266C314.99,266.653,314.975,267.344,315.058,268C315.143,268.678,315.354,269.361,315.616,270C315.903,270.7,316.315,271.366,316.748,272C317.232,272.708,317.815,273.364,318.409,274C319.067,274.705,319.795,275.359,320.531,276C321.331,276.697,322.179,277.352,323.031,278C323.936,278.688,324.872,279.345,325.809,280C326.779,280.679,327.769,281.337,328.754,282C329.749,282.67,330.755,283.328,331.748,284C332.728,284.662,333.711,285.32,334.673,286C335.598,286.654,336.522,287.31,337.412,288C338.246,288.647,339.076,289.301,339.855,290C340.568,290.64,341.274,291.294,341.905,292C342.473,292.635,343.029,293.292,343.481,294C343.886,294.634,344.266,295.303,344.519,296C344.751,296.641,344.926,297.326,344.978,298C345.029,298.66,344.976,299.35,344.84,300C344.697,300.686,344.424,301.364,344.111,302C343.765,302.704,343.3,303.366,342.819,304C342.281,304.708,341.653,305.363,341.016,306C340.313,306.703,339.546,307.357,338.774,308C337.939,308.694,337.062,309.35,336.182,310C335.254,310.685,334.298,311.342,333.343,312C332.362,312.676,331.363,313.334,330.372,314C329.377,314.668,328.374,315.326,327.385,316C326.418,316.66,325.448,317.317,324.503,318C323.601,318.652,322.701,319.308,321.84,320C321.038,320.645,320.241,321.299,319.502,322C318.829,322.638,318.164,323.293,317.583,324C317.061,324.634,316.553,325.294,316.158,326C315.803,326.635,315.479,327.309,315.286,328C315.106,328.645,314.996,329.334,315,330C315.004,330.667,315.124,331.356,315.312,332C315.514,332.692,315.847,333.365,316.21,334C316.614,334.706,317.129,335.366,317.658,336C318.247,336.707,318.918,337.362,319.597,338C320.343,338.701,321.144,339.355,321.951,340C322.817,340.692,323.721,341.348,324.627,342C325.574,342.683,326.547,343.34,327.516,344C328.506,344.674,329.509,345.332,330.504,346C331.495,346.665,332.492,347.323,333.473,348C334.425,348.657,335.378,349.314,336.303,350C337.179,350.65,338.052,351.305,338.881,352C339.648,352.643,340.409,353.297,341.106,354C341.736,354.637,342.358,355.292,342.887,356C343.362,356.634,343.819,357.297,344.155,358C344.46,358.637,344.725,359.315,344.859,360C344.987,360.65,345.03,361.341,344.97,362C344.91,362.675,344.725,363.36,344.485,364C344.223,364.698,343.834,365.366,343.422,366C342.961,366.708,342.386,367.323,341.824,368C338.759,371.69,333.366,375.587,330,380C310.297,405.834,330,500,330,500"></path>
    <path stroke="black" fill="none"
          d="M340,100C340,100,340,220,340,220C340,220,340,220,340,220C340,220,341.995,221.325,342.98,222C343.941,222.659,344.904,223.316,345.841,224C346.733,224.651,347.621,225.307,348.47,226C349.257,226.644,350.039,227.298,350.76,228C351.416,228.638,352.062,229.292,352.622,230C353.124,230.634,353.61,231.295,353.981,232C354.315,232.636,354.614,233.311,354.782,234C354.94,234.647,355.021,235.337,354.994,236C354.966,236.671,354.818,237.357,354.608,238C354.38,238.695,354.023,239.366,353.639,240C353.211,240.707,352.676,241.365,352.127,242C351.517,242.707,350.828,243.361,350.132,244C349.37,244.7,348.554,245.354,347.733,246C346.854,246.691,345.94,247.347,345.025,248C344.07,248.681,343.091,249.339,342.117,250C341.125,250.673,340.12,251.331,339.124,252C338.136,252.664,337.142,253.322,336.167,254C335.222,254.656,334.277,255.313,333.362,256C332.498,256.649,331.637,257.304,330.822,258C330.071,258.642,329.326,259.296,328.648,260C328.036,260.636,327.433,261.292,326.926,262C326.473,262.634,326.038,263.298,325.726,264C325.443,264.638,325.204,265.319,325.095,266C324.99,266.653,324.975,267.344,325.058,268C325.143,268.678,325.354,269.361,325.616,270C325.903,270.7,326.315,271.366,326.748,272C327.232,272.708,327.815,273.364,328.409,274C329.067,274.705,329.795,275.359,330.531,276C331.331,276.697,332.179,277.352,333.031,278C333.936,278.688,334.872,279.345,335.809,280C336.779,280.679,337.769,281.337,338.754,282C339.749,282.67,340.755,283.328,341.748,284C342.728,284.662,343.711,285.32,344.673,286C345.598,286.654,346.522,287.31,347.412,288C348.246,288.647,349.076,289.301,349.855,290C350.568,290.64,351.274,291.294,351.905,292C352.473,292.635,353.029,293.292,353.481,294C353.886,294.634,354.266,295.303,354.519,296C354.751,296.641,354.926,297.326,354.978,298C355.029,298.66,354.976,299.35,354.84,300C354.697,300.686,354.424,301.364,354.111,302C353.765,302.704,353.3,303.366,352.819,304C352.281,304.708,351.653,305.363,351.016,306C350.313,306.703,349.546,307.357,348.774,308C347.939,308.694,347.062,309.35,346.182,310C345.254,310.685,344.298,311.342,343.343,312C342.362,312.676,341.363,313.334,340.372,314C339.377,314.668,338.374,315.326,337.385,316C336.418,316.66,335.448,317.317,334.503,318C333.601,318.652,332.701,319.308,331.84,320C331.038,320.645,330.241,321.299,329.502,322C328.829,322.638,328.164,323.293,327.583,324C327.061,324.634,326.553,325.294,326.158,326C325.803,326.635,325.479,327.309,325.286,328C325.106,328.645,324.996,329.334,325,330C325.004,330.667,325.124,331.356,325.312,332C325.514,332.692,325.847,333.365,326.21,334C326.614,334.706,327.129,335.366,327.658,336C328.247,336.707,328.918,337.362,329.597,338C330.343,338.701,331.144,339.355,331.951,340C332.817,340.692,333.721,341.348,334.627,342C335.574,342.683,336.547,343.34,337.516,344C338.506,344.674,339.509,345.332,340.504,346C341.495,346.665,342.492,347.323,343.473,348C344.425,348.657,345.378,349.314,346.303,350C347.179,350.65,348.052,351.305,348.881,352C349.648,352.643,350.409,353.297,351.106,354C351.736,354.637,352.358,355.292,352.887,356C353.362,356.634,353.819,357.297,354.155,358C354.46,358.637,354.725,359.315,354.859,360C354.987,360.65,355.03,361.341,354.97,362C354.91,362.675,354.725,363.36,354.485,364C354.223,364.698,353.834,365.366,353.422,366C352.961,366.708,352.386,367.323,351.824,368C348.759,371.69,343.366,375.587,340,380C320.297,405.834,340,500,340,500"></path>
    <path stroke="black" fill="none"
          d="M350,100C350,100,350,220,350,220C350,220,350,220,350,220C350,220,351.995,221.325,352.98,222C353.941,222.659,354.904,223.316,355.841,224C356.733,224.651,357.621,225.307,358.47,226C359.257,226.644,360.039,227.298,360.76,228C361.416,228.638,362.062,229.292,362.622,230C363.124,230.634,363.61,231.295,363.981,232C364.315,232.636,364.614,233.311,364.782,234C364.94,234.647,365.021,235.337,364.994,236C364.966,236.671,364.818,237.357,364.608,238C364.38,238.695,364.023,239.366,363.639,240C363.211,240.707,362.676,241.365,362.127,242C361.517,242.707,360.828,243.361,360.132,244C359.37,244.7,358.554,245.354,357.733,246C356.854,246.691,355.94,247.347,355.025,248C354.07,248.681,353.091,249.339,352.117,250C351.125,250.673,350.12,251.331,349.124,252C348.136,252.664,347.142,253.322,346.167,254C345.222,254.656,344.277,255.313,343.362,256C342.498,256.649,341.637,257.304,340.822,258C340.071,258.642,339.326,259.296,338.648,260C338.036,260.636,337.433,261.292,336.926,262C336.473,262.634,336.038,263.298,335.726,264C335.443,264.638,335.204,265.319,335.095,266C334.99,266.653,334.975,267.344,335.058,268C335.143,268.678,335.354,269.361,335.616,270C335.903,270.7,336.315,271.366,336.748,272C337.232,272.708,337.815,273.364,338.409,274C339.067,274.705,339.795,275.359,340.531,276C341.331,276.697,342.179,277.352,343.031,278C343.936,278.688,344.872,279.345,345.809,280C346.779,280.679,347.769,281.337,348.754,282C349.749,282.67,350.755,283.328,351.748,284C352.728,284.662,353.711,285.32,354.673,286C355.598,286.654,356.522,287.31,357.412,288C358.246,288.647,359.076,289.301,359.855,290C360.568,290.64,361.274,291.294,361.905,292C362.473,292.635,363.029,293.292,363.481,294C363.886,294.634,364.266,295.303,364.519,296C364.751,296.641,364.926,297.326,364.978,298C365.029,298.66,364.976,299.35,364.84,300C364.697,300.686,364.424,301.364,364.111,302C363.765,302.704,363.3,303.366,362.819,304C362.281,304.708,361.653,305.363,361.016,306C360.313,306.703,359.546,307.357,358.774,308C357.939,308.694,357.062,309.35,356.182,310C355.254,310.685,354.298,311.342,353.343,312C352.362,312.676,351.363,313.334,350.372,314C349.377,314.668,348.374,315.326,347.385,316C346.418,316.66,345.448,317.317,344.503,318C343.601,318.652,342.701,319.308,341.84,320C341.038,320.645,340.241,321.299,339.502,322C338.829,322.638,338.164,323.293,337.583,324C337.061,324.634,336.553,325.294,336.158,326C335.803,326.635,335.479,327.309,335.286,328C335.106,328.645,334.996,329.334,335,330C335.004,330.667,335.124,331.356,335.312,332C335.514,332.692,335.847,333.365,336.21,334C336.614,334.706,337.129,335.366,337.658,336C338.247,336.707,338.918,337.362,339.597,338C340.343,338.701,341.144,339.355,341.951,340C342.817,340.692,343.721,341.348,344.627,342C345.574,342.683,346.547,343.34,347.516,344C348.506,344.674,349.509,345.332,350.504,346C351.495,346.665,352.492,347.323,353.473,348C354.425,348.657,355.378,349.314,356.303,350C357.179,350.65,358.052,351.305,358.881,352C359.648,352.643,360.409,353.297,361.106,354C361.736,354.637,362.358,355.292,362.887,356C363.362,356.634,363.819,357.297,364.155,358C364.46,358.637,364.725,359.315,364.859,360C364.987,360.65,365.03,361.341,364.97,362C364.91,362.675,364.725,363.36,364.485,364C364.223,364.698,363.834,365.366,363.422,366C362.961,366.708,362.386,367.323,361.824,368C358.759,371.69,353.366,375.587,350,380C330.297,405.834,350,500,350,500"></path>
    <path stroke="black" fill="none"
          d="M360,100C360,100,360,220,360,220C360,220,360,220,360,220C360,220,361.995,221.325,362.98,222C363.941,222.659,364.904,223.316,365.841,224C366.733,224.651,367.621,225.307,368.47,226C369.257,226.644,370.039,227.298,370.76,228C371.416,228.638,372.062,229.292,372.622,230C373.124,230.634,373.61,231.295,373.981,232C374.315,232.636,374.614,233.311,374.782,234C374.94,234.647,375.021,235.337,374.994,236C374.966,236.671,374.818,237.357,374.608,238C374.38,238.695,374.023,239.366,373.639,240C373.211,240.707,372.676,241.365,372.127,242C371.517,242.707,370.828,243.361,370.132,244C369.37,244.7,368.554,245.354,367.733,246C366.854,246.691,365.94,247.347,365.025,248C364.07,248.681,363.091,249.339,362.117,250C361.125,250.673,360.12,251.331,359.124,252C358.136,252.664,357.142,253.322,356.167,254C355.222,254.656,354.277,255.313,353.362,256C352.498,256.649,351.637,257.304,350.822,258C350.071,258.642,349.326,259.296,348.648,260C348.036,260.636,347.433,261.292,346.926,262C346.473,262.634,346.038,263.298,345.726,264C345.443,264.638,345.204,265.319,345.095,266C344.99,266.653,344.975,267.344,345.058,268C345.143,268.678,345.354,269.361,345.616,270C345.903,270.7,346.315,271.366,346.748,272C347.232,272.708,347.815,273.364,348.409,274C349.067,274.705,349.795,275.359,350.531,276C351.331,276.697,352.179,277.352,353.031,278C353.936,278.688,354.872,279.345,355.809,280C356.779,280.679,357.769,281.337,358.754,282C359.749,282.67,360.755,283.328,361.748,284C362.728,284.662,363.711,285.32,364.673,286C365.598,286.654,366.522,287.31,367.412,288C368.246,288.647,369.076,289.301,369.855,290C370.568,290.64,371.274,291.294,371.905,292C372.473,292.635,373.029,293.292,373.481,294C373.886,294.634,374.266,295.303,374.519,296C374.751,296.641,374.926,297.326,374.978,298C375.029,298.66,374.976,299.35,374.84,300C374.697,300.686,374.424,301.364,374.111,302C373.765,302.704,373.3,303.366,372.819,304C372.281,304.708,371.653,305.363,371.016,306C370.313,306.703,369.546,307.357,368.774,308C367.939,308.694,367.062,309.35,366.182,310C365.254,310.685,364.298,311.342,363.343,312C362.362,312.676,361.363,313.334,360.372,314C359.377,314.668,358.374,315.326,357.385,316C356.418,316.66,355.448,317.317,354.503,318C353.601,318.652,352.701,319.308,351.84,320C351.038,320.645,350.241,321.299,349.502,322C348.829,322.638,348.164,323.293,347.583,324C347.061,324.634,346.553,325.294,346.158,326C345.803,326.635,345.479,327.309,345.286,328C345.106,328.645,344.996,329.334,345,330C345.004,330.667,345.124,331.356,345.312,332C345.514,332.692,345.847,333.365,346.21,334C346.614,334.706,347.129,335.366,347.658,336C348.247,336.707,348.918,337.362,349.597,338C350.343,338.701,351.144,339.355,351.951,340C352.817,340.692,353.721,341.348,354.627,342C355.574,342.683,356.547,343.34,357.516,344C358.506,344.674,359.509,345.332,360.504,346C361.495,346.665,362.492,347.323,363.473,348C364.425,348.657,365.378,349.314,366.303,350C367.179,350.65,368.052,351.305,368.881,352C369.648,352.643,370.409,353.297,371.106,354C371.736,354.637,372.358,355.292,372.887,356C373.362,356.634,373.819,357.297,374.155,358C374.46,358.637,374.725,359.315,374.859,360C374.987,360.65,375.03,361.341,374.97,362C374.91,362.675,374.725,363.36,374.485,364C374.223,364.698,373.834,365.366,373.422,366C372.961,366.708,372.386,367.323,371.824,368C368.759,371.69,363.366,375.587,360,380C340.297,405.834,360,500,360,500"></path>
</svg>
